<svg xmlns="http://www.w3.org/2000/svg" viewBox="0 0 819.56 208.39">
  <defs>
    <style>
      .cls-1 {
        fill: #ffe471;
      }
    </style>
  </defs>
  <g id="Layer_2" data-name="Layer 2">
    <g id="Layer_1-2" data-name="Layer 1">
      <g>
        <path class="cls-1" d="M106.37,176c-6.17,2.41-13.17,8.41-17.17,6.41-9-6-10-18-12-29-9,6-27,5-21.49,18.65.08,1.1.13,2.2.16,3.28.16,7.58-1.21,14.64-4.62,20.24a24.16,24.16,0,0,1-1.58,2.31c-6.47,7.52-15.47,7.52-23.47,10.52,15-11,9-31,8-46-7,3-16,0-21.5-3.88-.89-.52-1.75-1.07-2.58-1.66A24.09,24.09,0,0,1,.2,142.39c-1-4,2-10,2-15,4.59,10.08,12.53,16,22.3,20,.88.37,1.77.75,2.63,1.17-.22-1-.48-2-.75-3s-.57-2-.86-2.95c-7-23.72-16.07-51-1.06-73.35q.78-1.28,1.65-2.52c7.52-10.73,19.87-19,38.26-23.53l1,3.18,1,3.18c1.82,8.9,5.82,16.9,8.13,25.42l.93,3.18.75,2.38L77,82.86c3.25,13.53,10.25,26.53,12.61,40.62l.92,3c4.87,15.93,9.83,31.95,15.31,48C106,175,106.16,175.47,106.37,176ZM73.73,142.2c-5.53-8.81-8.53-19.81-11.41-29.79-.35-1-.7-2-1.06-3C57.38,98.24,53.55,87.09,49.9,75.8c-.29-1.1-.64-2.13-1-3.16l-3.16-9.29c-10.86,9.88-12.9,22.34-11,35.36.15,1.09.33,2.18.5,3.28,2,17.4,9,31.4,17,45.4,4,6,13-2,18.82-3.88C71.9,143,72.81,142.6,73.73,142.2Z"/>
        <path class="cls-1" d="M186.5,120.48c2.7,6.91.7,19.91,9.7,20.91,17,1,17-18,16-32,0-2,3-3,6-3,0,14,4,29-8.84,38.53A24.2,24.2,0,0,1,188,152.86a18.45,18.45,0,0,1-2.9-.6c-3.85.13-8.85-4.87-9.85-3.87-8,11-20,16-33,15-18-2-32-17-36.34-33.72-.36-1.06-.68-2.12-1-3.19a67.8,67.8,0,0,1-2.55-19.63q0-1.63.15-3.24c.72-25.22,24.72-45.22,49.72-35.22a186.45,186.45,0,0,1-10-39c10-1,13-11,22-14,1,8,1,16,3.18,24.26.23,1.14.46,2.26.7,3.34s.49,2.18.73,3.27c.12.54.23,1.11.31,1.69.08,8.44,7.08,15.44,5.45,23,.19,1,.39,2.08.58,3.12,2.7,14.58,4.95,29.43,10,43.55A20.09,20.09,0,0,1,186.5,120.48Zm-17.95,17.45a76.15,76.15,0,0,1-6.11-23.19c-.24-1.08-.5-2.15-.76-3.21l-7-28.78-.77-3.2c.25-5.16-3.75-8.16-8.75-5.38a27.57,27.57,0,0,0-3.26,1A21.45,21.45,0,0,0,139,76.6c-.92.53-1.8,1.11-2.62,1.67-17.18,13.12-13.18,37.12-6.18,54.12,6,13,28,24,37.21,8.14C167.82,139.72,168.19,138.86,168.55,137.93Z"/>
        <path class="cls-1" d="M182,53.85c5.22-7.46,14.22-3.46,20.81-4.66l3.37-.63q10.35,19.39,20.31,39c.47.93.94,1.87,1.41,2.79,2.32,6.07,6.32,11.07,8.45,16.84l1.39,2.82q2.79,5.63,5.53,11.27,3.69-32.59,8.25-65c.15-1,.29-2.06.44-3.09,2.26-5.74,4.26-10.74.26-16.74,3,0,4,2,6,3.52a4,4,0,0,0,2.46.87,11.51,11.51,0,0,0,4.56-.39c1,3-1,6-1.86,8.67a13.61,13.61,0,0,0-.68,3.07q-6.26,44.91-10.79,90c-8.2,1.29-12.3,2-20.48,3.45l-2.94-5.84c-.49-1-1-1.95-1.41-3-.84-3.4-1.84-7.4-3.84-10.4-6-11-15-20-18.83-33-.51-1-1-1.93-1.54-2.89q-5.73-10.69-11.6-21.32a19.29,19.29,0,0,1-1.33-2.78c-1.7-4,.3-9-4.89-11.88A27.16,27.16,0,0,0,182,53.85Z"/>
        <path class="cls-1" d="M300.78,104.3c4.62,12.18,14.53,19.74,27.62,19.16,18.56-.82,33.21-13.77,35.53-32.58,2.38-.1,3.58-.15,6-.23-.79,26.77-24.88,42.8-49.73,43.33v-.2c-25.92,2.52-43.51-22.11-46.38-45.27-3.11-25,10.67-52,37.87-54.37,19-1.62,40.81,7.72,36.67,30.07C344.21,86.33,321.12,100.13,300.78,104.3Zm-2.27-7.41c14.92-4,31.76-14.78,32.36-31.95.35-10.37-7.21-22.82-18.13-20.85C296.8,47,295.14,72,296.65,85.42A99.82,99.82,0,0,0,298.51,96.89Z"/>
        <path class="cls-1" d="M398.53,45c-4.46-1.76-10.51-2.1-18.91.32l1.92,75.16a17.89,17.89,0,0,1-.2,3.44c-2.14,3.46-1.14,6.46-1.14,9.46a57.65,57.65,0,0,0-6.35-2.85c-.78,0-1.54,0-2.31.06-3.08.11-6.15.24-10.25.43q-2-41.73-4-83.47c-.05-1.07-.1-2.14-.14-3.22,4.08-6,6.08-14,.08-20,7-4,6,6,10.65,6.28l2.58-.09,8.81-.25c.07,2.88.11,4.32.18,7.2,7.64-4.05,18.17-7.29,26.89-7.35,7.6-.06,13.13,1.94,17.12,5.37a11,11,0,0,1,1.17,1.19c2.6,3.65,6.6,6.65,6.7,12.82.14.57.27,1.15.39,1.73,5.26,25.2-7.53,64.55,2.63,69.45,9,4.35,22.59-17.2,21.71-29.61,2.39.11,3.58.17,6,.3.13,19.23-9.53,39.17-31,38.83C389.86,129.62,426.88,58.67,398.53,45Z"/>
        <path class="cls-1" d="M445.82,29.05c2.38.34,4.38.34,5.94,1.83l2,.09,2.36.1c.19-4.15.34-7.48.48-10.63a5.09,5.09,0,0,1,.57-2.47c4-4.58,5-11.58-1-15.58,4-4,9-2,12.95.09l2.69-.58L481,0l-1.89,32.34a3.06,3.06,0,0,1,2.45.94c2.6,4.11,13.6,5.11,8.6,12.11-1,1-4-1-6.51-2.17a5.58,5.58,0,0,0-2.62-.73l-2.58-.17L474.76,99c-.71,10.78-1,22.49,7.15,23.76,13.4,2.08,24.32-15.28,24.14-28.05,2.38.23,3.57.34,5.95.59-1.63,18.66-12.78,38.53-33.87,36.81-12.42-1-24.71-9.64-25.47-22.92q1.53-34.06,3-68.13l-2.34-.1a2.82,2.82,0,0,1-1.81-.79c-3.36-1.78-5.36-4.78-5.73-9.11A7.93,7.93,0,0,1,445.82,29.05Z"/>
        <path class="cls-1" d="M552.12,119.36q5-35,10.09-70a8.05,8.05,0,0,1,1.17-2c1.82-2.89,3.82-5.89,1.82-9.89,2,1,4,1,5.12,4.3a2.44,2.44,0,0,0,1.72.75l2.53.39c3.63,2.56,9.63,5.56,14.63,2.56a26.56,26.56,0,0,1-4.94,8.28c-.18,1-.35,2-.51,3q-4.49,27.12-9,54.25c-1.76,10.65-3.36,22.77,2.77,24,12.65,2.52,23.36-14.59,24.74-26.4l5.89,1.15c-1.51,11-6.75,22.66-15.25,29.26a5,5,0,0,1-3.19,1.19c-5.55-.73-9.55,3.27-13.55,7.27-3,2-4-3-6.14-4.18-.94-.27-1.87-.59-2.79-1-7.33-2.91-13.67-8.86-14.95-17C547,134.17,537,138.45,527,137c-23.41-3.38-26.49-33.7-24.7-52.3q1.78-19.6,3.58-39.21c.1-.61.21-1.23.4-2a21.33,21.33,0,0,0,0-11.13A5.89,5.89,0,0,0,508.41,34a2.59,2.59,0,0,0,1.66.81l2.57.24,2.4.23c5.16,5.1,13.16,4.1,18.16-.9,1,4-1,8-4.43,11.33-.12,1-.24,2-.35,3l-4,35.48C522.85,103,524.48,141.8,552.12,119.36Z"/>
        <path class="cls-1" d="M628.6,66.47c9.83-6.31,21.37-13.13,32.1-3.93,5.79,5,7.55,12.72,6.5,20a4.53,4.53,0,0,1-.45,1.51c-5.55.3-6.55,8.3-11.55,9.3-2,0-3-3-1.77-5.45,0-1-.64-1.32-1.29-1.61-2.6-1.16-5.27-1.61-7.94-2.94-2-1,2-4,2.85-5.88.22-.55-.22-1.24-.75-1.84-4.23-4.79-13.73-3.55-20.23,2.94L613.62,139c-.21,1-.42,2-.64,3-2.78,2.36-3.78,7.36-5.78,10.36-1,1-5,0-6.75-2.85a2.94,2.94,0,0,0-2-1c-.6-.12-1.2-.24-1.83-.4-2.47-2.73-6.47-3.73-9.47-4.73a41.94,41.94,0,0,0,4.44-2.9c.27-1,.48-2.08.69-3.14q7.53-40.23,15.07-80.45a6.61,6.61,0,0,1,1.52-1.78c1.28-2.73,4.28-4.73,3.28-8.73,3,0,5,0,6,3.29.38.86,1.22,1,2.07,1.21l1.71.34c4.21,2.16,9.21,4.16,14.21,2.16-1,3-4,3-5.64,4.44-.16.68-.31,1.35-.46,2Z"/>
        <path class="cls-1" d="M684.78,140.27c1.42,5.12,5.42,9.12,6.1,14.47a5,5,0,0,0,1.25,2.21,27.61,27.61,0,0,0,12.42,8.42c17.62,6.11,36.26-.27,45.49-17,2.28.8,3.43,1.2,5.71,2-10.75,24.75-39.49,30.36-62.82,21.67l.06-.19c-24-6.92-31.88-33.93-27.4-56.15.21-1.06.46-2.1.73-3.14,4.88-5.2,4.88-12.2,4.88-19.2,1-1,3-1,4.61-.52.62-.81,1.27-1.61,1.93-2.39,10.65-12.56,26.69-19.61,44.17-14.33,18.28,5.53,35.58,22.25,23.31,41.61-7.87,12.42-22,18.49-36.52,20.21a3.76,3.76,0,0,1-1.79-.18c-6.71-3.4-12.71-.4-19.3,2.9A7.22,7.22,0,0,1,684.78,140.27Zm1.45-10.63c5,1.75,10-1.25,15.31-.18,1-.14,2.06-.31,3.08-.51,10.19-2,19.59-7.15,23.93-17,4.2-9.57,1.63-23.89-9.3-26.12-5-1-9.48.48-13.4,3.43-.79.6-1.55,1.24-2.41,1.94-8.24,3.22-7.24,12.22-9.24,19.22a35.68,35.68,0,0,1-3.66,2.54c-.34.93-.64,1.84-.92,2.73s-.53,1.74-.76,2.56c-1,3.51-1.7,6.69-2.22,9.62A12.1,12.1,0,0,1,686.23,129.64Z"/>
        <path class="cls-1" d="M782.2,110.64c1.8-.79,3.64-1.6,5.51-2.33a25.27,25.27,0,0,1,3.12-1c3.37-.88,5.37-1.88,8.23-2a20.24,20.24,0,0,1,2.8-.08,17.3,17.3,0,0,1,13,6.37,20.25,20.25,0,0,1,4.69,14.59,5.45,5.45,0,0,1-.36,1.58c-6,4.62-7,11.62-4,17.62a17.08,17.08,0,0,1-5.64-2.4,9.66,9.66,0,0,1-1.5-1.28c-1.86-6.32-7.86-13.32-14.86-9.32,1-4,5-5,6.36-7.74a7.74,7.74,0,0,0-1-2.26c-3.54-5.36-13.24-5.52-20.63-.12l-20.15,55-1.06,2.89c-4.5,3.21-5.5,9.21-7.5,13.21-1,1-6,0-7.37-4.12a3.41,3.41,0,0,0-1.61-2c-4-2.93-8-4.93-13-4.93,2-2,6,0,7.38-3.85l1-3,26.25-75.95L763,96.4a7.46,7.46,0,0,0,2.33-1.19c3.9-.82,6.9-4.82,11.9-5.82,0,2-1,4,.83,5a3.22,3.22,0,0,0,1.4,2.13c3.47,3,7.77,5.35,12.77,2.85-1,4-5,5-8.28,6.84-.26.66-.52,1.34-.8,2.07S782.53,109.8,782.2,110.64Z"/>
      </g>
    </g>
  </g>
</svg>
