<svg xmlns="http://www.w3.org/2000/svg" viewBox="0 0 1167.37 1419.15">
  <defs>
    <style>
      .cls-1 {
        fill: #7b29d3;
        opacity: 0.29;
      }
    </style>
  </defs>
  <g id="Layer_2" data-name="Layer 2">
    <g id="Layer_8" data-name="Layer 8">
      <path class="cls-1" d="M1017.44,217.5a65.46,65.46,0,0,1-7-3.82,28.76,28.76,0,0,1-6.23-5,60,60,0,0,1-4.06-5.92c-1.26-2.07-2.43-4.23-3.53-6.44-2.49-7.52-5.1-15.22-8.12-22.68-1-2.48-2.06-4.94-3.17-7.36a197.31,197.31,0,0,0-14.82-24.08c-1.26-1.43-2.25-2.65-3.31-3.89-17.52-20-45.52-44-68.52-30-11,7,16,22,16,38,0,2-2,3-2.58,4.64a14.38,14.38,0,0,1-7.37,2.24c-1.85.29-3.7.58-5.55.93s-3.68.75-5.5,1.19c-5,1-11,1-16-1-17-6-28-25-47.87-22.53a66.69,66.69,0,0,0-8.49,2.66c-8.39,3.12-16.64,6.87-25.64,7.87-7,0-12-5-16-9-7-9-14-18-25.42-22.68L749.15,109c-1.68-.53-3.37-1.08-5.06-1.63a31.44,31.44,0,0,1-6-4,44.47,44.47,0,0,1-5.28-5.49c-3.05-4.64-6.09-9.37-9.24-14q-1.58-2.34-3.2-4.67c-1-1.44-2-2.86-3.08-4.24a42.29,42.29,0,0,0-4.54-7c-8.14-9.62-21.14-21.62-32.14-14.62-6,3-8,15-5,18,6,8,17,13,17.54,24.55a22.45,22.45,0,0,1-.54,6.45c-8,30-50,26-69,7-1.85-1.61-3.63-3.29-5.32-5s-3.3-3.42-4.81-5.14c-1.73-1.68-3.44-3.35-5.19-5-5.2-4.81-10.68-9.28-17.08-12.45-2.68-.94-5.33-1.77-7.94-2.44q-3.76-.42-7.54-.76a270.41,270.41,0,0,0-68.5,2.19q-5.4.89-10.81,2a32.08,32.08,0,0,1-11,.9,12.71,12.71,0,0,1-8.09-2.31,79.54,79.54,0,0,1-6.74-5.13Q467.27,72.69,464,69c-2.21-2.44-4.39-4.92-6.57-7.42q-3.56-4.11-7.17-8.2t-7.32-8.12c-10.63-11.52-22.7-23-36.1-31.65-2.7-1.73-5.45-3.34-8.28-4.82A71.81,71.81,0,0,0,370.58.29C369,.14,367.32.05,365.68,0s-3.28,0-4.92.08A63.56,63.56,0,0,0,332,7a51.49,51.49,0,0,0-6.2,3.81A57,57,0,0,0,318,18.15c-1.28,1.43-2.51,2.94-3.66,4.51-3.64,5.61-8.64,12.61-4.64,19.61a8,8,0,0,0,4.24,3.08c18.76,1.92,36.76-7.08,55.76-4.08s26,22,21,39c-3,11-13,11-22.17,13.24-1.5.31-3,.64-4.46,1a46.12,46.12,0,0,0-5.7,1.8c-3.67,1-6.67,4-9.67,7a45.22,45.22,0,0,0-3.52-7.18c-3.48-19.82-23.48-20.82-39.85-17.5-2.27.27-4.52.56-6.72.81s-4.35.44-6.41.52c-2.3-.16-4.52-.35-6.72-.49q-4.86-.29-9.7-.3c-3.23,0-6.45.05-9.64.18-2.15.36-4.3.74-6.45,1.18a87.63,87.63,0,0,0-11.73,3.7,115.45,115.45,0,0,0-11.4,5.1,80.06,80.06,0,0,1-8.87,5.24c-2,.87-4.24,2.06-6.49,3a17.36,17.36,0,0,1-6.5,1.72c-7,1-13,2-20.16,1.69-3.38.06-6.74.1-10.06.24-10,.42-19.67,1.77-28.57,7.46a65.37,65.37,0,0,0-19.21,16.61c-9,13-16,28-11,44,4,12,24,26,26,20,1.5-3.2,3.1-6.4,4.8-9.56s3.51-6.29,5.53-9.33c5.67-10.11,18.67-14.11,26.67-6.11,2.16,2.17,4.41,4.25,6.69,6.28s4.57,4,6.82,6c11.49,14.74,7.49,39.74-5.51,51.74-4,4-13,4-20.46,4.11q-5,.35-10,.24a127.37,127.37,0,0,1-48.65-11.07c-3.46-1.4-6.81-2.84-10.11-4.37a211.31,211.31,0,0,1-28-15.73,102.76,102.76,0,0,0-11.17-5.12c-11.19-4.18-22.33-4.81-32.09,5.44a35.18,35.18,0,0,0-4.47,6.5c-8.34,15-11.11,31.39-19.71,44.87A52.53,52.53,0,0,1,6,260.84c-4.34,7.43-8.34,15.43-4.34,21.43,17,23,12,40,8,65-1,6,6,11,11,12a56,56,0,0,1,16.54,5.17,46.89,46.89,0,0,1,12.41,9,39.79,39.79,0,0,1,11,17.81c4,12.5,6.5,25.75,10.87,38.13a90.54,90.54,0,0,0,5.22,12c25.91,42.88,87.91,33.88,124.91,7.88,12-9,26-23,19-35-6-10-18,8-29,10-6,1-10-4-10-9,1-26,24-46,49-49,14-1,25,10,31,22,17,41-4,83-6.89,123.92a89.77,89.77,0,0,0,.89,15.08c1,2,3,4,3.53,6.49a46.38,46.38,0,0,0,10.28,9.42c2.28,1.09,4.61,2.09,7.11,3.58,9.54,7.25,15.06,23.38,21.32,36.2,1.25,2.56,2.53,5,3.89,7.2a21.41,21.41,0,0,0,3.27,4.85c8.5,5.79,22.62,15.77,33.73,18.29a24.9,24.9,0,0,0,6.17.7c38.7-12.73,41.7-59.73,49.7-95.73,2-5,5-9,7.82-13.37q1.54-2.06,2.93-4.24a46.51,46.51,0,0,0,6.25-14.39c3-15-13-22-23-29,18-11,38-22,60-23,14,0,30,11,27.47,26.75a101.63,101.63,0,0,1,.67,14.25c-.84,23.5-7.64,47.25-10.14,71-1,5,1,10,1.09,14.91a16.54,16.54,0,0,0,5.36,9.46c7.53,6.19,20.22,3.35,28.23-3.49a55,55,0,0,0,9.55-6.17c5.77-4.72,10.1-10.73,11.76-18.74.64-2.07,1.35-4.19,2.1-6.33q1.68-4.83,3.65-9.79t4.18-10.07c3.08-5.78,4.08-12.78,8.79-18.1a40.31,40.31,0,0,1,8-6.33c5.92-3.81,12.53-7.26,16.75-13.18a86.47,86.47,0,0,0,7.95-9.73c11.87-16.92,17.11-37.31,19.61-60.44,0-5,5-8,9-10q2.26-1.14,4.46-2.35c1.58-1.14,3.08-2.19,4.59-3.35a31.06,31.06,0,0,0,4.58-3.39,37.6,37.6,0,0,0,3.93-4.43,20.41,20.41,0,0,0,4.18-4.88,14.12,14.12,0,0,0,1.43-5.89,26.6,26.6,0,0,0-.62-5.22,32.56,32.56,0,0,0-1.54-5c-5-10.51-16-16.51-25-23.51-2-2-6-6-5-7,17-8,35,5,49.8,11.64,1.88,1.14,3.59,2.24,5.37,3.32,2.25,1.53,4.55,3,7,4.37,7.86,4.67,16.86,8.67,19.86,18.67,4,14,4,30-6,42-1,1,1,4,3,5,13,1,22-9,29-18,16-19,22-44,15.34-67.45a60.45,60.45,0,0,0-2-6.33,54.7,54.7,0,0,0-10.19-17,62,62,0,0,0-25.6-18q-3.15-2-6.2-4c-13.91-9.2-25.69-18.59-18.34-30.23,9-13,39,2,58.19,11.13,2.36,1.28,4.71,2.59,7,3.88s4.61,2.56,6.87,3.78c2.22,1.68,4.34,3.5,6.4,5.4,6.18,5.69,11.85,12.07,18.18,17.33,2.7,2.18,5.46,4.36,8.34,6.48s6,1,9,1c-2.5-6-1-8.25,2.15-9.42a35,35,0,0,1,5.69-1.28c2.16-.3,5.16-1.3,7.16-.3,4,0,6,3,8,5,1.75,2,3.39,4.05,5,6.12,1.6,2.27,3.12,4.56,4.65,7.05,11.39,18.83,23.39,38.83,43.39,49.83,5,2,13,2,13-4,2-19-16-34-13.14-53.87a31.67,31.67,0,0,1,1.28-6.61,27.82,27.82,0,0,1,2.93-5.74c1-2.1,1.91-4.13,2.92-6.05,2-3.84,4.34-7.39,8-9.73,10-7,22,3,25,14,8,25,6,53,18.75,75.87q1.73,2.89,3.45,5.74c1.16,1.91,2.32,3.79,3.49,5.66s2.36,3.73,3.63,5.6a18.28,18.28,0,0,0,3.87,5.69c20.81,4.44,22.81-25.56,25.81-40.56,1-7,9-7,13-4,18,16.5,14.62,39.75,8.29,61.31-.7,2.4-1.44,4.77-2.26,7.08-1,1.61-2,4.61-4,5.61-6.9,2.7-14.43,3.42-22.11,3.62-2.67.07-5.35.07-8.15.08a43.91,43.91,0,0,0-20.55,3.15,37,37,0,0,0-5.21,4.39c-9,11.76-13,29.76-8,43.76,1,3,6,5,8,2,10-8,19-27,32.3-11.41,2.48,1.74,4.77,3.5,7,5.31,10.27,8.92,19.06,19.21,20.75,33.57a29.73,29.73,0,0,1-1.06,7.57,36.11,36.11,0,0,1-3.28,7.15,46.71,46.71,0,0,1-3.79,5.5c-2.91,2.31-5.92,5.31-10.13,5.09-9.94-1.65-20.14-4.54-30.46-7.35q-3.87-1.05-7.75-2.06c-4.57-2.37-10.57-2.37-15.6-3.52-2.6-.48-5.21-.89-7.81-1.21-15.61-1.92-31.16-.64-46.16,8.36-5,3-9,12-2,13,33,8,66,36,60,72a55.83,55.83,0,0,1-2.63,9,62.3,62.3,0,0,1-4.27,8.74,69.78,69.78,0,0,1-13.23,18,44.61,44.61,0,0,1-5.38,4.92c-5.55,4.17-11.74,5.86-18.49,1.36-4-4-6-9-8-13-2-5.25-3.44-11.62-4.91-18.28-.73-3.33-1.47-6.72-2.21-10a37.32,37.32,0,0,0-13-26.15,25.79,25.79,0,0,0-6.46-4,15.92,15.92,0,0,0-8.22-.84,13.13,13.13,0,0,1,5.09,5,33,33,0,0,1,3,7.13,103.07,103.07,0,0,1,3.21,15.66,74.83,74.83,0,0,1-.39,11.17c-2.49,22.44-15.93,44.16-35.13,54.36-14,8-32-3-42.78,11.53-2.16,2.15-4.3,4.49-6.46,6.88-4.32,4.77-8.75,9.72-13.72,13.71-1.25,1-2.52,1.94-3.84,2.8-2.6,1-5.16,3-7.61,4.13-3.59,2.95-7.59-2.05-9.59-5.05-6-16-3-33-4-49,0-5-6-5-8-3-27,21-41,58-39.45,91.94.18,2.19.34,4.37.42,6.53a62.41,62.41,0,0,1,0,6.42,9.12,9.12,0,0,1-3.18,3.79c-4.08,3-10.27,4.19-14.81,6.79a37,37,0,0,0-5.83,3.53,52.61,52.61,0,0,0-8.38,6.52,49.83,49.83,0,0,0-4.62,5.74,48.12,48.12,0,0,0-3.41,5.33,55.74,55.74,0,0,1-3.25,5.27A9.23,9.23,0,0,1,600,800a10.74,10.74,0,0,1-6.31.27c-39-1-92-25-119,14-7,9-5,33,5,28,25-13,54,0,72.72,15.1a77.16,77.16,0,0,1,7.06,7.54,63.25,63.25,0,0,1,13.28,28.35,71.23,71.23,0,0,1,2.15,10.61,63.25,63.25,0,0,1,.39,11.07,40.09,40.09,0,0,1-7.54,19.45,82.3,82.3,0,0,1-10.2,5.41c-2.48,1.13-5.08,2.23-7.76,3.31-6,2-12.17,4-18.25,6.13-3,1-6.09,2.14-9.26,3.27-22.59,7.76-47.59,14.76-64.59,32.76,27-15,59-28,90-26-5,4-11,5-16,6-21,5-41,8-59,20-8,6-22,21-12,26,23,12,44,17,58,41,1,3,6,5,9,7,12,13,2,31-3.77,45-1.13,2.77-2.26,5.52-3.31,8.2-1,2.48-1.76,5-2.54,7.48-15.64,13.82-37.46,7.91-56.24,13.15a42.82,42.82,0,0,0-6.14,2.2c-2.63,1.5-6.1,3-9.25,4.55s-6,3.16-7.35,4.87c1,9.74-2.14,18.86-6.59,27.5q-1.33,2.6-2.81,5.14c-4,6.94-10,13.94-8,21.94,5,14,19,0,29-3a5.5,5.5,0,0,1-3,5c9-4,18,2,21,11,2,6,2,13-2,18-16,22-47,35-73,24,8,32,47,37,71,55,1,2,0,4-1.52,5.38a24.82,24.82,0,0,1-4.86,5.11,25.21,25.21,0,0,1-5.62,3.51c-9.34,4-18.67,1.78-27.11-2.22-2.11-1-4.17-2.11-6.16-3.27s-3.92-2.35-5.76-3.52c1,1.51,2.09,3,3.13,4.39,3.12,4.32,6,8.66,6.48,14.78.17,2.62.21,5.18.31,7.71.53,12.65,3.11,24.76,13.11,34.13,15,13,37,8,49.81,22.53,2.69,2.75,5.39,5.42,8.1,7.89,13.59,12.33,27.59,19.58,43.09,6.58,12-10,26-13,40.55-17.72a69.86,69.86,0,0,0,8.87-4.43c20.14-11.8,36.38-32.45,54.58-40.85,23.1-11,30.49-31.7,32.59-54.06a91.21,91.21,0,0,0,.24-10.32c-.83-5.62-.83-10.62-1.83-16.62-18-66-39-138-2-200-3,2-3,5-3,8a13.8,13.8,0,0,1,4-3c-2-1-4,4-3,1,2-6,10-13,18.15-9.94a23.11,23.11,0,0,1,6.41,6.37c9.19,13.09,11.69,36.66,20.44,48.48,3,2.09,6,4.09,10.76,2.23a8.5,8.5,0,0,0,2.33-7.06c.34-3.9-.22-8.23-.35-12.37a45.93,45.93,0,0,1,.38-9.62q.18-3.77.4-7.55c.48-20.54,5.48-39.54,10.14-59.26l2.25-11.32c7.51-37.69,15.42-75.49,37.09-106,5,42-12,88,5.56,127.88a47.69,47.69,0,0,0,6.39,8.51c4,2.08,7,.36,9.23-2.58a29.13,29.13,0,0,0,4.31-10.37,58.43,58.43,0,0,0,1.19-8.08c.22-2.77.3-5.6.31-8.46s-.07-5.76-.15-8.66c.16-14.24-1.84-30.24,7.92-41.21a29.14,29.14,0,0,0,7.86-4.63c7-5.68,11.45-13.67,15.34-21.86,1-2.18,2-4.37,3-6.54,1.5-3.3,2.83-6.63,4-10s2.25-6.73,3.2-10.1c1-2.49,1.82-5,2.6-7.46,11.18-26.45,20.18-51.45,21.18-80.45,1-4,2-9,6.75-10.87,2.5-1.82,5.06-2.85,7.37-2.55s4.38,1.92,5.88,5.42A30.31,30.31,0,0,1,890.8,825a87.67,87.67,0,0,1,.41,9.7c1.44,9.58-1.56,19.58,5,28.06a22.42,22.42,0,0,0,7.65,6.71,51.13,51.13,0,0,1,9.82,3.81c5-21,36-20,39-31q2-5.62,4.29-10.78c3.43-5.81,7.06-11.6,10.94-17.25,1.94-2.82,3.94-5.61,6-8.32q3-3.49,6.1-6.74c2.09-2.17,4.24-4.27,6.44-6.53a66.4,66.4,0,0,0,10.5-14.36c1-1.77,1.88-3.56,2.76-5.45,9-25.57,1-55.57,14-79.57,4.37,10,7.19,22,12.59,32a50.21,50.21,0,0,0,3.58,5.74c3.83,3.31,8.83,13.31,14.83,8.31,3-3,2-7,0-10-7-18,0-36,6.51-51.59.89-2.08,1.82-4.1,2.74-6.09,1.86-4,3.72-7.86,5.13-11.82q1.47-2.92,3-5.82c3.58-6.75,7.4-13.42,11.12-20,1.24-2.2,2.47-4.39,3.67-6.58a12.92,12.92,0,0,1,4.65-5.43c8.17-1.64,10.17,6.36,13.17,11.36a52.27,52.27,0,0,1,4.45,12c.39,1.7.75,3.3,1.09,4.94,3.73,12.53.34,23-5.35,32.92-1.54,2-3.07,3.9-4.84,5.82-7.35,9.31-26.35,14.31-23.35,28.31,12-4,27-3,37.44-11.63a67.19,67.19,0,0,0,7.21-4.94c10.14-8.83,17.94-20.23,21.53-33,.8-2.58,1.44-5,2-7.43a65.31,65.31,0,0,0,1-6.6c.35-2.72.61-5.47.78-8.27,1.22-19.14-1.59-41.17-3.2-58.23-.42-1.95-.87-3.91-1.34-5.85-.35-1.46-.72-2.92-1.09-4.38s-.6-3-.84-4.55c-1.5-4.1.5-8.1,1.5-12.1,3.15-8.75,10-17.62,16.7-26.27l2.87-3.7c1.55-2.13,3.1-4.36,4.59-6.69s3-4.74,4.3-7.22c9.77-15.06,8.65-31.84,2.72-47.85-.86-2.31-1.82-4.6-3-7-2.21-2.31-2.21-5.31-4.21-7.31-2-1-3-3-5-4-10-3-20,6-30,0,0,11,16,6,20.86,14.5a17.13,17.13,0,0,1,2.68,5.13,35.68,35.68,0,0,1,1.2,6.32c.82,8.33-1.34,16.25-9.74,23a37,37,0,0,1-5.28,3.17,12.71,12.71,0,0,1-7,1.15,15.53,15.53,0,0,1-6.76-2.32c-2-1-4-5-3.27-8.58q-.15-3-.21-5.91t0-5.95a30.44,30.44,0,0,0,.67-4.61c-21.19-25-13.19-60,6.81-82.91,1.58-1.89,3.22-3.71,4.88-5.46s3.36-3.44,5.07-5.05c1.07-1.81,2.08-3.62,3.09-5.42l3-5.38a53.21,53.21,0,0,0,2.71-7.78,63.28,63.28,0,0,0,1.57-7.89c1.66-5.06.66-11.06.53-16-.15-2.7-.4-5.4-.73-8.1-.54-4.51-1.29-9-2.12-13.53q-.63-3.37-1.3-6.75c-.59-2.2-1.1-4.45-1.57-6.71s-.92-4.6-1.35-6.95c-.35-1.88-.7-3.75-1.07-5.62s-.75-3.73-1.16-5.59c-.59-2-1.2-4-1.84-6s-1.3-4-2-6.05q-.93-2.44-1.89-4.81t-2-4.68a46.44,46.44,0,0,0-2.47-5.24c-.92-1.7-1.9-3.34-2.89-5-2.48-3-3.48-7-6.48-10-3,6-6,12-5,18.92-.18,1.73-.35,3.47-.59,5.22a49.67,49.67,0,0,1-1,5.21c-.31,2.23-.56,4.39-.71,6.59a83.19,83.19,0,0,0,.33,18.65,57,57,0,0,1-.41,6.78,29.21,29.21,0,0,1-1.63,6.63,21.09,21.09,0,0,1-7,7.77,18.38,18.38,0,0,1-9.81,3.34,11.61,11.61,0,0,1-5.78-1.43,11.33,11.33,0,0,1-4.44-4.68,24.3,24.3,0,0,1-2.09-6.15,34.55,34.55,0,0,1-.64-6.44c.12-2.57.3-5.15.48-7.73s.33-5.16.41-7.71a44.2,44.2,0,0,0,0-6,49.37,49.37,0,0,0-10.63-26.19c-7.54-9.8-19.54-15.8-30.89-23.19-1.59-1.2-3.12-2.45-4.57-3.79a41.29,41.29,0,0,1-7.67-9.37C1019.92,220.38,1018.71,219,1017.44,217.5Z"/>
    </g>
  </g>
</svg>
