<svg xmlns="http://www.w3.org/2000/svg" xmlns:xlink="http://www.w3.org/1999/xlink" viewBox="0 0 1167.37 1419.15">
  <defs>
    <style>
      .cls-1 {
        opacity: 0.29;
        filter: url(#AI_GaussianBlur_7);
      }

      .cls-2 {
        fill: #7b29d3;
      }
    </style>
    <filter id="AI_GaussianBlur_7" name="AI_GaussianBlur_7">
      <feGaussianBlur stdDeviation="7"/>
    </filter>
  </defs>
  <g id="Layer_2" data-name="Layer 2">
    <g id="Layer_3" data-name="Layer 3">
      <g class="cls-1">
        <path class="cls-2" d="M1134.17,359.41a65.25,65.25,0,0,1-7-3.81,29.07,29.07,0,0,1-6.23-5,61.91,61.91,0,0,1-4.07-5.92c-1.25-2.07-2.42-4.23-3.53-6.45-2.48-7.51-5.09-15.21-8.12-22.67q-1.5-3.74-3.17-7.37a198,198,0,0,0-14.81-24.08c-1.26-1.42-2.25-2.65-3.31-3.89-17.52-20-45.52-44-68.52-30-11,7,16,22,16,38,0,2-2,3-2.59,4.63a14.13,14.13,0,0,1-7.37,2.24c-1.84.29-3.7.59-5.54.94s-3.68.74-5.5,1.19c-5,1-11,1-16-1-17-6-28-25-47.87-22.53a66.69,66.69,0,0,0-8.49,2.66c-8.39,3.12-16.64,6.87-25.64,7.87-7,0-12-5-16-9-7-9-14-18-25.43-22.69l-5.07-1.6-5.06-1.63a31.44,31.44,0,0,1-6-4,45.38,45.38,0,0,1-5.29-5.5c-3.05-4.63-6.08-9.36-9.24-14q-1.58-2.34-3.19-4.67c-1-1.44-2.06-2.86-3.08-4.23a43,43,0,0,0-4.54-7c-8.14-9.62-21.14-21.62-32.14-14.62-6,3-8,15-5,18,6,8,17,13,17.54,24.55a22.45,22.45,0,0,1-.54,6.45c-8,30-50,26-69,7-1.85-1.61-3.63-3.28-5.32-5s-3.31-3.42-4.82-5.13c-1.72-1.69-3.43-3.35-5.18-5-5.2-4.81-10.68-9.28-17.09-12.45-2.68-.94-5.32-1.76-7.93-2.43-2.51-.28-5-.54-7.54-.76a270.4,270.4,0,0,0-68.5,2.18q-5.4.88-10.81,2a31.89,31.89,0,0,1-11,.9,12.69,12.69,0,0,1-8.09-2.31,76.82,76.82,0,0,1-6.73-5.13c-2.25-2.32-4.47-4.71-6.68-7.14s-4.38-4.92-6.56-7.43c-2.38-2.73-4.76-5.47-7.17-8.2s-4.85-5.44-7.32-8.12c-10.63-11.51-22.7-23-36.11-31.64-2.69-1.73-5.45-3.35-8.27-4.83a71.81,71.81,0,0,0-27.95-8.54c-1.63-.15-3.27-.24-4.91-.27s-3.27,0-4.91.08a63.59,63.59,0,0,0-28.73,6.9,54,54,0,0,0-6.19,3.81A60.15,60.15,0,0,0,431,164.57c-3.64,5.62-8.64,12.62-4.64,19.62a8,8,0,0,0,4.24,3.07c18.76,1.93,36.76-7.07,55.76-4.07s26,22,21,39c-3,11-13,11-22.17,13.23-1.5.31-3,.64-4.46,1a46.79,46.79,0,0,0-5.71,1.79c-3.66,1-6.66,4-9.66,7a45.77,45.77,0,0,0-3.52-7.19c-3.48-19.81-23.48-20.81-39.85-17.5-2.27.28-4.52.57-6.72.81s-4.35.44-6.42.53c-2.29-.17-4.51-.35-6.72-.49-3.23-.2-6.47-.29-9.69-.31s-6.45.05-9.64.18c-2.15.36-4.3.75-6.45,1.19a88.72,88.72,0,0,0-11.74,3.69,117.67,117.67,0,0,0-11.39,5.1,80.17,80.17,0,0,1-8.87,5.25c-2,.87-4.25,2.05-6.5,3a17.27,17.27,0,0,1-6.49,1.72c-7,1-13,2-20.16,1.69-3.38.06-6.74.09-10.07.23-10,.43-19.67,1.77-28.56,7.47a64.65,64.65,0,0,0-19.21,16.61c-9,13-16,28-11,44,4,12,24,26,26,20,1.5-3.2,3.1-6.4,4.8-9.57s3.51-6.29,5.53-9.32c5.67-10.11,18.67-14.11,26.67-6.11,2.16,2.16,4.41,4.25,6.69,6.28s4.56,4,6.81,6c11.5,14.74,7.5,39.74-5.5,51.74-4,4-13,4-20.47,4.11-3.33.23-6.68.3-10,.23a127.32,127.32,0,0,1-48.65-11.06c-3.46-1.41-6.81-2.85-10.11-4.38a209.52,209.52,0,0,1-28-15.72,102.9,102.9,0,0,0-11.18-5.12c-11.19-4.19-22.32-4.81-32.08,5.44a34.37,34.37,0,0,0-4.47,6.5c-8.34,15-11.12,31.39-19.71,44.86a52.16,52.16,0,0,1-6,7.7c-4.34,7.44-8.34,15.44-4.34,21.44,17,23,12,40,8,65-1,6,6,11,11,12a56.07,56.07,0,0,1,16.54,5.17,46.4,46.4,0,0,1,12.4,9,39.72,39.72,0,0,1,11.06,17.81c4,12.5,6.5,25.75,10.87,38.12a91.25,91.25,0,0,0,5.22,12c25.91,42.88,87.91,33.88,124.91,7.88,12-9,26-23,19-35-6-10-18,8-29,10-6,1-10-4-10-9,1-26,24-46,49-49,14-1,25,10,31,22,17,41-4,83-6.89,123.92a89.77,89.77,0,0,0,.89,15.08c1,2,3,4,3.53,6.48a46.37,46.37,0,0,0,10.27,9.43c2.29,1.08,4.62,2.09,7.12,3.57,9.54,7.26,15.06,23.39,21.32,36.2,1.25,2.57,2.53,5,3.88,7.2a21,21,0,0,0,3.28,4.85c8.5,5.79,22.62,15.78,33.73,18.3a25.29,25.29,0,0,0,6.17.69c38.7-12.72,41.7-59.72,49.7-95.72,2-5,5-9,7.82-13.37,1-1.38,2-2.79,2.93-4.24a46.51,46.51,0,0,0,6.25-14.39c3-15-13-22-23-29,18-11,38-22,60-23,14,0,30,11,27.47,26.74a103.23,103.23,0,0,1,.66,14.25c-.84,23.51-7.63,47.26-10.13,71-1,5,1,10,1.09,14.91a16.62,16.62,0,0,0,5.35,9.46c7.54,6.18,20.22,3.35,28.23-3.49a55.12,55.12,0,0,0,9.56-6.18,32.26,32.26,0,0,0,11.76-18.74c.64-2.06,1.34-4.18,2.09-6.32q1.69-4.83,3.66-9.8T649.31,658c3.08-5.78,4.08-12.78,8.79-18.1a40,40,0,0,1,8-6.33c5.91-3.81,12.52-7.27,16.74-13.18a86.36,86.36,0,0,0,8-9.73c11.87-16.93,17.11-37.32,19.61-60.44,0-5,5-8,9-10q2.26-1.14,4.46-2.36c1.57-1.14,3.08-2.18,4.59-3.34A31,31,0,0,0,733,531.1a36.71,36.71,0,0,0,3.93-4.44,20.12,20.12,0,0,0,4.18-4.87,14,14,0,0,0,1.44-5.89,26.51,26.51,0,0,0-.62-5.22,32.68,32.68,0,0,0-1.54-5c-5-10.5-16-16.5-25-23.5-2-2-6-6-5-7,17-8,35,5,49.8,11.63,1.88,1.14,3.59,2.25,5.37,3.32,2.25,1.53,4.54,3,7,4.37,7.87,4.68,16.87,8.68,19.87,18.68,4,14,4,30-6,42-1,1,1,4,3,5,13,1,22-9,29-18,16-19,22-44,15.33-67.45a59.83,59.83,0,0,0-2-6.34,55.09,55.09,0,0,0-10.19-17,69.25,69.25,0,0,0-5.51-5.73,65.3,65.3,0,0,0-20.09-12.31q-3.15-2-6.2-4c-13.91-9.2-25.69-18.59-18.34-30.22,9-13,39,2,58.19,11.13,2.36,1.28,4.7,2.58,7,3.87s4.61,2.56,6.87,3.79c2.22,1.68,4.34,3.5,6.4,5.39,6.18,5.7,11.85,12.07,18.18,17.33,2.69,2.19,5.46,4.36,8.34,6.49s6,1,9,1c-2.5-6-1-8.25,2.15-9.42a34.93,34.93,0,0,1,5.69-1.29c2.16-.29,5.16-1.29,7.16-.29,4,0,6,3,8,5,1.75,2,3.39,4,5,6.12,1.6,2.26,3.13,4.56,4.65,7.05,11.4,18.83,23.4,38.83,43.4,49.83,5,2,13,2,13-4,2-19-16-34-13.14-53.87a30.79,30.79,0,0,1,1.28-6.61,27.57,27.57,0,0,1,2.93-5.74c1-2.11,1.91-4.13,2.92-6.05,2-3.84,4.34-7.4,8-9.73,10-7,22,3,25,14,8,25,6,53,18.75,75.86q1.73,2.9,3.45,5.75t3.49,5.66c1.17,1.87,2.36,3.73,3.63,5.6a18.22,18.22,0,0,0,3.87,5.69c20.81,4.44,22.81-25.56,25.81-40.56,1-7,9-7,13-4,18,16.5,14.62,39.75,8.29,61.31-.7,2.39-1.44,4.77-2.26,7.07-1,1.62-2,4.62-4,5.62-6.9,2.7-14.43,3.42-22.11,3.62-2.67.06-5.36.07-8.15.07a44.14,44.14,0,0,0-20.55,3.15,37,37,0,0,0-5.21,4.4c-9,11.76-13,29.76-8,43.76,1,3,6,5,8,2,10-8,19-27,32.3-11.42,2.48,1.75,4.76,3.5,7,5.31,10.27,8.93,19.06,19.21,20.74,33.57a29.28,29.28,0,0,1-1.05,7.57,35.6,35.6,0,0,1-3.28,7.15,46.9,46.9,0,0,1-3.8,5.51c-2.9,2.31-5.91,5.3-10.12,5.09-9.94-1.65-20.14-4.55-30.46-7.35q-3.87-1.05-7.76-2.06c-4.56-2.37-10.56-2.37-15.59-3.53-2.61-.47-5.21-.88-7.81-1.2-15.61-1.93-31.16-.64-46.16,8.36-5,3-9,12-2,13,33,8,66,36,60,71.95a56.23,56.23,0,0,1-2.63,9.06,62.2,62.2,0,0,1-4.27,8.73,70.68,70.68,0,0,1-13.23,18,43.7,43.7,0,0,1-5.38,4.91c-5.56,4.18-11.74,5.87-18.49,1.37-4-4-6-9-8-13-2-5.25-3.44-11.63-4.91-18.28-.74-3.33-1.48-6.73-2.21-10a37.32,37.32,0,0,0-13-26.15,25.93,25.93,0,0,0-6.47-4,15.89,15.89,0,0,0-8.21-.85,13.15,13.15,0,0,1,5.09,5,33,33,0,0,1,3,7.13,102.58,102.58,0,0,1,3.21,15.66,74.83,74.83,0,0,1-.39,11.17C933,781.27,919.59,803,900.39,813.19c-14,8-32-3-42.78,11.52-2.16,2.16-4.3,4.5-6.46,6.88-4.32,4.77-8.75,9.72-13.73,13.71q-1.86,1.5-3.84,2.81c-2.6,1-5.16,3-7.6,4.13-3.59,3-7.59-2-9.59-5-6-16-3-33-4-49,0-5-6-5-8-3-27,21-41,58-39.45,91.94.17,2.18.34,4.37.42,6.53a59.7,59.7,0,0,1,0,6.42,9.16,9.16,0,0,1-3.17,3.79c-4.08,3-10.28,4.18-14.81,6.79a35.16,35.16,0,0,0-5.83,3.53,52.61,52.61,0,0,0-8.38,6.52,49.53,49.53,0,0,0-4.62,5.73,50.86,50.86,0,0,0-3.42,5.34,56.87,56.87,0,0,1-3.25,5.26,9.22,9.22,0,0,1-5.15,4.88,10.7,10.7,0,0,1-6.3.27c-39-1-92-25-119,14-7,9-5,33,5,28,25-13,54,0,72.72,15.09a79.59,79.59,0,0,1,7.06,7.54,63.3,63.3,0,0,1,13.28,28.35,71.34,71.34,0,0,1,2.14,10.62,62.17,62.17,0,0,1,.4,11.06,40,40,0,0,1-7.54,19.45,81,81,0,0,1-10.2,5.41c-2.48,1.13-5.08,2.23-7.76,3.32-6,2-12.17,4-18.25,6.12-3,1.06-6.09,2.15-9.26,3.27-22.59,7.77-47.59,14.77-64.59,32.77,27-15,59-28,90-26-5,4-11,5-16,6-21,5-41,8-59,20-8,6-22,21-12,26,23,12,44,17,58,41,1,3,6,5,9,7,12,13,2,31-3.77,45-1.13,2.78-2.26,5.53-3.31,8.21-1,2.48-1.76,5-2.55,7.48-15.64,13.81-37.45,7.9-56.24,13.14a45.06,45.06,0,0,0-6.14,2.21c-2.62,1.5-6.09,3-9.24,4.55s-6,3.16-7.35,4.87c1,9.74-2.14,18.86-6.59,27.5-.89,1.73-1.84,3.44-2.81,5.13-4,7-10,14-8,22,5,14,19,0,29-3a5.5,5.5,0,0,1-3,5c9-4,18,2,21,11,2,6,2,13-2,18-16,22-47,35-73,24,8,32,47,37,71,55,1,2,0,4-1.52,5.38a27.43,27.43,0,0,1-10.48,8.62c-9.34,4-18.67,1.78-27.12-2.22-2.11-1-4.16-2.12-6.15-3.27s-3.92-2.36-5.76-3.53c1,1.51,2.09,2.95,3.13,4.39,3.12,4.32,6,8.67,6.48,14.78.17,2.63.2,5.19.31,7.72.53,12.64,3.11,24.75,13.11,34.13,15,13,37,8,49.8,22.53,2.69,2.75,5.39,5.42,8.11,7.89,13.59,12.33,27.59,19.58,43.09,6.58,12-10,26-13,40.55-17.72a71.22,71.22,0,0,0,8.87-4.43c20.14-11.8,36.38-32.45,54.58-40.85,23.1-11,30.48-31.7,32.58-54.06a91.12,91.12,0,0,0,.25-10.32c-.83-5.62-.83-10.62-1.83-16.62-18-66-39-138-2-200-3,2-3,5-3,8a13.8,13.8,0,0,1,4-3c-2-1-4,4-3,1,2-6,10-13,18.15-10a23.14,23.14,0,0,1,6.41,6.38c9.19,13.09,11.69,36.66,20.44,48.48,3,2.09,6,4.09,10.76,2.22a8.46,8.46,0,0,0,2.33-7c.34-3.91-.22-8.23-.35-12.38a45.83,45.83,0,0,1,.38-9.61c.12-2.52.24-5,.4-7.56.48-20.53,5.48-39.53,10.13-59.26q1.14-5.65,2.26-11.31c7.51-37.69,15.42-75.49,37.09-106,5,42-12,88,5.56,127.87a46.82,46.82,0,0,0,6.39,8.52c4,2.07,7,.36,9.23-2.59a29.06,29.06,0,0,0,4.31-10.37,56.82,56.82,0,0,0,1.18-8.07c.23-2.77.31-5.6.31-8.46s-.07-5.76-.14-8.66c.16-14.24-1.84-30.24,7.92-41.21a29.32,29.32,0,0,0,7.86-4.64c7-5.67,11.44-13.67,15.34-21.85,1-2.18,2-4.38,3-6.55,1.5-3.3,2.83-6.63,4-10s2.24-6.73,3.2-10.11c1-2.48,1.82-5,2.6-7.46,11.18-26.44,20.18-51.44,21.18-80.44,1-4,2-9,6.75-10.87,2.5-1.82,5.06-2.85,7.37-2.55s4.38,1.92,5.88,5.42a30.22,30.22,0,0,1,2.15,8.72,89.89,89.89,0,0,1,.41,9.69c1.44,9.59-1.56,19.59,5,28.06a22.45,22.45,0,0,0,7.65,6.72,50.48,50.48,0,0,1,9.82,3.81c5-21,36-20,39-31q2-5.62,4.28-10.79c3.43-5.8,7.07-11.59,10.95-17.24,1.94-2.83,3.94-5.62,6-8.33q3-3.5,6.1-6.74c2.09-2.17,4.24-4.26,6.43-6.52a66.6,66.6,0,0,0,10.51-14.36c1-1.77,1.88-3.57,2.75-5.46,9-25.56,1-55.56,14-79.56,4.37,10,7.18,21.95,12.58,31.95a50.15,50.15,0,0,0,3.59,5.73c3.83,3.32,8.83,13.32,14.83,8.32,3-3,2-7,0-10-7-18,0-36,6.51-51.6.89-2.07,1.81-4.09,2.74-6.09,1.85-4,3.72-7.86,5.13-11.82,1-1.94,2-3.88,3-5.81,3.59-6.76,7.41-13.43,11.13-20q1.86-3.3,3.67-6.59a13,13,0,0,1,4.65-5.43c8.17-1.63,10.17,6.37,13.17,11.37a52,52,0,0,1,4.45,12c.39,1.7.75,3.3,1.09,4.95,3.73,12.52.34,23-5.35,32.92-1.55,2-3.08,3.9-4.85,5.81-7.34,9.32-26.34,14.32-23.34,28.32,12-4,27-3,37.43-11.63a65.3,65.3,0,0,0,7.21-4.95c10.15-8.82,17.94-20.22,21.53-33,.81-2.57,1.45-5,2-7.43a62.48,62.48,0,0,0,1-6.59c.35-2.73.6-5.47.78-8.27,1.22-19.14-1.59-41.17-3.2-58.23q-.63-2.94-1.34-5.86c-.36-1.46-.72-2.92-1.1-4.37s-.6-3-.83-4.55c-1.5-4.1.5-8.1,1.5-12.1,3.15-8.75,10-17.63,16.7-26.28,1-1.23,1.92-2.46,2.86-3.69,1.56-2.13,3.1-4.37,4.6-6.69s2.94-4.74,4.29-7.22c9.77-15.06,8.66-31.84,2.73-47.86-.86-2.3-1.82-4.6-3-7-2.21-2.31-2.21-5.31-4.21-7.31-2-1-3-3-5-4-10-3-20,6-30,0,0,11,16,6,20.86,14.5a17.08,17.08,0,0,1,2.68,5.12,35.85,35.85,0,0,1,1.2,6.32c.82,8.34-1.34,16.26-9.74,23.06a36.1,36.1,0,0,1-5.28,3.16,12.65,12.65,0,0,1-7,1.15,15.51,15.51,0,0,1-6.75-2.31c-2-1-4-5-3.27-8.59q-.16-2.94-.21-5.91t0-5.94a31.61,31.61,0,0,0,.68-4.62c-21.19-24.94-13.19-59.94,6.81-82.91q2.37-2.82,4.88-5.46c1.66-1.75,3.36-3.44,5.07-5,1.06-1.82,2.08-3.62,3.09-5.43l3-5.38a54.72,54.72,0,0,0,2.71-7.77,65.69,65.69,0,0,0,1.57-7.9c1.66-5.05.66-11.05.52-16-.14-2.69-.39-5.39-.72-8.1-.54-4.5-1.3-9-2.13-13.52-.41-2.25-.85-4.51-1.29-6.75s-1.11-4.45-1.58-6.72-.91-4.6-1.34-6.95q-.53-2.81-1.07-5.61c-.37-1.87-.75-3.73-1.16-5.59-.6-2-1.2-4-1.84-6s-1.3-4-2-6.06q-.93-2.43-1.89-4.81t-2-4.67a48.4,48.4,0,0,0-2.47-5.25c-.92-1.69-1.9-3.34-2.89-5-2.48-3-3.48-7-6.48-10-3,6-6,12-5,18.91-.17,1.73-.34,3.48-.58,5.22a48.72,48.72,0,0,1-1,5.21c-.31,2.24-.56,4.4-.71,6.59a83.26,83.26,0,0,0,.32,18.66,56.68,56.68,0,0,1-.4,6.77,29.29,29.29,0,0,1-1.63,6.64,20.93,20.93,0,0,1-7,7.76,18.33,18.33,0,0,1-9.8,3.35,11.71,11.71,0,0,1-5.78-1.43,11.45,11.45,0,0,1-4.44-4.68,24.37,24.37,0,0,1-2.09-6.16,34.36,34.36,0,0,1-.64-6.43c.12-2.57.3-5.16.48-7.74s.33-5.15.41-7.7a42.77,42.77,0,0,0,0-6A48.27,48.27,0,0,0,1185,406a49.34,49.34,0,0,0-4.1-6c-7.54-9.79-19.54-15.79-30.89-23.18-1.59-1.2-3.12-2.46-4.57-3.8a40.92,40.92,0,0,1-7.67-9.36C1136.66,362.29,1135.45,360.89,1134.17,359.41Z" transform="translate(-116.74 -141.92)"/>
      </g>
    </g>
  </g>
</svg>
