<svg xmlns="http://www.w3.org/2000/svg" viewBox="0 0 927.76 223.51">
  <defs>
    <style>
      .cls-1 {
        fill: #73a2ff;
      }
    </style>
  </defs>
  <g id="Layer_2" data-name="Layer 2">
    <g id="Layer_1-2" data-name="Layer 1">
      <g>
        <path class="cls-1" d="M.22,133.54a9.25,9.25,0,0,1,1.58-7.62,4.17,4.17,0,0,1,2.61-1.52c11.6,0,9.6-13,14.9-20.23.81-.28,1.18-1.21,1.55-2.15Q29.1,80.85,37.32,59.69l1.16-3C43,51.36,44,44.36,43,38.36c0-2,1-3,3.28-3A5.17,5.17,0,0,0,47.72,33l4.62-11.89L57.75,20l2.36-.49c3.9-1.11,6.9.89,10.9-1.11a31.2,31.2,0,0,1-12.39-2.88,14.44,14.44,0,0,0-2.94-.24,23.44,23.44,0,0,0-18.23,9.07c-.61.75-1.19,1.54-1.75,2.37C29,31.36,24,41.36,33,47.36c-7,0-12-8-9.13-14.67,0-.58,0-1.12,0-1.64a31.37,31.37,0,0,1,6.86-20C37.49,2.74,46.83-.3,56.47,0c1.07,0,2.15.12,3.23.23C64,6.36,72,1.36,75,4.36c5,5,3,14-3.38,20l-1.14,3.07L42.92,101.54a5.86,5.86,0,0,1-.8,1.41C37,105.36,33,113.36,37,114.36c5,2,11,5,12.62,9.87l1.42,1c7,4.82,14.9,10,22.27,12.17.92.27,1.83.5,2.74.68,3,2.27,7,4.27,11,3.27,5-1,4-7,2-10a5.36,5.36,0,0,1,3,4c4,7-4,10-8.79,12.73a22.14,22.14,0,0,1-2.36,2.31c-18.29,15.21-40-25.91-62.65-21.24a3.45,3.45,0,0,1-1.75-.1C11,126.36,6,130.36,1.82,132.89A8.35,8.35,0,0,1,.22,133.54Z"/>
        <path class="cls-1" d="M168.61,82.71c5.4-.35,5.4,4.65,7.74,8a20.24,20.24,0,0,1,2.29,1.94c6.21,6.17,8.29,16.67,8.35,26.9,0,1,0,2-.07,3-3.26,1.48-6.58,10.76-4.13,12.07a2.44,2.44,0,0,0,2.22-.29c11,7,13-3,18-11,1-2,4,2,7.06,1.91a26.68,26.68,0,0,0,2.89,1.66c-.35.83-1.4.31-2.15.44-1.8,1-3.8,1-4.8,3-1,9-9,10-15.38,11.84a2.81,2.81,0,0,0-2.26,1,19.82,19.82,0,0,1-10,5.65c-.61.57-1.24,1.18-1.9,1.82-10.5,10.28-28,28.11-47,23.13-14.27-3.75-23.61-14.23-28-26.83q-.51-1.45-.93-2.94C102,137.36,99,132.36,96,126.36c0-1,2-3,3.09-3.94.14-1,.3-2.06.49-3.09a52.68,52.68,0,0,1,1.53-6.06c6.25-19.82,23.65-37.83,44.83-37.42,1.11,0,2.24.09,3.37.22C153,78.36,154,83.36,160,82.36c-1,5-6,6-10.26,3-1.09-.63-2-.18-3,.32-12,6.64-19,18.4-22.89,33.33-3.4,13-6.77,40.85,10.38,45.39,7.65,2,14.71-4,19.63-11.24.62-.9,1.21-1.82,1.77-2.75,4.33-3,7.33-6,6.33-11-8,5-18,3-20.89-7.16a21.06,21.06,0,0,1-1.61-2.63c-6.15-11.81-1.54-28.5,9.29-37a3.84,3.84,0,0,1,3.15-1c5.06,1.83,13.06-1.17,14.53-7A3.34,3.34,0,0,1,168.61,82.71Zm-8.5,47.06c.9-1.41,1.9-3.41,3.89-3.89.86-.33,1.12-1.2,1.36-2.12,2-7.31,4-16.19,3-23a17.72,17.72,0,0,0-.59-2.63c.26-1.82.26-3.82,1.26-5.82-3,3-7,3-10.76,4.68a8.08,8.08,0,0,0-1.32,1c-5.5,5.3-7.33,14.48-5.3,22.24a4.61,4.61,0,0,1,.13,3.06c-.75,2-1.75,4-.75,6a5.35,5.35,0,0,0,7,.48C158.68,129.79,159.38,129.77,160.11,129.77Z"/>
        <path class="cls-1" d="M228.14,108.89a34.61,34.61,0,0,1,3-2.55q.76-.57,1.53-1.08a15.77,15.77,0,0,1,7.74-3.56,22.88,22.88,0,0,1,3.07-.62c15.27-2,28.26,12.17,20.38,31.31l-8.39-1.48a11.8,11.8,0,0,1-3-1.42c-2.49-1.13-5.49-1.13-7.49-2.13-1-1,2-3,2.21-5.17a4.53,4.53,0,0,0-.49-2.45c-3.25-7-13.92-6.14-21.11,1.29q-5.88,28.69-11.74,57.39c-.21,1-.41,2-.62,3-3.25,3.92-6.25,8.92-3.25,13.92-5,1-7-3-10.76-4.27l-2.61-.57-2-.45a22.2,22.2,0,0,1-2.77-1c-2.83-.72-4.83-1.72-7.83-1.72,1,0,3-1,4.34-1.65.22-.93.44-1.86.65-2.8q3.81-16.82,7.63-33.63a4.34,4.34,0,0,1,1.63-2.87c4.75-1,5.75-7,3.75-11-1-2-5-4-5-8a14.51,14.51,0,0,1,5.89-7.77,3.14,3.14,0,0,0,.8-1.42l3.08-13.59c.22-.91.43-1.81.7-2.74C212,98.36,215,90.36,210,85.36c3.33,0,4.44,2.22,5.72,4.44a18.58,18.58,0,0,0,1,1.63C220,98.36,231,99.36,236,93.36c0,5-4,8-6.56,10.94a7.72,7.72,0,0,0-.76,2.13Z"/>
        <path class="cls-1" d="M287.36,177.39c.65,1,.65,3,.65,4,6,4,12,5,13.27,13.06a3.89,3.89,0,0,0,2,2.28,27.94,27.94,0,0,0,11.9,4.32c15.61,1.91,31.56-3.74,39.49-17.05l.82-1.41c3.57-3.2,3.57-7.2,3.57-12.2a11.19,11.19,0,0,1,2.45,5A2.47,2.47,0,0,1,363,176c1.06,1.39,3.06,1.39,1.15,3.8a7.93,7.93,0,0,0-1.17,2.66c-7.88,23.59-35.87,31.44-59.06,27l0-.2c-27.53-2.42-40.5-31.76-36.47-56,3.95-23.69,23.66-46.59,49.68-43.13,18.48,2.45,36.68,15.73,29.34,36.24-6.14,17.13-23.53,26.05-41,28.72a10.55,10.55,0,0,1-1.63.13c-4.82-.88-9.82-1.88-13.89,1.18C289,176.82,288.15,177.14,287.36,177.39Zm3.07-8.94c5.58-.09,11.58-2.09,17.83-3.35,1-.35,2-.73,2.91-1.14,8.59-3.71,15.65-10.08,17.9-19.84s-2.18-23.69-13.05-24c-9.79-.31-16.42,8.9-20.48,19.06-.4,1-.78,2-1.14,3.06-8.39,7.15-.39,16.15-3.24,24.93A12.87,12.87,0,0,1,290.43,168.45Z"/>
        <path class="cls-1" d="M431.09,223.33a15.16,15.16,0,0,0,1.24-16.51l.1-3.22q.88-30.58,1.78-61.17a5,5,0,0,0-.59-3.1c-3.61-10,7.39-17,1.47-27.14l.1-3.36c-2.07-5.79-1.4-8.94.74-10.9a13.36,13.36,0,0,0,1.74-1.63C441,92.36,446,89.36,451,92.36c-4-5-10-5-13.73-1a10.33,10.33,0,0,1-2.64,1.15,9.86,9.86,0,0,0-6.74,8.06c-.48.72-.93,1.46-1.34,2.23a30.42,30.42,0,0,0-3.21,10.22,3.89,3.89,0,0,0,.52,2.6c1.14,3.69,2.14,6.69.14,10.69-2-3-6-3-8.25-5.85a22.09,22.09,0,0,1-1.26-2.75,31.94,31.94,0,0,1-.22-21.05c6.16-17.87,25.3-23,42.48-20.94.27,1,.53,2.1.79,3.15a8.72,8.72,0,0,0,.64,1.73c3.34,5,2.23,11.75,4,17.74a12.17,12.17,0,0,0,1,2.55c4.74,4.42,2.74,12.42,2.74,18.42,0,2,1,3,3,3.3l.84,3.1q6.31,23.25,13.06,46.39l.95,3.23c1.19,5,10.19,6,6.19,12,5-3,2-8,.15-11.85.21-1.06.42-2.13.62-3.19q9-46.35,16.72-92.94,4.32-.13,8.66-.32l2.88-.12c5-1.58,9-.58,14.43-.74l2.88-.17.1,1.66a15.81,15.81,0,0,0,.31,1.92c.25,5.75.25,10.75.44,17a7.57,7.57,0,0,1,.58,2.75q3.16,51.83,6.36,103.66a7.51,7.51,0,0,0,.71,3.2c1.16,3.15,3.16,6.15,1.16,10.15-5-5-14,3-12.45-6.33l-.18-3.27Q530.7,158.07,528,107.38a5.77,5.77,0,0,0-.85-3.23C522,99.36,525,93.36,529,88.36c-5,4-9,10-5,15.82a7.13,7.13,0,0,1,0,3.4q-8.6,56.15-19.11,112c-8.19.23-12.29.31-20.48.41q-2.85-9.65-5.62-19.3c-.31-1.07-.62-2.15-.92-3.22-1.88-2.06.12-5.06-1.86-6.6-.28-.92-.59-2-.89-3.06q-7.92-28.08-15.22-56.32c-.26-1-.52-2-.77-3-4.14-4.11-9.14-9.11-5.14-14.11-5,6,1,10,2,15.16l0,3.23q-.42,38.67-.85,77.32c0,.57,0,1.13.07,1.71,1.86,2.58,1.86,6.58,1.86,10.58-5.25-3.5-11.27-5.47-16.62-3.56a6.26,6.26,0,0,0-2.29,2.35c-2.09.21-3.09,3.21-5.14,2.13A11.63,11.63,0,0,1,431.09,223.33Z"/>
        <path class="cls-1" d="M639.22,175.47c1.48,10.69,3.53,23.24,10.9,21.88,13.37-2.46,15.47-21.36,13.08-32.74l5.74-.94c4.08,17.72.61,40.76-20.87,43.67a29.33,29.33,0,0,1-7.55,0,7.19,7.19,0,0,0-2.49,0c-5,1-10-3-12-7-3,6-11,6-14.78,10.29a5.23,5.23,0,0,1-2.61,1.39,34.94,34.94,0,0,1-8.37,1.19c-65.46,2-55.43-117.88,7.88-94.91.7.26,1.4.53,2.21.8a13.1,13.1,0,0,1-.35-2l-.21-1.75c.23-2-1.77-3-3.77-3,3,0,6,1,8.32-1a12.23,12.23,0,0,1,3-.72c.66-.08,1.31-.17,2-.29,2.75-3,6.75-6,11.75-4-5,4-3,11,.4,16.08a3.69,3.69,0,0,1,.66,1.6Q635.64,149.75,639.22,175.47Zm-20.47,14.15Q616.38,170,614,150.43c-.14-1.09-.27-2.18-.41-3.27-8.6-5.8,2.4-15.8-.6-22.8-2-3-8,0-12.37.42-1.23.52-2.24.87-3.21,1.28-27.16,11.43-25.25,69.37,4.13,73.36C609.89,200.14,614.32,196.4,618.75,189.62Z"/>
        <path class="cls-1" d="M670.73,102.72c1.28-.36,3.28-.36,4.23-1.27a5,5,0,0,1,2.88-.81c1.17-.28,2.17-.28,3.17-1.28-1,2,3,4,1,6.11l-.31,1.89c-.1.66-.22,1.38-.35,2.2,1.49-.32,3-.57,4.4-.77.72-.1,1.42-.19,2-.31,3.33-.12,7.33-.12,10.12-.09.63.06,1.24.12,1.85.2,1.2.15,2.37.35,3.51.59s2.25.52,3.33.85c7.52-3.67,8.52,8.33,15.31,9.78a11.17,11.17,0,0,1,1.74,1.12c21.1,24,10.82,74.1-33.72,80-12,1.57-32.25-.08-37.35-14a16.25,16.25,0,0,1,11.27-21.77q4.32-27.69,8-55.46c.15-1.09.29-2.18.42-3.26-.4-.67-.94-1.19-1.24-1.78A3,3,0,0,1,670.73,102.72Zm9.83,15.92q-2.55,22-5.44,44a27.84,27.84,0,0,1,14.8,2.41c.9.46,1.72,1,3,1.57,4,1.74,7,5.74,6,9.74,0,1-2,2-3,2,1-8-9-10-14.46-6.69-1,.5-1.87.85-2.63,1.27-3.07,1.67-5.36,4.56-5.55,7.84-.26,4.48,1.16,9.81,8.57,10.24.53,0,1.08,0,1.67,0,8.4-5.67,21.4-1.67,22.95-14.57a32.85,32.85,0,0,0,1.5-3C717.68,152.18,708.69,119,680.56,118.64Z"/>
        <path class="cls-1" d="M728.15,91c3.25-.74,4.87-1.11,8.11-1.87-1.42-6.08-2.42-10.33-3.51-14.95-.18-.77-.36-1.54-.56-2.34C729,70.36,727,68.36,727,65.36c6,1,10-3,12.81-7.13a5,5,0,0,0,1.87-1.6c.32-3.27,3.32-5.27,5.32-7.27-2,6,2,10,4.94,13.67l.69,2.61,4.77,18.29,2.4-.61,2.05-.53C763,81.36,763,79.36,764,78.36c0,3,2,5,2.78,7.63a7.66,7.66,0,0,1,1.38,2.71l.68,2.6c-3.59.94-5.38,1.4-9,2.32q7,27.51,14,55c2.67,10.47,6,21.75,15.08,20.07,14-2.59,20.08-22.22,14.72-35.11l6.06-1.73c6.09,19.81-.06,41.54-21.71,47-12.56,3.17-29-.1-33.9-13.66q-7.8-33.19-15.58-66.4l-2.2.52-1.89.44c-1.45.57-1.45,2.57-2.45,3.57,0-3-2-7-3.26-9.77C728.57,92.8,728.38,91.94,728.15,91Z"/>
        <path class="cls-1" d="M821.75,137.54A28.83,28.83,0,0,0,855,149.85c18-5.82,32.21-21.66,28.75-41.88,2.39-.85,3.58-1.28,6-2.15a37.19,37.19,0,0,1-.41,22.88c-.34,1-.72,2-1.15,2.92-.17,1.74.83,4.74-1.17,6.74-5,3-10,5-12.55,10a7.4,7.4,0,0,1-1.2,1.79,68.07,68.07,0,0,1-25,12.15l-.06-.19c-26.08,9.4-50.37-11.56-56.92-35.4-6.41-23.32,2.11-52.28,27.26-60.1,17.8-5.53,40.27-1.44,42.2,20.44C862.82,110.61,841.64,129.55,821.75,137.54Zm-3.68-6.84c14.52-6.76,29.43-20.84,25.78-38.37-2.07-9.91-12-20.53-22.1-16.26-14.51,6.15-11.45,31-7.61,43.7A93.23,93.23,0,0,0,818.07,130.7Z"/>
        <path class="cls-1" d="M884.29,58.37c.17-.65.35-1.29.55-1.91s.4-1.22.62-1.81C883,46.36,894,47.36,898.22,41.07a5.58,5.58,0,0,1,2.83-1.69,19.39,19.39,0,0,1,16.32,2.39C926,43.36,932,55.36,924,60.36a8.1,8.1,0,0,1-4,.85c-.8,0-1.63.07-2.46.16-2.5,2-4.5,7-8.5,8,4-5,2-13-5-14s-12,4-14,10c-.21.66-.39,1.2-.56,1.66a22.72,22.72,0,0,0-.84,2.91q10.9,28.84,21.82,57.68c.36,1,.73,1.92,1.1,2.89,3.45,3.81,7.45,6.81,6.45,11.81a14.15,14.15,0,0,0-13.2-2.07,15,15,0,0,0-2.34,1.07c-2.46,4-5.46,11-11.46,9,3-6,2-15-3.92-18.16-.37-1-.73-2-1.09-3L862.43,62.51l-1.12-3.15a14.67,14.67,0,0,1-6.3-8c6.12,1.75,13,2.74,17.44-1.56A3.76,3.76,0,0,0,873.7,47,6.51,6.51,0,0,1,877,42.36c0,5,4,8,5.65,11.55.27.67.52,1.35.78,2.09S884,57.52,884.29,58.37Z"/>
      </g>
    </g>
  </g>
</svg>
