<svg xmlns="http://www.w3.org/2000/svg" viewBox="0 0 182 457">
  <defs>
    <style>
      .cls-1 {
        fill: none;
        stroke: #352947;
        stroke-miterlimit: 10;
      }
    </style>
  </defs>
  <g id="Layer_2" data-name="Layer 2">
    <g id="Layer_4" data-name="Layer 4">
      <line class="cls-1" x1="182" y1="24.59" y2="24.59"/>
      <line class="cls-1" x1="182" y1="51.78" y2="51.78"/>
      <line class="cls-1" x1="182" y1="78.97" y2="78.97"/>
      <line class="cls-1" x1="182" y1="106.16" y2="106.16"/>
      <line class="cls-1" x1="182" y1="133.34" y2="133.34"/>
      <line class="cls-1" x1="182" y1="160.53" y2="160.53"/>
      <line class="cls-1" x1="182" y1="187.72" y2="187.72"/>
      <line class="cls-1" x1="182" y1="214.91" y2="214.91"/>
      <line class="cls-1" x1="182" y1="242.09" y2="242.09"/>
      <line class="cls-1" x1="182" y1="269.28" y2="269.28"/>
      <line class="cls-1" x1="182" y1="296.47" y2="296.47"/>
      <line class="cls-1" x1="182" y1="323.66" y2="323.66"/>
      <line class="cls-1" x1="182" y1="350.84" y2="350.84"/>
      <line class="cls-1" x1="182" y1="378.03" y2="378.03"/>
      <line class="cls-1" x1="182" y1="405.22" y2="405.22"/>
      <line class="cls-1" x1="182" y1="432.41" y2="432.41"/>
      <line class="cls-1" x1="59.79" x2="59.79" y2="22"/>
      <line class="cls-1" x1="59.79" y1="27.19" x2="59.79" y2="49.19"/>
      <line class="cls-1" x1="59.79" y1="54.38" x2="59.79" y2="76.38"/>
      <line class="cls-1" x1="59.79" y1="81.56" x2="59.79" y2="103.56"/>
      <line class="cls-1" x1="59.79" y1="108.75" x2="59.79" y2="130.75"/>
      <line class="cls-1" x1="59.79" y1="135.94" x2="59.79" y2="157.94"/>
      <line class="cls-1" x1="59.79" y1="163.13" x2="59.79" y2="185.13"/>
      <line class="cls-1" x1="59.79" y1="190.31" x2="59.79" y2="212.31"/>
      <line class="cls-1" x1="59.79" y1="217.5" x2="59.79" y2="239.5"/>
      <line class="cls-1" x1="59.79" y1="244.69" x2="59.79" y2="266.69"/>
      <line class="cls-1" x1="59.79" y1="271.88" x2="59.79" y2="293.88"/>
      <line class="cls-1" x1="59.79" y1="299.06" x2="59.79" y2="321.06"/>
      <line class="cls-1" x1="59.79" y1="326.25" x2="59.79" y2="348.25"/>
      <line class="cls-1" x1="59.79" y1="353.44" x2="59.79" y2="375.44"/>
      <line class="cls-1" x1="59.79" y1="380.63" x2="59.79" y2="402.63"/>
      <line class="cls-1" x1="59.79" y1="407.81" x2="59.79" y2="429.81"/>
      <line class="cls-1" x1="59.79" y1="435" x2="59.79" y2="457"/>
    </g>
  </g>
</svg>
