<svg xmlns="http://www.w3.org/2000/svg" viewBox="0 0 1086.99 1243.7">
  <defs>
    <style>
      .cls-1 {
        opacity: 0.37;
      }

      .cls-2 {
        fill: #34208f;
      }
    </style>
  </defs>
  <g id="Layer_2" data-name="Layer 2">
    <g id="Layer_4" data-name="Layer 4">
      <g class="cls-1">
        <g>
          <path class="cls-2" d="M0,224.68c-.21,2.59,3.07,6,6.26,2.91l-1.66-8.36Z"/>
          <path class="cls-2" d="M32.78,221.29c2.29-6,3.74-14.91-3-19.31-.28,9.19-3,7.16-2.82,17.77-3.21,3.12-7.83,1.92-8.77-.94-.21,2.56-6.68,2.2-6,7.67,8.11,2.11,14.31-1.54,18-9.84C32.53,217.26,32.31,219.85,32.78,221.29Z"/>
          <path class="cls-2" d="M415.52,40.06c-.94-.1-1.89-.22-2.82-.28A6.47,6.47,0,0,0,415.52,40.06Z"/>
          <path class="cls-2" d="M672.79,52.67c-2-.15-2.95.48-3.17,1.18C671.53,53.65,673.11,53.43,672.79,52.67Z"/>
          <path class="cls-2" d="M714.91,69.53c-.88-.44-1.64-.71-2.45-1C713.29,69.4,714.19,70,714.91,69.53Z"/>
          <path class="cls-2" d="M415.52,40.06l7.21.86C422.63,38.29,418.9,39.85,415.52,40.06Z"/>
          <path class="cls-2" d="M73,174a9.54,9.54,0,0,0-2.22,3.79,36.17,36.17,0,0,1,2.66-2.6C73.31,174.76,73.16,174.41,73,174Z"/>
          <path class="cls-2" d="M311.71,86.46l-1.9.93a20.24,20.24,0,0,0-.16,3.67Z"/>
          <path class="cls-2" d="M233.27,128.07c1.91-.69-.64-7-1.34-9.93.3,3-.39,4.85-1.71,6.14A13.91,13.91,0,0,0,233.27,128.07Z"/>
          <path class="cls-2" d="M104.32,187.1l-1.68,2.09C103.05,188.6,103.86,187.81,104.32,187.1Z"/>
          <path class="cls-2" d="M369.5,62.82a6.56,6.56,0,0,0,1.58,2A4.49,4.49,0,0,0,369.5,62.82Z"/>
          <path class="cls-2" d="M558.23,1141.25c-.46.14-.71.34-1.1.49C557.92,1141.87,558.41,1141.8,558.23,1141.25Z"/>
          <path class="cls-2" d="M593.44,1234.47l-1.39-.55a33,33,0,0,0-2.42,2.91Z"/>
          <path class="cls-2" d="M790.9,97.11c-.13-.12-.18-.13-.3-.23C788.37,97.05,789.55,97.24,790.9,97.11Z"/>
          <path class="cls-2" d="M743.06,418.21c7.83,6.91-14.62,6.21-2.58,14.25C739.59,429.71,753.18,423.24,743.06,418.21Z"/>
          <path class="cls-2" d="M75.48,173.52a32.27,32.27,0,0,1,3.13-2A9.07,9.07,0,0,0,75.48,173.52Z"/>
          <path class="cls-2" d="M740.48,432.46v.05l1.25.77Z"/>
          <path class="cls-2" d="M955.42,166.6a7.84,7.84,0,0,0,.35-3.4C955.4,163.79,955.23,164.7,955.42,166.6Z"/>
          <path class="cls-2" d="M839.88,98.51l2.93,2A9.73,9.73,0,0,0,839.88,98.51Z"/>
          <path class="cls-2" d="M1007.86,207c.52,1.72.06,2.7,2.11,4.16a3.41,3.41,0,0,0,.3-1C1009,209.92,1008.05,209.23,1007.86,207Z"/>
          <path class="cls-2" d="M1033,269.52a12,12,0,0,0,1.14-1.42c-.25-.63-.48-1.38-.72-2Z"/>
          <path class="cls-2" d="M648.5,1001.58a18,18,0,0,1-6.83-2.3c2,1.48.82,4.45.57,5.88S642.71,1006.5,648.5,1001.58Z"/>
          <path class="cls-2" d="M75,177.2c-.49-1.69-.36-2.75.46-3.68-.71.53-1.37,1.08-2,1.64C73.8,176.14,74.25,177,75,177.2Z"/>
          <path class="cls-2" d="M1054,180.23l1.76,3.12,1.64,3.21,3.24,6.4c-.73-1.89-1.7-4-2.81-6.17-.56-1.1-1.15-2.21-1.77-3.32S1054.67,181.3,1054,180.23Z"/>
          <path class="cls-2" d="M409.11,553.7l2.07,1.68A2.61,2.61,0,0,0,409.11,553.7Z"/>
          <path class="cls-2" d="M1078.76,231.94a22.6,22.6,0,0,0-2.16,9.21,6.73,6.73,0,0,0,2.14,1.17C1078.78,238.91,1078.78,235.45,1078.76,231.94Z"/>
          <path class="cls-2" d="M641.61,999.24s.06,0,.06,0S641.64,999.24,641.61,999.24Z"/>
          <path class="cls-2" d="M580.31,1058.1c2.25-1.3,3.64-2.72,4.08-4a4.75,4.75,0,0,0-.45-3.86c-1.26-2.54-3.83-5.07-4.08-7.88,10.66-9.28,8.88,2.3,15.29,3.76,6.39-6.56,8-17.07,13.84-20.34,1.2,1,2.59.72,2.27,3.08,2.17-5.54,8.09-9.43,14-13.89s11.94-9.49,13.75-16.53a5.2,5.2,0,0,1,2.55.82,24.81,24.81,0,0,1-8.87-8.53c2.1-1.7,3.17-4.39,4.36-6.2s2.48-2.84,5.16-1.29c-2.65,2-1.37,4-1.45,6.4,1-1.85,1.89-3.76,2.8-5.63,4.7,1.46,3.69,3.27,1.94,5.35s-4.22,4.27-2.28,6.69c3.66-4.64,6.83-10.6,9.9-15.91s6-10.11,9.89-12.6c1.84,1,2,2.59,1.4,4.36a21,21,0,0,1-3.18,5.33c-1.21,1.63-2.22,3-2.09,3.79s1.44.94,4.9,0c-2,1.37-4.11,2.63-6.18,3.87s-4.15,2.4-6.21,3.57c4.11.63,5.79,1.21,6.17,1.85s-.5,1.32-1.38,2-1.77,1.49-1.41,2.28,2,1.7,6.18,2.53c1-.7,1.92-1.38,2.78-2s1.65-1.37,2.39-2a40.46,40.46,0,0,0,3.81-3.87c1.09-1.28,2-2.5,2.88-3.7s1.61-2.44,2.37-3.65a105.35,105.35,0,0,1,12.92-17.49c-.53-3.24-2.17-3.84-3.75-4.47a5.19,5.19,0,0,1-3.84-4.39,43.07,43.07,0,0,1,3.44-8.36,19.66,19.66,0,0,1,4-5.26,20.11,20.11,0,0,1,4.55-3.26c1.61-.84,3.21-1.54,4.77-2.23,3.13-1.37,6.16-2.67,8.1-5.34s3-6.64,1.61-12.87c-2-3.5-5.44-6.18-7.57-9.64a12.11,12.11,0,0,1-1.77-6,16.32,16.32,0,0,1,.45-4,28,28,0,0,1,1.54-5c3,1.75,6,3.65,9,5.69a27.77,27.77,0,0,0-.08-6.66,16.62,16.62,0,0,0-1.35-4.49,18.21,18.21,0,0,0-4.22-5.19,11.66,11.66,0,0,1-3.47-5.09,18.71,18.71,0,0,1-.7-4.34c0-.88,0-1.87,0-3s.07-2.28.18-3.62a9,9,0,0,1,2.79,3.44,32.61,32.61,0,0,1,1.8,4.7c.87,3,1.22,5.33,1.6,3.72,1.45-3.69,1.57-6.16,1.14-7.87a5.38,5.38,0,0,0-2.85-3.43,38,38,0,0,1-4.1-2.38,8.38,8.38,0,0,1-3.16-4.82c2.45-1.42,4.83-2.85,7.22-4.34a85.59,85.59,0,0,0-7.18-14.76,135.26,135.26,0,0,0-9.49-13.43c-3.44-4.22-7-8.3-10.62-12.23l-10.72-11.6c2.59-.61,6.88.74,5.78-4.75a366.18,366.18,0,0,1-28.08-30c-4.44-5.22-8.79-10.46-13-15.61l-6.12-7.5-5.77-7.23-11.42-.33c-1.56-1.39-1-4.91,1.64-4.54-5.39-7.85-3.2,3.16-8.35,2.52-4.32-2.89-2.76-7.48,1.13-7-16.27-5.62-43.6-18.39-52-34.63l3.84.38c-8.35-10.29-20.44,2.21-25.68-10.42l2.57.47c-10-10-21.84-18.56-32.26-27.54s-19.35-18.35-23.35-29.28c-4.87,2.37-9.1-3-13.23-8a47,47,0,0,0-3.18-3.47,13.9,13.9,0,0,0-3.28-2.53c-2.27-1.19-4.74-1.22-7.58.94a59.61,59.61,0,0,1-2.71-9.35c-.49-2.41-.75-4.31-1.19-6.29a34.8,34.8,0,0,0-2.12-6.88c-.56-1.39-1.29-2.93-2.17-4.74s-1.89-3.88-3.15-6.26a5.32,5.32,0,0,0-3.32-2.14,22.66,22.66,0,0,0-4.61-.58c-3.33-.2-7.06-.38-9.82-2.71l5.73-4.69q-5.89-1.35-11.92-2.86c1.38-3.12,2.82-6.22,4.26-9.28-1.74-1.38-3.53-2.75-5.27-4.17,1.09,2.35.44,6.38-1.53,7.29a16.17,16.17,0,0,1-2.93-2.86,20.14,20.14,0,0,1-2.18-3.61,28.56,28.56,0,0,1-2.46-8c-.71-5.38.05-10,1.63-11.09-2.84-2.83-5.61-5.73-8.43-8.66l-4-4.51c-1.32-1.53-2.77-3-4-4.6,2.86-.77,5.56,2.28,8.63,4.15-3.07-1.9-4.26-3.24-4.46-4.22s.64-1.65,1.46-2.27c1.65-1.28,3.46-2.39-2-6.06-.91,2.06-4.36,1-5.85,1.39a18.21,18.21,0,0,0,.25-6,36.67,36.67,0,0,0-1.59-7,55.3,55.3,0,0,0-2.65-7.35c-.26-.6-.54-1.2-.82-1.79l-.73-1.54c-.51-1-1-1.9-1.47-2.79,1.78,0,3.55.05,5.31,0l-.47-2.43-.24-1.17-.21-1.11c-.07-.37-.18-.76-.22-1.09l0-.13v.07a.19.19,0,0,1,0,.08,3.66,3.66,0,0,0-.15-.43,16.94,16.94,0,0,1-.82-2.12,4.34,4.34,0,0,1,.12-2.75,3.22,3.22,0,0,1,2.09-1.85,23.73,23.73,0,0,1-4.65-5.46,9.34,9.34,0,0,1-1.36-3.4,2.3,2.3,0,0,1,.74-2.36,65.28,65.28,0,0,1,4.17,7.06,6.52,6.52,0,0,0-.7-2.53,5,5,0,0,0-1.1-1.21,3,3,0,0,1-1-1.45,5.79,5.79,0,0,1,.31-3.42c2.25,0,3.3,2.12,3.68,4.51a34.85,34.85,0,0,1,.32,6.39,10.46,10.46,0,0,1,.83-1.53l.55-.75c0-.13.37-.28.67-.42l.9-.44a4.85,4.85,0,0,1-.23,3.07c-.16.51-.35,1-.49,1.62a6.81,6.81,0,0,0-.17.94l.09,1c0-.16-.06-.29,0-.42a1.54,1.54,0,0,1,.28-.34,1.93,1.93,0,0,1,.71-.44,4,4,0,0,1,1.93-.06,52,52,0,0,1,5.45,1.64c4.52,1.26,9.26,2.06,11.92-2.31l.68,2.29c21.53-1.12,31.12-4.35,48.55-5.59,0-6.76,6.92-5.6,11.87-11.27,13,1.54,27.36,6.32,42.71,5.26,10.71-3.64,3-5.8,7.76-9.93,1,6.1,16.31,5.19,8.44,9.78,9.19-.65,15.07-1.11,21.54-1.93,3.24-.43,6.63-1,10.67-1.74s8.71-1.66,14.54-2.89c-2.5-2.53-5.35-3.64-3.86-5.73,4.25-1,9.62,2.63,9,5.6l-1.12.62a35.15,35.15,0,0,1,10.15-1.74,50.52,50.52,0,0,1,10.61.85,109.35,109.35,0,0,1,10.79,2.55c3.59,1.06,7.16,2.27,10.69,3.43,7.06,2.27,13.86,4.68,20.26,5.63s12.33.81,17.72-2l-1.2.55c3.63-.84,7.29-1.58,10.94-2.38s7.34-1.55,11.05-2.28c9.77,2.07-6.39,4,.53,8.53a48.25,48.25,0,0,1,16.26-2.5,72.81,72.81,0,0,1,13.69,1.77c4.31.89,8.52,1.87,12.92,2.35a41.2,41.2,0,0,0,14-.74c3.3,4.91,8.33,7.67,14.41,9.17a59.28,59.28,0,0,0,9.74,1.5c3.44.25,7,.33,10.67.36,14.63,0,29.93-1,40.62,5l-1.13-4.31c5.66-4.06,6.64,2.67,10.81,3.65-.58-3.27-6-3.93-2.52-6.17,23.54-2.26,48-2,73.53-3.4l4.8-.24,4.94-.41c3.31-.23,6.58-.65,9.89-1s6.57-.88,9.88-1.33,6.57-1.08,9.83-1.73a218.54,218.54,0,0,0,38.43-11c4.5-1.89,6.73-4.45,7.9-7.15s1.3-5.66,1.67-8.37a18.22,18.22,0,0,1,.89-3.89,9,9,0,0,1,2.13-3.43,13.12,13.12,0,0,1,4.37-2.72,33.86,33.86,0,0,1,7.57-2c-.43,3.42-.91,6.86-1.47,10.35,7-7.16,14.33-13.77,21.68-20.41s14.75-13.33,21.74-20.58a145.85,145.85,0,0,0,19-23.69,89.67,89.67,0,0,0,11.83-27.86,25.8,25.8,0,0,0,1.47,3.53,4.38,4.38,0,0,1,.31,1.76,5.68,5.68,0,0,1-.7,2.24c4.53-2.5,7.89-10,9.12-17a34.27,34.27,0,0,0,.31-9.39c-.4-2.55-1.22-4.28-2.34-4.62,1.06-2.93,2.18-3,3.46-2.77s2.7.87,4.34-.79a13.42,13.42,0,0,0,1.86-7,23.27,23.27,0,0,0-.22-4c-.16-1.33-.37-2.65-.56-3.93a52.44,52.44,0,0,1-.83-7c0-2,.58-3.63,2.11-4.69,1-.73,1.66,2.59,2,4.25a20.66,20.66,0,0,1-.62-6.58c-.09-2.68-.06-5.65-.16-8.26A14.53,14.53,0,0,0,1085,281c-.71-1.24-1.74-1.46-3.35-.08a39.73,39.73,0,0,0,.54-5.59l0-1.38-.09-1.36c-.07-.9-.16-1.79-.27-2.68-.23-1.77-.52-3.51-.85-5.22l-.25-1.27-.32-1.25-.66-2.46c-.89-3.24-1.65-6.41-2.39-9.44a37.74,37.74,0,0,1-.72-4.57,39.11,39.11,0,0,1-.09-4.59,10.93,10.93,0,0,1-4.63-6.07c-.44-1.29-.87-2.62-1.25-4s-.7-2.75-1-4.1a36.71,36.71,0,0,0-1.13-3.82,13,13,0,0,0-1.66-3,5.32,5.32,0,0,0-5.69-2.08,5.33,5.33,0,0,0,2.9-2.11,6.59,6.59,0,0,0,1-3.54,22.44,22.44,0,0,0-2.44-9.62,50.89,50.89,0,0,0-2.93-5.06,35.8,35.8,0,0,0-3.54-4.63,29.43,29.43,0,0,0-7.43-6.28c2.21.37,1.86-1.7,1.66-3.84s-.27-4.33,2.62-4.09a38.46,38.46,0,0,0-9.4-10.14,8,8,0,0,0-4.23-1.62,3.61,3.61,0,0,0-3.16,1.72,21.81,21.81,0,0,0-1.84-7.57,22.63,22.63,0,0,0-4-5.8c-.79-.85-1.62-1.65-2.48-2.41s-1.79-1.39-2.71-2c-1.84-1.28-3.74-2.44-5.56-3.55-3.71-2.15-7.14-4.11-9.43-6.73s-3.51-5.85-2.76-10.74c-13.27-7.56-26.06-13.82-38.42-19.42s-24.3-10.49-36-15.11c1.43-2.3,3.74-2.72,6.45-2.18a42.33,42.33,0,0,1,8.87,3.56c3,1.55,6,3,8.56,3.52s4.61,0,5.84-2.56c-11.77-4.45-21.82-6-31.35-7.92s-18.55-4.38-28.68-10.25c-4.95-3.76,5-3,7.67-3.75-11.74-2.84-22.1-7.28-32.33-11.42-5.13-2-10.2-3.93-15.34-5.42A77.29,77.29,0,0,0,847,56.26c.38-.93,2.86-1.22,5.13-1.29-2-.52-4.11-1.71-5.88-2.12s-3.19-.09-3.76,2.31h4.2c1.92,4.47-3.12,6.61-8.83,8.24s-12.06,2.54-13,4.23c5.39-5.64.89-8.1-3.08-10.7s-7.33-5.57.54-12.46c-2.85.09-6.74,1.33-7.1,4.66-3.51-2.08-4.19-4.3.75-6.7a27.11,27.11,0,0,0-8.2,0,22,22,0,0,0-4.55,1.38c-2.55,1-4.81,1.62-11.13-.19.68-2.3,3.49-2.48,5.55-4.79-3.84,1.29-7.69,2.73-11.83,3.15a25.85,25.85,0,0,1-13.71-2.4c1-1.23.21-3.35,3.42-2.52A61.26,61.26,0,0,0,762,36c-4.4.05-8.72.53-13,.77-8.64.46-17.31.48-27-3.87,8.11-8.93-6.23-4.72-5.57-13.73-3.85.15-7.69.25-11.53.46l3.59,5.11c-9.62-2-19.26,2.83-27-1.46l7.8-2.39L670.9,19.41l9.63,5.11c-10.5,2.88-.9,11.32-13.21,6.71,2.74-.48-9.53-1.68-13.71-7.7a0,0,0,0,0,0,0c-5.2,2.09-10.52,4.31-17.28,1-1.43-3.11,3-9.58,2-11.64-5.79,6.71-22.88-1.22-29.92,5.9,2.23-1.58,3-6.22,2.45-7.27L606.15,17c-4.21-2.51-4.75-3.53-3.54-7.15-13.36-2.84,2.85,11.77-12.54,4.94,1.32-.33.83-1.31,3.56-1.91-7.89-2.26-15.82-2.18-23.56-2.05s-15.29.34-22.65-1.71c-1.9-4.63,1.43-5,4.66-5.09s6.38,0,4.15-4c-11-.13-22.47,1.91-33.75,3.75-2.82.48-5.63.93-8.42,1.32s-5.57.82-8.32,1.09c-1.37.14-2.74.25-4.1.33s-2.72.2-4.07.25a67.06,67.06,0,0,1-8-.16l4,.93c-.66,3.19-2,4.41-3.71,4.55s-4-.73-6.47-1.83c-5-2.26-11.12-5-16.23-1.66,2.53-1.12,2.9-7.29,2.29-5.82a45.64,45.64,0,0,0-11.25.7c-1.91.34-3.85.72-5.82,1.24s-4,1.15-6,1.81S442.14,7.85,440,8.69l-6.62,2.6-3.46,1.36-3.56,1.51c-2.4,1-4.9,2.05-7.48,3.1.65-1.26,1.32-2.5,2-3.75a31.17,31.17,0,0,0-7.5.13A78.91,78.91,0,0,0,405,15.05l-8.37,1.88a75.68,75.68,0,0,1-7.63,1.5c-1.74,3.87-6.89,5-2.42,8.55A37.84,37.84,0,0,0,375,25.53a39.88,39.88,0,0,0-10.3,1.91,59,59,0,0,0-9.26,4.2c-3,1.66-5.75,3.55-8.53,5.42-11.09,7.59-21.11,15.59-35.67,13.81,2.67-1.31,5.27-5.58,3.1-4.61q-9.08,5.84-17.93,11.81c3.92,4.27,4,1.81,9.82,3.79-1,4.13-5.22,9-9.86,11.27,6.84-7.47-4-8-9-8.93,1.37,1.22.94,3.52,2,4.92-14.23-3.92,3.33,10.78-13,11.57l-.61-3c-4.32,3.85-7.14,9.63-12.87,11.65-5.16-4.56,3.92-5.39,1.85-10.26-7.39,4.22-9.28,18.43-19,16.33,2.36-3.25,6.93-5.69,9.32-8.9-10.9-2.86-10.87-.68-16.94,1.14l.62-.14q-7.15,1.81-14.32,3.69l4.2.09c-.79,9.88-5.19,13.08-10.35,15.86s-11,5.22-14.69,13.42c7.27-15.7-.84-6.37-3.37-13.26-4.18,0-10.14.65-9.73-1.91-3.12,8.41-12.18,1.35-16.4,13.52-1.5-1.84-6.44,3.31-8-2.57-6.82,5.89,3.8,2.55,4.57,5.48-4,6.77-12.1,8.56-20.72,11.05s-17.67,5.75-23.38,15.38c-12.31,12.33-11,20.74-22.36,32-3.21-.27-3.37-2.65-2.73-5a18.71,18.71,0,0,1,2.09-4.56c-9,1.36-14.23,5.18-19.7,11.59.33-2.59-2-3.21-5.43-4.2-5.18,3.85.73,9.51-8.29,10.94-.12-3-.69-7.52.62-11.36-5.39,5.75-9.49,13.4-15.06,19.29-3.91-2.39.79-7.75,1.77-11.47-6.58,6.16-17.52,15.15-16.41,22.06l6-1c-2.56,2-4.33-3.84-2.94-6.09,3.75-8.3,10.44-3.82,12-2l-4,4.2c12.06,8.69,17.88-13.58,28-18.69l1.16,11,5.56-13c3.44,1,7.73,4.9,3.76,9,9.41.13,4.28-6.68,13-5.48,1.09.35,1,.94.64,1.64l5.21-6.55c-.25,2.58,4.7,5.4-.16,6.61,15-2.15,15.72-17.94,24.11-14l-.71,1.11c15.16-12.66-2.07-7.3,6.34-22.05L156.62,163l-2-7.32c1.87-.77,5.6-2.25,6.41.66,4-8-2.69-2.14-1.23-8.4,5.87.54,11.28-3.43,16.22-6.35s9.37-4.84,13.14-.26c.35-6.55-10.17.74-3-7.67,8.63,9.55,9.45-7.62,20-6.82.71,7-8.25,8,2.26,8.83-.56-12.18,16.25-6.05,21.79-11.4-3.79-7.85,12.56-10.84,22.3-19.16.65,2.95,23.08-6.61,34.84-9l.36,1.46c-2-8.88,9.45-12.76,16.46-18.21,2,4.89,1.52,7.45-1.64,11.63l7.27-3.61c.49-3.37,2.13-5.81,6.45-9l1,6.83a42.06,42.06,0,0,0,6.81-4.64c2.2-1.78,4.4-3.7,6.76-5.5,4.71-3.63,10.1-6.81,17.3-7.49-.83-3-5.05-5.87-7.58-9.13s-3.4-7.07,2.76-11.84c1.79,2.85,4.46,7.89,1.42,10.64,1-.89,3.12-4.29,6-4l-3.31,7.44c6.79-.15,1.27-5.62,6.19-7,1.68,4.43,4.74,1.76,5.46,5.52-1,.91-4.82-.23-5.9,2.26,5.59-1.34,13-1.26,16.32,1.36-1.41-2.35-2.27-6,1.4-8,5-2.06,6.31-.93,7.23.6s1.46,3.62,4.74,3.76c1.34-4,8.78-2.81,6.77-9.61,3-.92,4.51,2.06,6.21,3.52a18.45,18.45,0,0,1,5.44-3.24c1.17-.53,2.42-1,3.65-1.58s2.46-1,3.6-1.48c4.52-2,7.58-4.2,3.67-7l-1.5-.12c.22-.21.52-.3.8-.53h0a29.5,29.5,0,0,1,6.23-3.43,36.57,36.57,0,0,1,6.7-2.07,68.9,68.9,0,0,1,14.1-1.28c2.38,0,4.75,0,7.12,0s4.72.09,7,0c1.16,0,2.31-.08,3.46-.17s2.29-.12,3.43-.24a40.1,40.1,0,0,0,6.7-1.23l.18,2.37c10.42-3.62,23.6-3.16,31.27-8.27,3.23-.09,7.59,4.28,6.22,7.09,4.1-.86,6.4-2,9.15-2.34s6,.06,11.85,2.21c-8.39,3.88,2.71,3.73-8.54,2.78,5.29,1.16,8.47,2.7,11.8,3.29s6.78,0,12.71-2.82c-4.25,5.8,7.44,8.12,12.63,6.79l-7.11-4.93a41.29,41.29,0,0,1,8.15.22c2.58.29,5.07.78,7.58,1.29l-3.46,7.69c10.33,5.85,20.45,2.8,30.07.66s18.55-3.47,25.75,5.74c6.58-4.73-11.36-5.54-5.28-11.29,10,2.43,18.85,15.36,22,15.82,13,6.49,14.62-9.63,28.56-4.26-1.37-3.11-1.92-10.91,9.38-11.77,9.95,2.81,10.33,13.93,3.61,15.08-2.44-.19-3.45-1.28-3.18-2.21-3.41.43-7.88,1-4.41,4.66L667,55.92c4.49,3.73,18.28,5.83,14.22,9.87,8-1.27,4.07-4-1.28-6.47,12.06,6.38,20,3.79,32.54,9.16-1.77-2-3-5.62-1-5.17,4.65,1.81,7.55,2.53,9.51,2.6a4.94,4.94,0,0,0,3.88-1.38c1.75-1.61,2.85-4,9.53-3.18,6.44,5.91-4.9,9.5,8.94,8.95,7.28,4.7-.06,7.75-3.7,9.29a19.2,19.2,0,0,1,8.91.27,27.41,27.41,0,0,1,7.32,3.47c4.42,2.87,8,6.32,11.16,7.72-2.22.2-4.44.4-6.67.65,4-.44,7,.46,10,1.26l-2-6.44c3.34,1.92,6.37,2.75,5.69,5,4.68-2.61-.41-9.91,8.35-12.86,4,4.11,15.55,1.21,15.09,8.92-14.35-6.78-.48,7.76-13.48,5.31,2.68-.17,5.65.72,9,2.7.29,1-1,1.36-2,1.5,6.18,5.25,8.35,3.78,10.92,1.45s5.44-5.38,12.82-3c-3.15,3.45.92,8.81,3.56,8.73-5.83-2-.65-7.7,5.84-9,8.39,6.23,11,1.13,15.84,3.23L834.78,95c3.3-3.35,7.85-1.14,14.91-.06-.58,3.31-6.77,0-4.91,2.23,4.94-2.26,8.39,1.14,12,4.93a38.82,38.82,0,0,0,5.84,5.35,11.82,11.82,0,0,0,7.51,2.33c3.5,4.54-2.57,7.6.68,11,6.58-.34,8.94,2.32,11.3,5a20.66,20.66,0,0,0,4,3.92,14.68,14.68,0,0,0,7.14,2.22c-.77-6.69-2-5.72,8.31-7.05-6.76-1.7-13.51-3.32-20.34-4.77,5.15-.84,10.27-1.54,15.48-2.25a35.37,35.37,0,0,0-9.27-2.35c-3.06-.46-5.77-.89-7.3-2.08,7.65-1.79,6.53-.72,5.62-6.29,2.29,5.64,6.65,6.22,11.37,6.6a31.93,31.93,0,0,1,7,1,10.42,10.42,0,0,1,5.92,4.36l-6.5,12.6a20.49,20.49,0,0,0,4.07,3.69,21.36,21.36,0,0,0,4.49,2.4,58.45,58.45,0,0,0,10.07,2.66c7,1.49,14.92,3.08,21.72,9.68L940.27,145c2.55-1.71,5.11-.29,7.82,1.71s5.43,4.71,8.58,5.52c-3.19,3.54-1.16,7.15-.9,11,.46-.75,1.36-.63,2.54-.1s2.6,1.49,4.21,2.32a20,20,0,0,0,2.54,1.12,11.64,11.64,0,0,0,2.65.64,7.3,7.3,0,0,0,5.55-1.8c.82,3.33,1.44,6.75,2,10.08a17.32,17.32,0,0,0,1.75,1.92,15.09,15.09,0,0,0,1.75,1.52,13.78,13.78,0,0,0,3.7,2,34.68,34.68,0,0,0,7.9,1.5c1.35.15,2.72.3,4.07.53A21,21,0,0,1,998.4,184a14,14,0,0,1,7,5.85c-3.37-.09-4.65,1.71-6.22,2.86s-3.35,1.6-7.79-.59c.74.86,1.43,1.74,2.08,2.53a23.27,23.27,0,0,0,1.77,2.12c1.15,1.12,2.27,1.56,3.58.57-.16,1,.59,1.83,1.74,2.7a47.5,47.5,0,0,0,4.28,2.74c.79.48,1.58,1,2.31,1.52a11.64,11.64,0,0,1,1.87,1.75,4.54,4.54,0,0,1,1.29,4.08c2.86.48,7.36-1.54,9.82,3.32a2.9,2.9,0,0,1-2,1.15c1-.57,2.82.81,4.52,1.62s3.53.92,4.68-2.49a22.87,22.87,0,0,0-.81,7.45,29.88,29.88,0,0,0,1.13,7.1c.72,2.29,1.41,4.65,2.37,6.95.45,1.15,1,2.28,1.45,3.45l1.41,3.49c.47,1.16,1,2.31,1.42,3.46s.79,2.33,1.15,3.48.7,2.3,1,3.44a22.68,22.68,0,0,1,.58,3.39,20.63,20.63,0,0,1-.15,6.44,15,15,0,0,1-2.62,5.72,95.54,95.54,0,0,1,3.6,15.49,36.63,36.63,0,0,1,.45,4c.1,1.33.19,2.63.28,3.92a29.48,29.48,0,0,1,0,3.75c0,1.21-.08,2.4-.13,3.53-1.36-.73-2.35-.27-1.71-1.91a9.92,9.92,0,0,0-1,3.79,5.29,5.29,0,0,0,.46,2.79c.75,1.64,2.27,2.92,3.74,4.3a10.79,10.79,0,0,1,3.32,4.85,6.7,6.7,0,0,1,0,3.45,15.24,15.24,0,0,1-2.08,4.42c-2.33,1.33-3.7,1.35-4.34.84s-.69-1.63-.63-2.79c.16-2.31,1-4.76-1-2.92-3.9-.5-6,.23-7.07,1.73s-1.42,3.73-1.59,6.33c-.14,1.28-.25,2.64-.43,4a19.77,19.77,0,0,1-.36,2,18.65,18.65,0,0,1-.63,2,10.7,10.7,0,0,1-2.06,3.45,9.2,9.2,0,0,1-3.71,2.26l.18-2.38c-3.91,1.9-4.5,6.16-5.45,11.34-.23,1.29-.44,2.65-.74,4s-.71,2.72-1.17,4.09c-.24.68-.48,1.36-.77,2s-.65,1.3-1,1.93a18.08,18.08,0,0,1-2.64,3.55,3.26,3.26,0,0,0-1.78-1.54c.47,5.6-1.49,12.06-4.94,18.09A94,94,0,0,1,988.67,395c-.77-7.17,2.31-6-3.39-9.35-1.8,2,.05,3.7,1.45,5.91a5.7,5.7,0,0,1,.51,6.24,12.77,12.77,0,0,1-2.18,2.81,27.92,27.92,0,0,0-4.19,0c-1.55.05-3.2.09-4.81,0a16.83,16.83,0,0,1-4.68-.83,9.68,9.68,0,0,1-4-2.63c1.4-.93,2.74-1.93,4.08-2.93s2.71-1.95,4-3a7.45,7.45,0,0,0-5.53-.51,9.4,9.4,0,0,0-3.71,2.92c-1.09,1.26-2.08,2.72-3.12,4a7.4,7.4,0,0,1-3.52,2.57l-1.34-3.56c-6.13,4.36-8.34,8.42-10.89,12.44s-5.55,7.87-13.56,10.83c.91.66,1.82,1.33,2.73,2-1.29,3.05-2.58,4.44-3.81,5a4.71,4.71,0,0,1-3.64-.19,7.82,7.82,0,0,0-3.78-.69c-1.33.23-2.75,1.17-4.46,3.53q-2.85-4-5.59-8.14c-2.51,2-6.92,5.71-12.21,9.34s-11.41,7.14-16.93,8.84a34.19,34.19,0,0,1,5-5.61c1.92-1.8,4-3.45,6.2-5.15,1.08-.83,2.17-1.65,3.24-2.44l3.13-2.44q1.53-1.2,2.91-2.34c.92-.8,1.77-1.59,2.54-2.36-1.41.4-3.29,1-5.38,1.66s-4.34,1.53-6.52,2.38c-1.08.45-2.14.92-3.14,1.43a29.7,29.7,0,0,0-2.77,1.52,8.85,8.85,0,0,0-3.51,3.56c2.22-1.38,4.7-4.18,7.3-3.26A29.73,29.73,0,0,1,883.89,437a42.87,42.87,0,0,1-7.62,3.23,48.18,48.18,0,0,1-8.83,1.61c0-4.63-2-7-5.11-8.18a22.93,22.93,0,0,0-5.53-1.15c-2.06-.2-4.32-.23-6.66-.23-9.35-.06-20.2,0-24.62-7.2-10.73,3.47-21.64,2.26-32.82.23l-17.23-3.52a140.81,140.81,0,0,0-18.54-2.48c7.79,15.14-7.58-.34-7.5,14.41-6.18.3-8.49-.2-8.93-1.21L723,421.76c-3.9-4.74,6.17-2.57,6-5.9-13.22-2.62-4.89-6.81-13.35-11.69,1.22,5.43-5.47,6.94-13,4.1l10.08,7.93c-19.68,5.67-14.95-14.08-35.06-8.36l6.57-4c-5.07.83-14.32-.07-23.63.27A62.93,62.93,0,0,0,647,406a22.12,22.12,0,0,0-10.43,5.78c-1.65-1.79-3.77-5.94.7-6.74a66.2,66.2,0,0,0-9.21-.52c-3.14.07-6.33.31-9.56.66-6.44.66-13,1.89-19.28,2.93-12.66,2.1-24.5,3.74-33.7.09l1.81-3.57c-4.45,1-7.71,6.69-13.25,3.13.27-1.48,1.76-3.59-.29-3.79-2.35,1.26-11.7,6.34-17.56,4.38l4.94-4.12a43.17,43.17,0,0,0-15.6-.15,60.61,60.61,0,0,0-13.1,4.2c-4.14,1.77-8.14,3.82-12.3,5.59A58.37,58.37,0,0,1,487,417.91c-.18-5.28-4.81-8.6-10.54-10.76s-12.55-3.13-17.1-3.78l.24-1.51c-26.79,0-44.71,11.07-69.05,16.59a23.81,23.81,0,0,0-7.64-3c-.74-.17-1.56-.3-2.37-.42l-1.24-.17a7.66,7.66,0,0,0-.78-.05l-.87,0a65.72,65.72,0,0,0-7.34.22,58.93,58.93,0,0,0-31,11.92,60.62,60.62,0,0,0-6.64,6.11,56.33,56.33,0,0,0-5.61,7.21,63,63,0,0,0-7.66,16.62,80.87,80.87,0,0,0-3.15,17.85c-.14,1.49-.18,3-.23,4.46s-.1,3-.09,4.42l0,4.37c0,1.33.15,3.23.19,4.54l.05-.26,0-.33c0-.21.07-.41.11-.6a3.94,3.94,0,0,1,.34-.94,1.71,1.71,0,0,1,1.06-.92c.86-.23,1.95.27,3.11,1.18.29.2.6.53.87.71s.55.39.82.61a14.25,14.25,0,0,1,1.6,1.43,13.76,13.76,0,0,1,2.48,3.49,11.37,11.37,0,0,0,1.66,5.74c.51.94,1.1,1.85,1.67,2.73l.42.66.42.58.79,1.12c2,2.92,2.74,5.27-2,6.44L329,512a11.26,11.26,0,0,0-3.15,6.4,14,14,0,0,0-.07,3.61,24.4,24.4,0,0,0,.75,3.73,62,62,0,0,0,2.83,7.66c1.13,2.53,2.41,5,3.4,7.36L345,537a27.67,27.67,0,0,0-.54,5.84,34.69,34.69,0,0,0,.58,5.74,45.44,45.44,0,0,0,1.41,5.66,51.42,51.42,0,0,0,2.27,5.45c.85,1.79,1.8,3.56,2.81,5.3s2.17,3.38,3.32,5a117.92,117.92,0,0,0,7.37,9.45c5,6,10.15,11.38,13.62,16.63s5.49,10.27,4.53,15.55a45.23,45.23,0,0,1,8.8,5.83A40.27,40.27,0,0,0,398,623l-5.34,4.22a197.58,197.58,0,0,0,13.53,17.39c1.16,1.29,2.34,2.6,3.61,3.92s2.64,2.63,4.1,4,3,2.83,4.72,4.36,3.57,3.06,5.59,4.74l-6.46.5c4.12,4.29,10.2,3.4,16.24,2.17s12-2.58,16,.79l-4.44,9.67c7.55,6.75,13.78,15,20.79,22.38s14.81,13.67,25.33,16.27c-1.18,1-3.49,2.86-6.25,1.14,3.55,3.07,9.52,10.11,15.36,14.7s11.53,6.77,14.54.28c-5.44,7.27,15.36,13.3,26.1,16.71L536,750.43c12.28-1.16,14-2.82,25.15,3.08,1.74,2.52-1.34,5.79-3.32,2,5.41,8.86,9.94-.18,16.88,10.07l-6.11.53c7.43,6.74,8.28,4.44,15.7,4.14,6.61,1.94,13.51,13.55,10.64,19.05,3.37-2,10.73-2.14,13.83,3.07-1,2.21-3.47,1.85-4.71,1.66,4.47,7.11,10,9.8,15,12.42s9.31,5.13,10.44,11.42c-1.52,1.63-1.87,2.88-1.81,4-8-9.44-15.16-16.75-14.1-16.44-2.17,2.2-1.61,5.25-2.08,7.81s-1.83,4.54-7.55,4.82c4.37,1.1,10.71,2.32,16.45,4.61s10.86,5.62,12.55,10.25a6.86,6.86,0,0,1-1,2.27l-1.13-.34a7.46,7.46,0,0,0,4.25,4.09c.88,3,1.24,4.9,2.66,7.24a3.61,3.61,0,0,0-1.07,3.17,6.87,6.87,0,0,0,.49,1.82,13.26,13.26,0,0,0,.87,1.9c1.41,2.55,3.35,5.2,4.15,7.15a8.64,8.64,0,0,1,6.26-.91c1.43.12,2.57-.2,3.87-4-.13.88-1.1-.45-2.76-3.06-.51-.52-1-1.2-1.55-1.42h.67c-1.61-2.61-3.78-6-6.42-9.83a15.91,15.91,0,0,1,6.56,2.94,7.34,7.34,0,0,1,2.25,6.87c2.51,0,5,.22,7.29.47a46,46,0,0,1,5.51.86c-2.76,5.15-4.38,11-6.18,15.7-.46,1.18-.91,2.3-1.37,3.32a29.1,29.1,0,0,1-1.53,2.81,9.19,9.19,0,0,1-3.56,3.56,36.6,36.6,0,0,1,3.6,9.13c.92,3.27,1.43,6.66,2.11,10,.27,1.69.66,3.38,1,5.06.17.85.4,1.69.63,2.53s.42,1.65.68,2.48.6,1.66.89,2.47.65,1.62,1,2.43.85,1.62,1.33,2.42a23.17,23.17,0,0,0,1.54,2.36,3.06,3.06,0,0,1-.71,2.38,3.75,3.75,0,0,1-2,.93c-1.58.28-3.45.07-4.63.35a15.51,15.51,0,0,1,.1-3.57,4.34,4.34,0,0,0-.76-3,15.2,15.2,0,0,1,0,3.22c-.16,1.13-.4,2.32-.66,3.55l-1.07,3.7c-.38,1.25-.84,2.47-1.19,3.71-1.54,4.88-2.65,9.52.36,12.93-4.8,3.2-5.48.68-6-.89-.26-.8-.47-1.39-1-1s-1.55,1.66-3.46,4.66l-.94-3.18a35,35,0,0,0-15,12.18c-3.63,5-6.49,11-9.89,16.89-6.75,11.81-15.82,23.58-35.44,25,2.65-.32,3.93-.53,5.14.47a160.72,160.72,0,0,0-27.34,13.72,179.41,179.41,0,0,0-26.79,19.6,110.4,110.4,0,0,0-12.43,13.14,93.18,93.18,0,0,0-5.46,7.59c-.83,1.33-1.62,2.69-2.43,4s-1.48,2.75-2.23,4.13c-5.67,11.14-9.24,22.8-12.64,34.54a25.29,25.29,0,0,0-.6,4.51,15.08,15.08,0,0,0,.17,3.58,12.12,12.12,0,0,0,2,5.15c1.87,2.82,4.62,4.8,7.29,8.18-2.25,1.24-4.48,2.52-6.72,3.85a130.16,130.16,0,0,0,10.91,10.88,18.24,18.24,0,0,1,2.64,5.94,24.36,24.36,0,0,1,.86,6.16c0,1.05,0,2.13-.06,3.22s-.08,2.17-.15,3.28c-.15,2.25-.31,4.51-.47,6.82-.07,4.57,0,9.42,1.68,14a22.11,22.11,0,0,0,3.6,6.68,26.83,26.83,0,0,0,2.82,3.08,22.93,22.93,0,0,0,3.61,2.82c.89-1.66,1.82-3.3,2.8-5a38.12,38.12,0,0,0,3.7,6.38c1.48,2.33,3.3,4.61,4.77,6.75.75,1.07,1.42,2.1,2,3a13.8,13.8,0,0,1,1.33,2.57c.55,1.53.39,2.7-.94,3.25a21.36,21.36,0,0,1,3.26.14,2.71,2.71,0,0,1,2.26,3l-2.85,2.52c3,2,5.81,4,8.86,5.72l4.48,2.67c1.47.89,3.05,1.67,4.55,2.49,2.12,3.22,2.43,5.41,2,7.08s-1.81,2.94-2.93,4.29a5.69,5.69,0,0,0-1.63,5,11.08,11.08,0,0,0,1.78,3.93,32.83,32.83,0,0,0,4.82,5.3,23.08,23.08,0,0,0,3.34,1.69c1.27.5,2.65.95,4.07,1.35a42.24,42.24,0,0,0,8.62,1.57c5.52.41,9.7-.33,9.14-2.28-2.64-2.14-5.59-6.94-3.46-10.1l7.12,2.71c3.74-4.19,8.29-7.9,10.72-12.59a16.52,16.52,0,0,0,1.91-7.83c0-2.94-.89-6.1-2.57-10l-3.12-.3-1.59-.16-1.55-.23-6.32-1c.32-2.1.75-4.26,1.16-6.35,2.17,2,4.56,3.79,6.83,5.68-.23-3.6-1.63-5-3.61-5.58s-4.45-.43-6.85-.58a12,12,0,0,0,1.31-3.81,7.92,7.92,0,0,0-.17-3.54c-2.43,0-5,0-7.44-.11s-5-.31-7.52-.52c1.24-1.9,3.69-2.39,5.45-3.31s2.8-2.19,1.57-5.58c-3.4-.3-4.62,2.11-5.86,4.15s-2.54,3.65-6.46,1.33a19.06,19.06,0,0,1,1-4.43,26.89,26.89,0,0,0,1-2.85c.3-1.51-.37-2.36-3.94-3.58,1.86-2.33,4.13-2.33,6.52-1.19a12.33,12.33,0,0,1-4-2.6c-1.21-1.12-2.35-2.38-3.51-3.54a21.24,21.24,0,0,0-3.56-3,7.11,7.11,0,0,0-4.33-1.05,8.79,8.79,0,0,0-.24-5.75c-.66-1.86-1.72-3.65-2.44-5.42a8.91,8.91,0,0,1-1.08-4.8c.28-1.45,1.4-2.68,3.86-3.63a21.61,21.61,0,0,1-7-3.39,30.32,30.32,0,0,1-3.74-3.2,11.68,11.68,0,0,1-2.51-3.5,8.35,8.35,0,0,0,4.07.51,1.92,1.92,0,0,0,1.58-1.43c.46-1.47-.16-3.83-.83-6.39s-1.11-5.38-.69-7.55,2-3.63,5.46-3.85c-6.2-1.6-8.53-6.92-9.62-12.62-.52-2.84-.81-5.8-1.15-8.55a26.41,26.41,0,0,0-2.1-7.94c.81.67,2.51,1.92,1.82,2.62a8.21,8.21,0,0,1,3.68-4.71c.77-.45,1.54-.81,2.29-1.18s1.54-.65,2.22-1.06a13.9,13.9,0,0,1-5.06-3.24,12,12,0,0,1-2.64-4.37c-1.2-3.23-1.33-6.79-2.16-10.45a8.36,8.36,0,0,1,5.81,1.83,10.84,10.84,0,0,1,2.52,3.74,19.82,19.82,0,0,0,2.36,4,13.37,13.37,0,0,0,4.38,3.32,7.21,7.21,0,0,1-3-3.45,9.3,9.3,0,0,1-.5-4.07c.11-2.79.86-5.63-2.2-7.12,3.84.22,5.13.06,6.34.25s2.42.83,5.87,3.08c-3.27-4.89-2.57-6.11-1-7.11s3.77-1.8,4-6.25a12.48,12.48,0,0,1,8.89,3,1.89,1.89,0,0,0,2.16.28c.89-.45,1.95-1.49,4-3.73,3.23.17,3.22,2.44,2.4,4.66a22.91,22.91,0,0,1-1.47,3C580.67,1057.58,580.31,1058.1,580.31,1058.1ZM664,805.27l.11-.09c1.68,1.91,3.12,3.54,4,4.61C667.27,808.81,666.09,807.5,664,805.27Zm-16.1-18.37c.93,1.15,2,2.42,3.17,3.76l3.75,4.19c-1.18,2.17-3.6,3.07-5.1,1.19C651.74,796,649,790.86,647.88,786.9Zm-8.64,65a4,4,0,0,1-1.6-2.68,2.84,2.84,0,0,1,.84-2c.42.57.9,1.18,1.47,1.85s1.17,1.41,1.92,2.23c.26,0,.6,0,.89-.11A11.53,11.53,0,0,1,639.24,851.85Z"/>
          <path class="cls-2" d="M649.6,852.3c.34.33.73.41,1,.91a11.55,11.55,0,0,0,.48-2.35c-.82,0-1.62,0-2.39,0C649,851.36,649.31,851.86,649.6,852.3Z"/>
          <path class="cls-2" d="M412.21,39.75l.49,0a2.89,2.89,0,0,1-1.19-.68C411.89,39.33,412,39.54,412.21,39.75Z"/>
          <path class="cls-2" d="M425.44,570.62l-1.33,1.07c.76.19,1.52.36,2.3.53C426.07,571.69,425.75,571.16,425.44,570.62Z"/>
          <path class="cls-2" d="M287.37,64.2a3.47,3.47,0,0,0-2.26-.8A4.43,4.43,0,0,0,287.37,64.2Z"/>
          <path class="cls-2" d="M238.14,87.7l-7.94,1.44A41.84,41.84,0,0,0,238.14,87.7Z"/>
          <path class="cls-2" d="M199.58,104.43a10.77,10.77,0,0,0,.65,2.93.34.34,0,0,1,.1,0Z"/>
          <path class="cls-2" d="M852.16,55a6.61,6.61,0,0,0,1.67.27C857.94,55.31,855.27,54.91,852.16,55Z"/>
          <path class="cls-2" d="M653.65,23.51a36.51,36.51,0,0,1,6.8-2.12C657,20.31,654.35,19.73,653.65,23.51Z"/>
          <path class="cls-2" d="M1053.19,178.86s0,0-.11,0c.33.45.58.87.88,1.33Z"/>
          <path class="cls-2" d="M669.55,23a12.9,12.9,0,0,0-9.1-1.61C663.24,22.3,666.5,23.54,669.55,23Z"/>
          <path class="cls-2" d="M40.78,193l-1.86.84a1.87,1.87,0,0,1,.36,1.05Z"/>
          <path class="cls-2" d="M39.28,194.84,37.8,196.7C38.67,196.15,39.41,195.64,39.28,194.84Z"/>
          <path class="cls-2" d="M34.69,200.63l3.11-3.93C36.4,197.55,34.58,198.43,34.69,200.63Z"/>
          <path class="cls-2" d="M89.86,166.8l-.7-2.43A4.86,4.86,0,0,0,89.86,166.8Z"/>
          <path class="cls-2" d="M104,157.6c-3.75,1.56-11.37.62-15.41,4.83l.55,1.94C89.57,159.87,102.82,163.08,104,157.6Z"/>
          <path class="cls-2" d="M179.85,149l-13.17,5.15c3.42,1.07,7.93,2.55,2.7,6.21C188.54,158.53,163.34,157.07,179.85,149Z"/>
          <path class="cls-2" d="M219.71,131.49c-6,4.63,1.87,3.29,2.22,4.77C225,131.92,225.73,130.84,219.71,131.49Z"/>
          <path class="cls-2" d="M507,34.31l-.76,6.13C511.87,39.59,506.36,38.06,507,34.31Z"/>
          <polygon class="cls-2" points="568.79 6.02 563.4 1.66 560.15 7.01 568.79 6.02"/>
          <polygon class="cls-2" points="598.94 53.54 596.36 54.09 606.11 53.14 598.94 53.54"/>
          <path class="cls-2" d="M1025,259.25q3.51-1.59,7-3.27c-1-1.55-3.76-1.89-5.65-1.26a3.05,3.05,0,0,0-2,1.61A3,3,0,0,0,1025,259.25Z"/>
          <path class="cls-2" d="M934,415.26c-3.62-2.6-9.8-2.74-12,1.93a43.72,43.72,0,0,1,7-.68C931.18,416.37,933.06,416.19,934,415.26Z"/>
          <polygon class="cls-2" points="341.87 552.37 337.31 548.96 343.53 556.56 341.87 552.37"/>
        </g>
      </g>
    </g>
  </g>
</svg>
