<svg xmlns="http://www.w3.org/2000/svg" xmlns:xlink="http://www.w3.org/1999/xlink" viewBox="0 0 1061.2 1247.96">
  <defs>
    <style>
      .cls-1 {
        opacity: 0.3;
        filter: url(#AI_GaussianBlur_7);
      }

      .cls-2 {
        fill: #afd2d2;
      }
    </style>
    <filter id="AI_GaussianBlur_7" name="AI_GaussianBlur_7">
      <feGaussianBlur stdDeviation="7"/>
    </filter>
  </defs>
  <g id="Layer_2" data-name="Layer 2">
    <g id="Layer_7" data-name="Layer 7">
      <g class="cls-1">
        <g>
          <path class="cls-2" d="M438.31,1294.37a2.17,2.17,0,0,0-3.05-.28,3.09,3.09,0,0,0-1,1.66,6.08,6.08,0,0,0,.11,2.84c2.15.83,4.31,1.53,6.42,2.12-.43-1-.93-2-1.33-3.1Z" transform="translate(-106.12 -124.8)"/>
          <path class="cls-2" d="M439.24,1328A26.35,26.35,0,0,0,444,1330a15.56,15.56,0,0,0,4.8.69c3.05-.16,5.33-1.58,6.18-4.65a15.6,15.6,0,0,1-4.44-.47,15.12,15.12,0,0,1-2.93-1.06,26.88,26.88,0,0,0-3.14-1.17,41.9,41.9,0,0,0-5.17-1.21,11.4,11.4,0,0,1-1.69-3,7.32,7.32,0,0,1-.36-2.79c.13-1.66.93-2.74,2.11-2.84-1-.45-1.45-2.27-2-4.09a8.86,8.86,0,0,0-1.18-2.62,4.77,4.77,0,0,0-2.29-1.86,14.92,14.92,0,0,0,.15,11.47,20.48,20.48,0,0,0,8.66,9.54C442.75,1328.19,440.42,1327.68,439.24,1328Z" transform="translate(-106.12 -124.8)"/>
          <path class="cls-2" d="M518.64,1184.82l-3.5-.9A11.6,11.6,0,0,0,518.64,1184.82Z" transform="translate(-106.12 -124.8)"/>
          <path class="cls-2" d="M604.43,968.12c2.17,1.2,3.36,1.25,3.75.86C606,968.08,604.25,967.39,604.43,968.12Z" transform="translate(-106.12 -124.8)"/>
          <path class="cls-2" d="M566,931.83c.69.88,1.32,1.56,2,2.32C567.48,933,566.83,932,566,931.83Z" transform="translate(-106.12 -124.8)"/>
          <path class="cls-2" d="M518.64,1184.82l2.27.58,2.28.49,4.6,1c.3-1-.88-1.34-2.68-1.52S520.86,1185.2,518.64,1184.82Z" transform="translate(-106.12 -124.8)"/>
          <path class="cls-2" d="M501.6,1349.37a14.15,14.15,0,0,0-4.28.73c1.31.08,2.59.05,3.88.15A7.53,7.53,0,0,1,501.6,1349.37Z" transform="translate(-106.12 -124.8)"/>
          <path class="cls-2" d="M543.19,1161.66c.9.27,1.78.6,2.67.89a16.76,16.76,0,0,0,3-1.52C547,1161.24,545.07,1161.41,543.19,1161.66Z" transform="translate(-106.12 -124.8)"/>
          <path class="cls-2" d="M630.81,1240.76c-.66-2.91-5.77-2.29-8.17-2.53a8.35,8.35,0,0,1,5.09,4.73A5.84,5.84,0,0,0,630.81,1240.76Z" transform="translate(-106.12 -124.8)"/>
          <path class="cls-2" d="M523.63,1371.13l-3.23.82C521.25,1371.7,522.67,1371.44,523.63,1371.13Z" transform="translate(-106.12 -124.8)"/>
          <path class="cls-2" d="M463.51,1146.63a3.78,3.78,0,0,0-.82-1.9A2.6,2.6,0,0,0,463.51,1146.63Z" transform="translate(-106.12 -124.8)"/>
          <path class="cls-2" d="M237.84,315.42c.06-.37-.1-.59-.11-.9C237.11,315.1,236.93,315.48,237.84,315.42Z" transform="translate(-106.12 -124.8)"/>
          <path class="cls-2" d="M110.94,275.07l1.74.35a15.1,15.1,0,0,0,1.37-2.52Z" transform="translate(-106.12 -124.8)"/>
          <path class="cls-2" d="M522.19,858.17a.36.36,0,0,0-.07.1C522.85,858.61,522.66,858.37,522.19,858.17Z" transform="translate(-106.12 -124.8)"/>
          <path class="cls-2" d="M964.27,766.5c-3.29.35-3.92-.38-3.39-1.56s2.25-2.82,3.68-4.5,2.7-3.19,2.43-4.11-2-1.06-6.37-.13c1.19.53-1.42,4-2.74,7-.65,1.49-1,2.76-.15,3.51S960.46,767.54,964.27,766.5Z" transform="translate(-106.12 -124.8)"/>
          <path class="cls-2" d="M503.9,1350.43c1.27.11,2.54.31,3.83.46A15.5,15.5,0,0,0,503.9,1350.43Z" transform="translate(-106.12 -124.8)"/>
          <path class="cls-2" d="M960.62,756.2l0,0c-.59.15-1.2.26-1.8.38C959.55,756.41,960,756.36,960.62,756.2Z" transform="translate(-106.12 -124.8)"/>
          <path class="cls-2" d="M653.94,889.65a7.19,7.19,0,0,0-2-2.62C651.91,887.56,652.33,888.28,653.94,889.65Z" transform="translate(-106.12 -124.8)"/>
          <path class="cls-2" d="M511,833l2,1.7.5.43-.61-.6A15.94,15.94,0,0,0,511,833Z" transform="translate(-106.12 -124.8)"/>
          <path class="cls-2" d="M750.46,887.6c2.72-.18,3.82.23,7.25-1.42a5,5,0,0,0-1.26-.29C755.34,886.89,753.65,887.77,750.46,887.6Z" transform="translate(-106.12 -124.8)"/>
          <path class="cls-2" d="M806.56,799.55c-.07.78,0,1.71,0,2.54.58,1.12,1.16,2.52,1.64,3.74-.19-1.07-.47-2.12-.72-3.19S806.88,800.59,806.56,799.55Z" transform="translate(-106.12 -124.8)"/>
          <path class="cls-2" d="M483,168.7A18.18,18.18,0,0,1,478,166c1.3,1.37-.45,3.59-1,4.64-.26.56-.23.79.6.53S480.05,170,483,168.7Z" transform="translate(-106.12 -124.8)"/>
          <path class="cls-2" d="M501.14,1352.18a3.21,3.21,0,0,1,2.76-1.75c-.93-.06-1.83-.11-2.7-.18C500.83,1351,500.64,1351.63,501.14,1352.18Z" transform="translate(-106.12 -124.8)"/>
          <path class="cls-2" d="M744.6,848c.84-.18,1.74-.29,2.55-.52l2.47-.62,2.38-.75c.8-.24,1.53-.58,2.31-.85C751.68,846,748.22,847,744.6,848Z" transform="translate(-106.12 -124.8)"/>
          <path class="cls-2" d="M1077.39,301c-.79-.72-1.56-1.46-2.38-2.15A4.91,4.91,0,0,0,1077.39,301Z" transform="translate(-106.12 -124.8)"/>
          <path class="cls-2" d="M770.21,827a7.79,7.79,0,0,0,4.4-3,3.32,3.32,0,0,0-1.18-1A26.39,26.39,0,0,1,770.21,827Z" transform="translate(-106.12 -124.8)"/>
          <path class="cls-2" d="M477.92,165.94a0,0,0,0,1,0,0A0,0,0,0,0,477.92,165.94Z" transform="translate(-106.12 -124.8)"/>
          <path class="cls-2" d="M416.44,234.2c5.3-5.17,5.27-7.5,4-9.19s-4-2.71-4.27-5.13c5.32-6.76,7.52-7.26,9.27-6.35s3,3.3,6.18,2.47c3-4.32,4.81-8.91,6.59-13s3.52-7.81,6.34-10.23c1.15.43,2.47-.23,2.16,1.91,2.05-5.47,7.8-10.61,13.72-15.31,3-2.35,6-4.59,8.67-6.91a35.19,35.19,0,0,0,6.83-7.36,3.78,3.78,0,0,1,2,.86,15.07,15.07,0,0,1-5.56-7.44,26.38,26.38,0,0,0,3.57-2.38c1.1-.84,2.1-1.72,3.1-2.33a6.61,6.61,0,0,1,2.83-1.21,3.25,3.25,0,0,1,2.64,1.11,4.37,4.37,0,0,0-3,2c-.47.81-.64,1.71-1.15,2.63l2.44-2,2.54-1.82c1.75,1.05,2.14,1.93,1.83,2.6a5.11,5.11,0,0,1-2.5,1.83c-2.35,1.15-5.32,2.52-4.39,4.67,2.31-1.56,4.74-3.16,7.26-4.75,1.28-.73,2.57-1.51,3.89-2.21s2.66-1.39,4-1.92c5.4-2.31,11.08-3.38,15.43-2.35.39,1.54-.69,2.41-2.27,3A23.43,23.43,0,0,1,506,156c-1,.21-1.94.37-2.85.52-1.81.33-3.31.75-3.64,1.25s.54,1.2,3.26,2.26a67.49,67.49,0,0,0-12.57-.14c.74.42,1.35.8,1.84,1.14a11.82,11.82,0,0,1,1.17.94c.59.55.82.94.82,1.22,0,.58-.91.65-1.83.89s-1.87.45-1.89,1.11.9,1.76,3.41,3.73c1.8-.17,3.35-.45,4.77-.59.7-.09,1.36-.23,2-.32s1.24-.17,1.83-.28c1.16-.27,2.24-.39,3.27-.63.52-.1,1-.25,1.53-.34l1.51-.26c4-.7,8.3-1.24,15.63,1.44a3.69,3.69,0,0,0,2.23-3.76c0-1.3,0-2.61,2.36-3.71.79,0,1.55.06,2.28.15s1.43.21,2.1.34,1.31.27,1.92.42,1.18.38,1.72.58a17.09,17.09,0,0,1,5.27,3,18.68,18.68,0,0,1,5.11,7.55c1.07,2.51,1.93,5,3.79,6.82a10.77,10.77,0,0,0,3.72,2.46,25.45,25.45,0,0,0,6.28,1.64c3.24-.42,6.34-2,9.9-2s7.61,1.46,12.73,7.28c-2.68,1-5.37,2-8,3,7.88,5.56,11.67,5.11,15.21,5a11.93,11.93,0,0,1,5.76,1.13c2.24,1.06,5,3.08,8.88,6.88a11.44,11.44,0,0,1-4.24-.86,49.13,49.13,0,0,1-4.58-2c-2.79-1.4-4.72-2.55-3.68-1.38,4.23,6,6.89,6.51,9.51,6.18s5.24-1.43,9.83,1.32l-1.16,6.42a144.49,144.49,0,0,0,16,7.23c1.41.56,2.85,1.08,4.32,1.59s2.91,1,4.44,1.48,3,.94,4.53,1.37l4.63,1.18a243.66,243.66,0,0,0,37.67,6c-1.6,1.63-6.31,3-.58,5.58,16.39.68,33.35,1.11,49.92.79s32.82-.87,47.48-1.76c3.31-2.42,6.64-4.81,9.86-7.27,2.51-.44,5.12,1.42,2.6,3,11.39-.24-.08-3.39,4.76-6.49,6.1-1.64,8.79,1.28,5.18,3.65a270.65,270.65,0,0,1,35.36-13.29c13.23-3.84,26.81-6.08,36.88-4.58l-3.54,2.07a20.1,20.1,0,0,0,9.1-1.95,37.69,37.69,0,0,0,6.28-4,20.18,20.18,0,0,1,6.23-3.35,14,14,0,0,1,3.9-.55,19.54,19.54,0,0,1,4.81.82L898.34,207q3.07,0,6.17,0l6.17.08h3.1l3.08.11c2,.07,4.11.08,6.16.17,4.07.28,8.17.4,12.16.9l3,.3,1.5.16,1.47.23,5.85.94c15.41,2.86,29.51,8.58,38.84,17,3.6-2.6,10.46,1.5,16.86,5.49,1.61,1,3.16,2,4.69,2.91a33.19,33.19,0,0,0,4.39,2.1c2.75,1.05,5.21,1.05,7.09-.9a60.58,60.58,0,0,1,3.95,4.81c1.07,1.41,1.94,2.63,2.69,3.73,1.47,2.24,2.46,4.06,3.67,5.92.6.94,1.27,1.87,2,3s1.64,2.26,2.73,3.61l3.87,4.68,2.47,2.92c.89,1,1.87,2.14,2.87,3.39a9.31,9.31,0,0,0,3.92,2.47,19.83,19.83,0,0,0,2.27.59c.76.17,1.56.32,2.37.47a38.33,38.33,0,0,1,5.07,1.18,15.1,15.1,0,0,1,5.16,2.78l-3.88,4c4.06,1.38,8,3,12.08,4.61q-.51,4.56-1.14,9c2,1.7,4,3.51,6,5.28-1.68-2.66-2.2-6.82-.66-7.45,4.89,4.12,8.82,10.87,10.84,16.85a34.39,34.39,0,0,1,1.89,7.86c.24,2.1.05,3.58-.52,4a243.85,243.85,0,0,1,18,23.43c-1.15.17-2.45-.76-3.81-2.08s-2.77-3.05-4.33-4.41c3.06,2.78,4.22,4.6,4.6,5.76a2.08,2.08,0,0,1-.76,2.34c-1.13,1.15-2.44,2.11,2.8,7.49.42-2.25,3.44-.36,4.59-.48a29.54,29.54,0,0,0,.8,7.06c.26,1.35.6,2.75,1,4.21l1.28,4.48c.45,1.54,1,3.09,1.49,4.65s1,3.14,1.56,4.69l.84,2.31c.27.76.53,1.52.79,2.28q.81,2.25,1.65,4.35L1112.8,385c2.22,10.32,4.81,21.09,6.5,32.36s2.69,23,1.73,34.67c1.18-4.11,3.31-5.67,5.27-5.28a4,4,0,0,1,2.56,2,8.23,8.23,0,0,1,1.15,4.42q-3.06,1.2-6.1,2.31c1.6,2.42,2.31.67,3.08-.52s1.58-1.81,3.36,3.17c-1.8,9.08-7.37,5.12-8.61,0,.19,3.6.49,7.26.49,10.9-1.83.32-2.32-2.31-4.42-3.27.72,1.2.52,2.87-.09,4.8a21.09,21.09,0,0,1-1.25,3l-1.57,3.22c-2.15,4.38-4.18,8.81-2.1,12.68l-1.83,0c-1.65,5.45-3.22,9.86-4.69,13.7s-2.88,7.08-4.35,10a56.15,56.15,0,0,1-4.78,8,33,33,0,0,1-6.33,6.62,4.15,4.15,0,0,1,.82,2.9,7.07,7.07,0,0,1-1.22,2.66c-.62.9-1.48,1.77-2.26,2.87a18.25,18.25,0,0,0-2.43,3.62,53.25,53.25,0,0,1-9.58,1.56c-3.45.22-7,.3-10.84.23-7.62-.11-16-.58-25.36-.07-6.57,1.46-7.6,2.56-7.61,3.7s.89,2.3-2.1,3.89c-.57-2.28-5.73-3.15-9.63-3.84s-6.46-1.22-1.24-3.2c-6.09.51-11.32,1.15-16.13,1.94a112.88,112.88,0,0,0-13.94,3.17,91.09,91.09,0,0,0-15.34,6.2,75.71,75.71,0,0,0-18.89,13.73l1.59-.47,1.54-.41c1-.25,1.86-.48,2.58-.6,1.43-.24,2.17,0,1.71,1.27a29.81,29.81,0,0,1-4,2.91,27.35,27.35,0,0,1-4.18,2.31c-.33.15-.66.29-1,.41s-.6.27-.89.37a8.43,8.43,0,0,1-1.56.45c-.93.16-1.6,0-1.83-.55l.93-1.63c-.78,1.1-1.58,2.19-2.39,3.26l-.61.81-.57.84-1.13,1.68c-.76,1.12-1.59,2.2-2.31,3.34s-1.46,2.28-2.19,3.44-1.45,2.31-2.13,3.49l-2.1,3.54-1.94,3.64c-.32.61-.67,1.22-1,1.83l-.89,1.87c-.6,1.25-1.21,2.51-1.81,3.77l-1.63,3.85c-.27.64-.56,1.29-.81,1.94l-.72,2-1.45,4-1.23,4-.62,2-.5,2c-.34,1.38-.67,2.75-1,4.12l-.76,4.14-.36,2.08-.26,2.09c-.16,1.4-.31,2.79-.46,4.18s-.16,2.78-.22,4.17-.12,2.78,0,4.16a71.59,71.59,0,0,0,.55,8.19c.17,1.34.33,2.71.56,4s.5,2.52.78,3.75c2.24,9.9,6.48,18.31,12.12,23.95-.41-.43-.79-.88-1.19-1.32a151.85,151.85,0,0,0,20.58,23.08c.49.7.88,1.29,1.2,1.79l.41.68.09.15s0,.05,0,.07l0,.11a.62.62,0,0,1-.21.61,1.65,1.65,0,0,1-.68.22l-.44.06c-.25-.1-.57-.28-.87-.43a8.6,8.6,0,0,0-3.34-1.25c-.78.06-1,.94,0,3.4l.84.67c.06,0,.17.14.19.13h.21a4.39,4.39,0,0,1,.61.07,8.55,8.55,0,0,1,1.21.3,12.51,12.51,0,0,1,2.26,1,16.48,16.48,0,0,1,3.46,2.64,8.32,8.32,0,0,1,.59.62c-.22.22-.45.44-.69.65a13.92,13.92,0,0,1-1.48,1.18c-.5.37-1,.7-1.51,1s-1,.61-1.41.9-.87.58-1.27.89a11.94,11.94,0,0,0-1.14,1,8,8,0,0,0-1,1.26l0,0-.1.09-.22.19-.44.39c-.29.28-.6.53-.91.79-.61.52-1.22,1.06-1.84,1.64-5-1.21-10.19-.55-16,.74s-12.29,3.22-19.24,4.72a88.41,88.41,0,0,1-21.27,2.3c-6.94-.2-13.39-1.62-18.16-4.59l.7,3.35a6.39,6.39,0,0,1-3.55.48,4.85,4.85,0,0,1-2.27-1.32c-.64-.6-1.2-1.3-1.83-2a6.73,6.73,0,0,0-2.25-1.7c0,1.27,1.27,2.3,2.11,3.14s1.23,1.42-.64,1.93a92.78,92.78,0,0,1-16.74-3.75c-1.38-.4-2.72-.92-4.08-1.41s-2.69-1-4-1.6l-2-.84-2-1-4-2a147.2,147.2,0,0,1-29.83-20.82l-3.45-3.06L796,699.32l-3.31-3.25c-.56-.54-1.08-1.14-1.61-1.7l-.4-.43-.21-.22-.4-.4-1.61-1.58c-1.08-1.09-2.15-2.07-3.25-3.25l-3.3-3.47c-.54-.6-1.11-1.14-1.65-1.78l-1.62-1.88-3.28-3.8-6.62-7.69L767,667.93c-.28-.31-.56-.66-.84-1l-.85-1.11L762,661.33l-6.86-9L753.38,650c-.58-.77-1.14-1.45-1.76-2.4L748,642.28l-7.42-10.83L736.78,626l-4-6.19L698.5,567.34c-.92,1.84-1.81,3.72-2.68,5.66a16.49,16.49,0,0,0-1.39,6.86,43.92,43.92,0,0,0,.59,7c.38,2.4.89,4.83,1.42,7.16s1.19,4.27,1.7,6.19c1,3.8,1.7,6.75,1.16,7.74-.28.58-.74.33-1.56-.25-.41-.3-.89-.72-1.45-1.22l-.89-.82-.24-.22-.06-.06s-.05.07-.07.1l-.17.23-.67,1-.11-2.07,0-1,0-.51-.06-.26-.56-2.16c-.39-1.52-.85-3.18-1.36-5a16.72,16.72,0,0,1-.2,1.74l-.07.38-.1.47L691,601q-1.26,5.29-2.51,10.61-2.31,9.4-4.62,18.85a167.54,167.54,0,0,0-3.59,17.89A161.06,161.06,0,0,0,678.67,667a142,142,0,0,0,.92,19.85c.23,1.72.38,3.41.7,5.18l.93,5.27c.4,1.79.81,3.58,1.21,5.37.19.89.43,1.8.69,2.71l.77,2.74a128.33,128.33,0,0,0,8.74,22.21,122.11,122.11,0,0,0,14,21.35c-1.84-1.38-3.1-2-4.48-3a13.18,13.18,0,0,1-2.11-1.91,16,16,0,0,1-2.34-3.37,23.25,23.25,0,0,0,2.17,6c.55,1.13,1.11,2.34,1.83,3.55s1.55,2.46,2.4,3.73l1.31,1.93a21.09,21.09,0,0,0,1.43,1.91c1,1.26,2.08,2.52,3.15,3.76s2.14,2.49,3.3,3.66c.59.6,1.19,1.19,1.79,1.76l.43.4.3.26.6.52a45.16,45.16,0,0,0,9.09,6.1,13.22,13.22,0,0,0,3.33,1.23c.9.17,1.53.11,1.83-.21,2.71,2.56,2.61,3.4,2.06,4.22s-1.49,1.53-.14,3.69c3.46,4.27,9.3,6.49,14.07,8.22,1.18.43,2.37.87,3.4,1.29a22,22,0,0,1,2.83,1.33c1.59.93,2.73,2,2.94,3.49.07.48-.53.48-1.38.28a25.41,25.41,0,0,1-2.59-.85,10.1,10.1,0,0,1,2.39.89,29.6,29.6,0,0,1,2.77,1.56c1,.6,1.86,1.22,2.81,1.85s1.7,1.24,2.53,1.8a12.83,12.83,0,0,0,3.7,2.14c.92.2,1.61-.2,1.81-1.73.81,1.11,1.39,2.1,2.12,3,.54.9,1.29,1.7,1.75,2.45.25.38.63.73.82,1.09a11.55,11.55,0,0,0,.74,1c.27.33.41.69.65,1a8.69,8.69,0,0,1,.62,1,9.37,9.37,0,0,1,1.31,4,6.64,6.64,0,0,1-1.24,4.3,4.21,4.21,0,0,1,1,4.37,15.72,15.72,0,0,1-2.45,4.8,21.1,21.1,0,0,0-2.6,4.31,4.41,4.41,0,0,0,.75,4.45,4.69,4.69,0,0,0-5-1,23.21,23.21,0,0,0-5.82,3.13c-1,.68-2,1.4-3,2.12-.25.2-.5.35-.74.54a8.18,8.18,0,0,1-.79.56c-.59.39-1.17.79-1.73,1.22s-1.14.8-1.69,1.21-1.07.81-1.56,1.21a18.57,18.57,0,0,0-2.67,2.27c.39-.78.16-1.2-.36-1.45a9.35,9.35,0,0,0-2.18-.58c-1.62-.31-3.22-.91-2.27-2.84A82.19,82.19,0,0,0,733,851.36c-2.78,1.19-4.45,2.66-3.53,4.71a29.69,29.69,0,0,0-13-3,120.27,120.27,0,0,0-13,.87c-2.13.2-4.24.35-6.25.36a30.49,30.49,0,0,1-5.78-.5,12.73,12.73,0,0,1-8.91-5.88,349.74,349.74,0,0,1-45.4-3.12,370.22,370.22,0,0,1-42.58-8.29c.87-1.82,3.19-2.2,6.18-1.88a81.61,81.61,0,0,1,10.3,2.32,56.42,56.42,0,0,0,9.94,1.92c2.74.1,4.63-.62,4.89-2.75-13.19-1.84-24-2.45-34.56-4.06-2.64-.41-5.28-.84-7.93-1.38s-5.3-1.24-8-2q-2-.58-4.11-1.26t-4.17-1.56c-2.81-1.13-5.72-2.38-8.7-3.88-2.95-1.88-1.7-2.3.6-2.3s5.71.29,7,.09a133.76,133.76,0,0,1-15.7-5.23l-1-.37-.47-.18c-.18-.08-.27-.1-.56-.24l-3-1.36-5.92-2.73-5.85-2.75c-2-.95-3.81-1.73-6-2.94l-12.47-6.67L509,794l-6.17-3.37c-4.09-2.22-8.14-4.39-12.1-6.45s-7.68-4-11.35-5.77q-1,2.72-2,5.38l-.24.65,0,1.23-.06,2.45L477,793c-.65-.94-.93-5.74-1-10.27-.15,1.88-.41,3.78-.66,5.62s-.51,3.67-.6,5.26c-.2,3.23.09,5.88,1.8,7.35l-.24-7.64c1.5-1.3,2.64.74,3.6,4.2s1.83,8.26,2.69,13,1.79,9.51,2.81,13.18a47.1,47.1,0,0,0,1.41,4.63A8.12,8.12,0,0,0,488,830.8c-2.76-4.09-4.17-4.76-5.07-3.34a9.72,9.72,0,0,0-1,3.27l-.19,1.09-.1,1.17c-.06.8-.12,1.62-.18,2.43s-.14,1.61-.23,2.38S481,839.29,481,840a5,5,0,0,1-1.12,2.94c-.59.54-1.43.54-2.64-.34s-2.77-2.66-4.8-5.89a39.58,39.58,0,0,0,2.68,7.85,9.26,9.26,0,0,0,1.84,2.62,2.12,2.12,0,0,0,1.87.73c.26,3.35.13,5.6-.6,6.1s-2.06-.75-4.21-4.82c.44,1.76.86,3.36,1.26,4.83s1,2.8,1.4,4c.91,2.42,1.72,4.35,2.46,6a58.84,58.84,0,0,0,4.13,6.69l.88,1.28.42.64.4.47a22.33,22.33,0,0,1,1.6,2.29c.55.91,1.11,2,1.77,3.37s1.42,3,2.25,4.94c-1.66.67-3.66-2.27-6.32-3.17,1.68,1.73,3.33,3.44,5,5.21s3.32,3.6,5,5.61A72.62,72.62,0,0,1,499,898c.8,1.24,1.56,2.58,2.34,4s1.59,2.91,2.36,4.53c-1.36-.17-1.68,2-3.9-1.69,6.68,10.51,14.79,17.63,22.95,24.51l6.15,5.21c1,.88,2.05,1.78,3.08,2.69s2.08,1.82,3.11,2.77c2,1.94,4.18,3.87,6.23,6.06s4.18,4.46,6.35,6.92c-5.49.29-4.28,2.24-2.07,4.91s5.47,5.88,3.85,9l6.25,3.78,6.33,3.6c-.89-2-1.74-4.07-2.57-6.09,4.86,3.9,10.34,6.36,15.47,8.76,2.58,1.18,5.12,2.36,7.42,3.68a29.51,29.51,0,0,1,6.28,4.6c-3-.79-6-1.59-9-2.44,6.58,3.72,13.08,7.26,19.44,10.82l-9.18-8.83c12,3.46,3.48-7.88,15.73,2.12-3.06-1.16,9.92,6.44,12.53,13.2,0,0,0,0,0,0a44.54,44.54,0,0,1,8.92,3,24.57,24.57,0,0,1,8.63,7c.13,1.54-1.42,2.65-3,3.65s-3.08,1.9-3,2.88c3.82-.43,9,3.53,13.59,8,2.36,2.22,4.49,4.6,6.62,6.55a17.5,17.5,0,0,0,6.23,4.26c-2.35-1.21-5.4.63-5.66,1.56l1.52.29,1.49.34c1,.23,2,.49,3,.77.42,2.52.51,4,.07,4.86s-1.23,1.19-2.66,1.4a22.35,22.35,0,0,0,1.39,3.36,2.6,2.6,0,0,0,1.23,1.21c.8.26,1.62-.45,2.36-1.09s1.4-1.2,2-.47,1.15,2.77.94,7.14c-.54-1.26-1.15-.53-2.36-3,.07,1,.25,2.06.32,3.08s.19,2,.25,3,.12,2,.19,3,.11,2,.08,3a68.85,68.85,0,0,1-.82,12.09,56.75,56.75,0,0,1-3.22,12.06,45,45,0,0,1-6.14,11.07c-4.2.43-2.64-2.85-1.34-6.06s2.48-6.25-1.19-5c-1,2.59-2.13,5.29-3.34,8-.61,1.33-1.21,2.67-1.8,4s-1.31,2.66-2,4l-1,2c-.33.68-.72,1.32-1.07,2l-2.19,4c-1.63,2.56-3.13,5.27-5,7.75-7,10.19-16.11,19.16-26.54,24.8l4.1-1.79A4.43,4.43,0,0,1,607,1148c-1.7,1.14-4.3,1.77-7.14,2.4-1.46.26-3,.51-4.51.81-.76.15-1.53.32-2.29.5s-1.54.33-2.3.54a22.15,22.15,0,0,0-4.35,1.65,14,14,0,0,0-3.87,2.59c2.46-1.8,1.43-6.34,1.14-5.07-7.56,2.43-14.91,5.64-23.56,8.95a147.16,147.16,0,0,1-31,8.52l3-2.58c-1.19-.22-2.48-.39-3.83-.52s-2.76-.35-4.22-.47c-2.92-.18-6-.59-9.13-.81-3.09-.44-6.23-.69-9.15-1.32-1.47-.29-2.91-.52-4.26-.87s-2.63-.73-3.83-1.12c-1.72,1-4,.89-5.46,1.17s-2.29.9-1,3.08c-8.94-7-17.33-11.17-26-15.12l-6.69,21.91c10.83.46,21.43-.62,31.69-.23s20.25,2.2,28.83,8.21c-3.35-.77-8.43.39-5.76.94a204.72,204.72,0,0,1,23.92,4c-.24-2.3-.83-3.12-1.82-4a34.7,34.7,0,0,1-4.48-4,18.94,18.94,0,0,1,7.7-.93,31.76,31.76,0,0,1,9.35,2,16.52,16.52,0,0,0-3.42-.15,3.38,3.38,0,0,0-1.77.62c-.68.61-.46,1.55.22,2.64,1.34,2.24,4.5,5.05,6.14,7.07-.23-1.48,1.8-2.15,1.94-3.49,2.23,2.91,3.53,4.06,4.66,4.18s2-.7,3-1.53a5.26,5.26,0,0,1,4.07-1.41,8,8,0,0,1,3.21,1.21,24.16,24.16,0,0,1,4.25,3.61l-2,1.39c3.09,1.25,6.33,2.11,9.44,3.41.78.32,1.57.65,2.34,1s1.5.8,2.24,1.24a19.78,19.78,0,0,1,4.17,3.26c-.45,2.81-2.13,2-4.09,1s-4.23-2.3-5.59-.85a19.47,19.47,0,0,0,3.14,1.88c.56.27,1.13.52,1.71.77l1.72.76c1.17.48,2.38.94,3.59,1.4s2.35,1,3.51,1.55a22.42,22.42,0,0,1,6.17,4,11.79,11.79,0,0,1,2.15,2.81,10,10,0,0,1,1.23,3.43c-.87-.67-1.87-1.37-2.81-2.19s-1.85-1.72-2.88-2.51-2-1.64-3-2.39a18.22,18.22,0,0,0-3-1.83c.79,2.66,1.3,4.68,1.85,6.25a20.54,20.54,0,0,0,.82,2.06,15.55,15.55,0,0,0,.78,1.68,22.68,22.68,0,0,0,1.86,2.84c.64,1,1.36,2.12,2.17,3.59l-.28-.6A71.34,71.34,0,0,1,601,1239.3c-.08-1.34-.13-2.71-.25-4.09a17.84,17.84,0,0,1,5.19,2.27c.37.24.74.49,1.07.75s.63.55.92.84a17.62,17.62,0,0,1,1.63,1.83,14,14,0,0,1,1.35,2c.37.71.7,1.43,1,2.18a25,25,0,0,1,1.46,4.68c.8,3.25,1.15,6.69,1.87,10.31.21.91.31,1.83.54,2.77s.48,1.9.73,2.88.53,2,.88,3l1.15,3.21a35.17,35.17,0,0,0-2.21-4.94,11.14,11.14,0,0,0-1.61-2.46c-.91-1-1.4-.83-1.79-.25a7.91,7.91,0,0,0-.57,1.1,8.68,8.68,0,0,1-.77,1.26,2.49,2.49,0,0,1-2.79,1,44.85,44.85,0,0,1-2.75,5.78c-1,1.57-2,2.42-2.62,1.53a8.65,8.65,0,0,1,.76,2.59,8.76,8.76,0,0,1-.2,2.36,18.34,18.34,0,0,1-1.78,4.38c-.18.37-.35.74-.51,1.12s-.37.77-.54,1.17a13.29,13.29,0,0,0-.79,2.59,14.7,14.7,0,0,0-.36,3.12c0,.58,0,1.2.08,1.85s.11,1.34.22,2.08c-.92-.15-1.65,1.59-2.77,2.88s-2.31,2.19-3.91.46c-1.53,4.24-.68,4.19.88,3.22s3.6-2.9,4.42-2.06c-.26,3.94-2.12,7.62-4.72,11.06a61.39,61.39,0,0,1-9.79,9.57c-3.72,3-7.68,5.88-11.46,9.1a74.78,74.78,0,0,0-10.94,11.26c-.86.8-1.69,1.55-2.5,2.23s-1.55,1.39-2.27,2.07c-1.48,1.28-2.81,2.51-4,3.7s-2.44,2.23-3.57,3.32l-3.38,3a51.67,51.67,0,0,1-7.57,5.62,42.11,42.11,0,0,1-11.18,4.66c-3.36-1.1-2.12-2.82-.24-4.24a30.23,30.23,0,0,1,2.94-1.94c.87-.51,1.51-.82,1.51-.82-10-1.11-16.75-.67-26.18.35,2-1.34.23-2.79-2.12-5.16a9.21,9.21,0,0,0-4,.47c-1,.39-1.83,1-2.69,1.4-1.71.82-3.77,1.3-8.06-1.32,2.17-1.43,5-3.81,8.64-5-4.11,0-8.31-.11-12.66-.35a54.8,54.8,0,0,1-13-2.3,1.59,1.59,0,0,1,.87-1.86,7.32,7.32,0,0,1,2.74-.46c1.1,0,2.31,0,3.48,0a18.25,18.25,0,0,0,3.14-.21,131.87,131.87,0,0,1-15.28-5.31c-1.23-.52-2.5-1-3.65-1.39a30.78,30.78,0,0,0-3.33-1.1,9.66,9.66,0,0,0-5.26-.45c1.25,1.79,2.49,3.67,3.91,5.41-3.12-2.07,1.12-4.37,3.67-3.55a23.37,23.37,0,0,1,2.91.83,10,10,0,0,1,2.17,1.12,7.63,7.63,0,0,1,2.69,2.75,7.46,7.46,0,0,1,1.05,4.94l-3.07-1-3-1.2c0,6.15,6.45,9.37,14,10.65,1.92.27,3.85.58,5.85.68l2.95.22,2.93.11a65.17,65.17,0,0,1,10.66,1c-2.17,2.1-4.5,4.28-6.92,6.25a95.88,95.88,0,0,0,14.59-4c1.32,1.14,2.45,2.68,2.41,4.13s-1.31,2.73-4.81,2.92a19.32,19.32,0,0,0,3.19,1.26,12.07,12.07,0,0,0,2.49.39,9.55,9.55,0,0,0,3.57-.51,9.72,9.72,0,0,1,3.28-.54,13.3,13.3,0,0,1,5.06,1.25c1,.55.61,1-.28,1.32,1.65-.49,3.29-1,4.91-1.55s3.2-1.2,4.77-1.79c-1.7,1.83,2.55,5-3.89,4.8a30.81,30.81,0,0,0,6.73,0c1.06-.13,2.09-.3,3.08-.49s1.92-.51,2.83-.8,1.79-.59,2.63-.92,1.63-.74,2.4-1.12a41.18,41.18,0,0,0,4.25-2.36c5.24-3.15,8.65-6.06,13-5l-1.18,1.09,1.92-1.21,1.63-1.16c1-.74,1.86-1.4,2.58-2a17.73,17.73,0,0,0,2.82-3c1.06-1.51.7-2.24.12-3a4.11,4.11,0,0,1-1.31-3,8,8,0,0,1,.82-2.94,20.22,20.22,0,0,1,1.09-2c.45-.77.95-1.67,1.57-2.63,1.45.32,2.94.65,4.42.91s3,.49,4.48.71c3.06.46,6.08.7,9.23.91-.61-1.9-1.27-3.81-2-5.7a30.88,30.88,0,0,1,3.74-2.81c1.29-.8,2.47-1.12,3,0a25.51,25.51,0,0,0,1-2.79,3.94,3.94,0,0,0,.14-1.44c-.1-.59-.53-.53-1-.38s-1.09.4-1.49.2-.59-.82-.4-2.43a19.49,19.49,0,0,0,4.15-2.88,33.28,33.28,0,0,0,3.71-4,71.63,71.63,0,0,0,6-9.46,63.39,63.39,0,0,1,4.95-8.13c1.6-2.11,3.49-3.35,5.75-3.2-1.13-2.9-2.91-.36-4.29,1-.67.72-1.19,1.19-1.38.67a4.05,4.05,0,0,1,0-1.6c.09-.84.28-2,.5-3.65,5,0,6.1-3.87,6.33-8.74.05-1.23.11-2.5.13-3.81s0-2.66.16-4a28.62,28.62,0,0,1,.6-4.06c.16-.68.39-1.35.62-2a14.49,14.49,0,0,1,.82-2c2.34,2,2.34,5.68,2.58,7.5s.7,1.86,3.71-3.84c-3.69-4.13-2.7-9.52-1.82-15.78.3-1.55.44-3.15.67-4.76.1-.8.21-1.61.28-2.42s.07-1.6.09-2.39a21.1,21.1,0,0,0-1.29-8.61c-3.26.59-5.26-4.48-8.32-11.14-.82-1.65-1.61-3.44-2.55-5.25s-2-3.65-3.11-5.46-2.35-3.59-3.7-5.25c-.68-.82-1.36-1.63-2.06-2.42a25.36,25.36,0,0,0-2.16-2.23c.6-.15-.15-1.83-1.77-4.52-.84-1.31-2-2.81-3.22-4.51s-2.82-3.4-4.43-5.29c-.81-.92-1.7-1.81-2.59-2.74s-1.77-1.9-2.74-2.78c-1.91-1.78-3.81-3.67-5.8-5.32l-2.89-2.52-2.84-2.3c-1.82-1.53-3.57-2.87-5.1-4.09l.95-.72c-3,2.07-7.63.94-13-.87s-11.54-4.3-17-5.48a6.16,6.16,0,0,1,3.53-3.5c1.63-.55,3.85-.62,7.1-.29-3.38-1.32-6.76-2.6-10.18-3.73a11.91,11.91,0,0,1-2.43.66,16.59,16.59,0,0,1-2.86.26,31.45,31.45,0,0,1-3.54-.22c-1.33-.12-2.82-.32-4.51-.59q1.92-2,3.9-4c-6.94-1.84-14.23-2.06-21.79-2.49s-15.44-1.1-24-3.86c-.78,2.23,2.27,5.87,3.12,9s-.44,5.79-9.6,6.21c-.36-2.56-.55-6.87,4.35-7.3-1.61.13-5.81,1.36-8.82,0q3.85-1.7,7.77-3.31c-7.67-2.79-4.53,3-10.75,1.89.51-3.52-4.37-3-3.18-5.73,1.65-.17,5.33,2,7.91.94-7-1.45-15.41-4.38-17.95-7.34.32,1.6-.14,3.57-2.84,4.35l-50.6,14.64,45.07,3.47a10.2,10.2,0,0,1,3,.8,40.86,40.86,0,0,1,3.83,2,14.17,14.17,0,0,1,2.19,1.49,2.66,2.66,0,0,1,1.1,2.32c-.06,1.4-1,2.81,2.7,5.3,2.16-.54,5.17.69,8,1.26s5.31.59,6.16-1.93a9.74,9.74,0,0,1,2.37,1.12,5.41,5.41,0,0,1,1.38,1.41c.7,1,1.05,2.11,1.69,3a67,67,0,0,1,8.66.68c1.75.26,3.61.36,5.44.54s3.65.36,5.35.35c6.82.2,11.53-.7,7.58-3.71-.61-.16-1.22-.31-1.83-.51.36-.07.76,0,1.2-.13h0a168.45,168.45,0,0,1,18-1.53q9.06-.25,18.27-.7c12.22-.75,24.74-2.59,35.4-7.9l.6,1.67c6.26-3.55,13.33-7,19.5-11.06s11.56-8.35,14.44-12.84a14.1,14.1,0,0,1,6.09-2.18c2-.21,3.61.21,3.57,1.6,1-1,1.8-1.88,2.56-2.72s1.36-1.66,2-2.41c1.2-1.51,2.28-2.79,3.5-4.14a36.65,36.65,0,0,1,4.51-4.36c1-.8,2-1.73,3.22-2.72l2-1.57c.72-.54,1.46-1.13,2.23-1.78-.58,1.33-1,2.25-1.27,3a4.2,4.2,0,0,0-.33,1.42c0,.57.43.46.67.38s.32-.15-.35.49c-.33.32-.84.83-1.62,1.58l-1.36,1.35-1.87,1.71,2.07-1.6,1.84-1.52,3.32-2.66a59.38,59.38,0,0,0,5.36-4.94c3.13-3.44,5.69-7.69,7.87-15.56.24,1.72,1,2.21,2.14,1.85s2.45-1.66,3.87-3.38a34.46,34.46,0,0,0,6.44-12.41c-2.46,2.79-5,5.4-7.59,7.87,3.16-7.15,6.35-13.28,9-20,1.49,1.87,2.92,3.79,4.32,5.78a44.75,44.75,0,0,0,7-23.55,53,53,0,0,0-1.21-12.13,55.29,55.29,0,0,0-1.49-5.66l-.87-2.72q-.51-1.34-1-2.64c-2.76-7-6.23-13-9.28-18.79a73.53,73.53,0,0,1-7.23-18.16c-2.18-1-2.69-.5-2.4.7a11.22,11.22,0,0,0,.92,2.27c.43.9.94,1.91,1.45,2.92a20.49,20.49,0,0,1,2.07,5.52c.12,1.4-.49,2-2.52,1.11-3.59-6.13-6.48-13.08-9.14-19S653.63,993,652,991.53a22.21,22.21,0,0,0-16.16-9c-4.92-.67-9.89-1.18-17-7.19.82,3.12-.51,9-13,3.37-10.26-7.42-8.3-15.83-.69-13.06,2.66,1.46,3.54,2.82,3,3.36,3.87,1.53,9,3.7,5.92-1l-2.54.91c-2.09-2.62-6.84-6.18-10.32-9.16a22.1,22.1,0,0,1-3.85-3.87c-.64-1-.52-1.72.74-1.94-4.21-1.56-5.51-1.37-5.11-.2a8.5,8.5,0,0,0,1.69,2.39c.45.49.94,1,1.5,1.55s1.22,1.12,1.87,1.71c-.72-.7-1.46-1.36-2.15-2s-1.33-1.21-2-1.77c-1.31-1.12-2.59-2.13-3.83-3.13s-2.48-1.87-3.7-2.77S584,948,582.79,947.1c-4.8-3.49-9.7-7.05-14.82-13,1,2.52,1.2,5.89-.68,4.27-2-2.13-3.53-3.84-4.89-5.13a30,30,0,0,0-3.31-3,7,7,0,0,0-4.07-1.71c-2.16-.11-4.06.82-9.84-4.66-1.81-4.45.2-5.12,1.05-6s.53-1.74-5.48-6.84c-2.11-4.4-1.28-5.63.5-5.59s4.47,1.38,6.32,2.21c-6-3.95-9.27-9.6-11.32-14.92-.5-1.34-.93-2.66-1.33-3.93s-.69-2.53-1-3.7A52.83,52.83,0,0,0,532,879l2.42,2.55c.81.85,1.68,1.66,2.51,2.49-.75-.74-1.43-1.48-2-2.21s-1.1-1.49-1.59-2.23-.93-1.48-1.36-2.22l-1.17-2.25c-.66,1.8-1.35,3.64-1.92,5.48-1.31-4-2.83-7-1.17-7.74-2.13-1.26-3.41.2-5,1.29s-3.53,1.81-7.11-1.41a14.59,14.59,0,0,0-1.42-5c-.35-.89-.75-1.8-1.15-2.7l-.61-1.36c-.19-.42-.44-1-.51-1.19a6.35,6.35,0,0,1-.63-3.08c.19-.87.82-1.5,2.23-1.76a7.14,7.14,0,0,0,.42,2.43,1.79,1.79,0,0,0,.77,1.06c.57.29,1.27-.14,2.07-.57a6.3,6.3,0,0,1,2.52-.91,3.1,3.1,0,0,1,.61,0l.29.07.14,0a1.69,1.69,0,0,1,.21.23,15.62,15.62,0,0,1,2,3.42,17.59,17.59,0,0,1-1.11-1.88c-.17-.34-.33-.69-.49-1.06l-.24-.55-.09-.25,0-.09a2.48,2.48,0,0,1,.08-1.63,2.33,2.33,0,0,1,1.62.15c.5-.54.86-.7,1-.88s.07-.28-.15-.42c-.44-.27-1.53-.62-2.81-1.14a15,15,0,0,1-4-2.27,7.2,7.2,0,0,1-1.57-1.89,5.35,5.35,0,0,1-.77-2.45,15.36,15.36,0,0,0,4.87,2.77c1.18.43,1.85.56,1.42-.07,0,.63-1.6-.27-3.56-2a24.17,24.17,0,0,1-3.08-3.28,23,23,0,0,1-2.73-4.32,2.87,2.87,0,0,0,.78-1.06,2.83,2.83,0,0,0,.24-1.24,12.68,12.68,0,0,0-.69-3.16c-.36-1.17-.82-2.42-1.13-3.57l-.11-.42a1.94,1.94,0,0,1-.05-.2l.05,0a.36.36,0,0,1,.24,0,2.24,2.24,0,0,1,.89.4l-1.15-1-.59-.49-.3-.24s-.11-.11-.13-.1l-.06.06c-.3.32-.6.66-.91,1a24.75,24.75,0,0,1-1.55-3.25c-.19-.5-.36-1-.5-1.49l-.19-.72-.09-.36,0-.18c0-.06,0,0,0,0,.48-.21,1.53.15,2.82.64,1,.35,2.09.8,3.31,1.18,2.24,3.91-2.89.22-.29,2.83-.05-1.52,1.22-1.15,2.89-.06a38.92,38.92,0,0,1,5.52,4.92c1.85,1.9,3.53,3.67,5,4.9A8,8,0,0,0,526.9,842l.54.18a4.83,4.83,0,0,0,.66.14,6,6,0,0,0,1.41.05c1.51,1.89,1.13,3.37.83,4.79s-.61,2.74.13,3.88a6.25,6.25,0,0,1,1.17-.15h.28a1.28,1.28,0,0,1,.4.07l1.17.34a24.3,24.3,0,0,1,4,1.59,34,34,0,0,1,5.84,3.95,35.69,35.69,0,0,0,6,4,31.47,31.47,0,0,0,9.6,3c-1.48-2.82-2.45-4.14-1.57-4.63s3.7-.27,9.82-.23l-6.57-1.64c-2.19-.55-4.35-1.18-6.53-1.77l-6.54-1.81c-2.19-.6-4.33-1.3-6.51-1.95,6.11.44,12.27.56,18.32.77a80.67,80.67,0,0,0-11.74-3.39c-3.77-1-7.15-1.88-9.23-3.17,8.92,0,7.68.65,5.57-4.14a15.24,15.24,0,0,0,6.72,5.24,38.68,38.68,0,0,0,8.17,2.08c2.84.52,5.77.9,8.63,1.7a22.36,22.36,0,0,1,8.25,4.14L571.76,865a46.56,46.56,0,0,0,12.86,5.67,117.93,117.93,0,0,0,13.62,2.4c4.73.51,9.62,1,14.79,2,2.61.41,5.28.94,8,1.65,1.38.35,2.78.74,4.21,1.19s2.89.88,4.38,1.4L626,877.4l-3.67-1.91a6,6,0,0,1,4.28-.85,32.27,32.27,0,0,1,5.91,1.18c2.14.59,4.41,1.28,6.66,1.84a28.71,28.71,0,0,0,6.56.88c-1.47,3.33,3.23,5.62,6.23,8.49.05-1.32,4.57-.45,9.52-.06s10.34.13,12-3.19c3.43,2.09,6.88,4.25,10.39,6.23a35,35,0,0,0,12.51.78,33.1,33.1,0,0,0,5-1c1.57-.43,3.08-1,4.57-1.5l4.52-1.62c1.54-.52,3.12-1,4.83-1.4a45.85,45.85,0,0,1,12.3-1.08c-3,2-2.19,3.56-2.31,5s-1.23,2.89-8.22,4.12c6.89.26,13.38.58,13.36-1.9,1,.5,2.79.41,4.92-.09a63.73,63.73,0,0,0,7.15-2.18c5.11-1.81,10.29-3.87,14-3.22,1.28-1.14,1.88-2.75,3.09-4.29a11.24,11.24,0,0,1,2.43-2.28,18.1,18.1,0,0,1,4.3-2.2c1.09.29.67,1.62.67,1.62-.32-.83,2.29-2.65,3.92-4.46.83-.93,1.39-1.8,1.23-2.46s-1-1-3-1.13c6,0,12.46-2.8,18-7.46a51.7,51.7,0,0,0,13.51-18.29,68,68,0,0,0,5.71-22.28c.32-3.69.39-7.29.35-10.73s-.19-6.73-.17-9.84a59.46,59.46,0,0,0-7.67-11.79,78.06,78.06,0,0,0-9.73-9.41,194.93,194.93,0,0,0-18.77-12.75c1.27-.43,1-1.48,2.83.19-6.52-6.27-9.92-5.4-13.7-5a12.55,12.55,0,0,1-6.1-.37c-2.27-.78-4.88-2.56-7.81-6.29-.8-2.68-.57-3.7.11-3.89s1.81.51,3,1.29,2.37,1.7,3.07,2.1.94.26.19-1.06c2.74-5.36-1.33-8-6.34-11.93l-.47-.37-.24-.19-.15-.09-.58-.33a13.27,13.27,0,0,1-1.24-.82,12.23,12.23,0,0,1-2.28-2c-1.32-1.51-2-3.39-.81-4.79.53.37,1,.71,1.55,1,.52-1.06.28-1.89-.59-2.91a18.25,18.25,0,0,0-1.71-1.71l-2.36-2.18a44.33,44.33,0,0,1-5.38-6,16.37,16.37,0,0,1-3.21-6.7s.47.38,1.08.81a10.65,10.65,0,0,0,2,1.15A55.19,55.19,0,0,1,723.35,708a70,70,0,0,1-5.86-12.37,100.75,100.75,0,0,1-5.43-26.86c3.92,8.19,5,10.91,6,13.06s2.24,3.49,6.61,8.63c-.4-2.85-3.83-7.64-7.36-13.13a58.42,58.42,0,0,1-4.9-9,33.66,33.66,0,0,1-1.69-5.2,26.78,26.78,0,0,1-.62-5.74c2.62,1.78,5.38,2.49,8.59,5.07a28,28,0,0,1,5.11,5.54c.46.62.91,1.29,1.38,2l.7,1.12a6.26,6.26,0,0,1,.37.7l.39.78c1.44,3,2.51,5.22,3.11,6.46l-.23-.31-.06-.08,0,0s0,0,0,0l-.06.24-.22,1c-.14.65-.31,1.28-.43,1.93-.25,1.29-.49,2.58-.66,3.87,3,4.08,4.58,5.8,5.35,5.92s.71-1.37.42-3.55c-.16-1.15-.93-3.66.9-.44l3.73,8.55c.66.74.88.57.92,0a17.37,17.37,0,0,0-.18-2.61c-.24-2-.32-4.15,1.22-3.22.83.43,2.28,1.86,4.35,4.59q-1-2.71-2.19-5.56c.35-1.86,1.3-1.68,2.16-.71a20.77,20.77,0,0,1,2.6,4.59,32.24,32.24,0,0,0,2.51,4.88c.89,1.23,1.77,1.81,3.2,1.58.83,4.24,1.49,8.23,2,12a29.22,29.22,0,0,1,3.25.85,43.49,43.49,0,0,1,5.64,2.17c1.13.52,2.39,1,3.71,1.72.69.35,1.3.65,2.08,1.09l2.66,1.65c3.63,2.08,7,4.25,10.1,6.24a32.88,32.88,0,0,1-8.13-2.12c-1.47-.55-3-1.17-4.55-1.86l-2.27-1.12a4.19,4.19,0,0,0-.91-.37l-.77-.26c-1-.35-1.94-.61-2.81-.85s-1.63-.47-2.35-.63a9.65,9.65,0,0,0-3.54-.29,23.15,23.15,0,0,0,2.36,2.18,22.29,22.29,0,0,0,3.28,2.3l1,.58.51.28.92.63c.64.43,1.26.85,1.87,1.23s1.25.71,1.84,1a14.43,14.43,0,0,0,5.77,2c-1.5-.8-3.34-1.54-5-2.45a14.59,14.59,0,0,1-2.37-1.53,8,8,0,0,1-1.72-2c11.38,2.52,23,8.62,36.55,17.31-2.45,2.53-1.53,5.38,1.39,8.52a31.68,31.68,0,0,0,5.83,4.66,70.44,70.44,0,0,0,7.83,4.68l4.35,2.27c1.48.76,2.91,1.57,4.45,2.27l4.5,2.19c1.48.7,2.93,1.41,4.32,2.13,5.59,2.79,10.32,5.64,12.73,9,7.88.8,15.49,1.81,23.19,2.79s15.47,1.93,23.53,2.46a157.5,157.5,0,0,0,25-.19,107.23,107.23,0,0,0,26.42-5.76c-4-1.47-5.29-2.52-5.17-3.3s1.7-1.34,3.58-2a14.7,14.7,0,0,0,5.35-2.85c1.32-1.28,1.73-3,.19-5.32,1.81-1,3.34-1.76,4.64-2.4s2.33-1.22,3.19-1.6c1.72-.78,2.69-1,3.17-.88,2.07-.52,4.2-1,6.27-1.6l.78-.23c.28-.09.65-.23,1-.35l2-.74c1.32-.49,2.61-1.06,3.91-1.65a84,84,0,0,0,7.94-3.86l4-2.22c1.33-.76,2.57-1.62,3.88-2.46,2.24-1,3-1,3-.36s-1,1.91-2.14,3.35l-.88,1.11c-.31.37-.66.73-1,1.09-.66.71-1.28,1.41-1.78,2-1,1.26-1.52,2.24-.82,2.46,1.39-1.09,2.65-2.07,3.81-2.94l1.66-1.24,1.4-1.16c1.79-1.45,3.24-2.53,4.46-3.34.61-.41,1.17-.75,1.67-1a13.31,13.31,0,0,1,1.31-.75,11.44,11.44,0,0,1,2.14-.84,20.06,20.06,0,0,0,4.35-1.41c1.87-.9,4.41-2.57,8.54-6.18-2.89.87-3.3-.53-2.08-3.12a30.34,30.34,0,0,1,3.12-4.86l1.14-1.46.62-.77.32-.38c.1-.13.16-.25.24-.37.64-1,1.35-2,2.13-3-1-1-2-2.08-3-3.21s-2.1-2.33-3.15-3.56c1.49,2.36,2.87,4.62,4.14,6.75-.89.8-1.75,1.59-2.57,2.36l-.61.58c-.11.1-.19.19-.32.3l-.41.31-1.61,1.25-6.31,4.8c1.24-2,2.42-3.85,3.57-5.49.27-.41.6-.81.83-1.19s.2-.71.3-1c.21-.67.42-1.32.64-1.93a53.19,53.19,0,0,1-9.18-10.65c-2-3.12-3.4-6-5.27-9.28a95.61,95.61,0,0,0-7.72-11.37l-2.52-3.22c-.47-.58-1-1.16-1.59-1.76s-1.21-1.22-1.94-1.86-1.52-1.29-2.36-2l1.59.77,1.63.73c1.09.49,2.15,1,3.24,1.43-3.92-3.34-9.21-10.81-13.71-18.17-1.18-1.84-2.22-3.69-3.38-5.46s-2.19-3.5-3.22-5.12a52.84,52.84,0,0,0-3.34-4.46,19.2,19.2,0,0,0-3.62-3.34,5.18,5.18,0,0,1,2.38-2.4c1-.38,1.91,0,2.67,1.73-.61-5.07-1.41-10.49-1.64-16.11a65.63,65.63,0,0,1,1.15-16.77,33.69,33.69,0,0,1,6.26-14c.76-.91,1.59-1.72,2.38-2.53s1.75-1.36,2.61-2a22.2,22.2,0,0,1,2.86-1.48,20.06,20.06,0,0,1,3-.87c0,1,.08,2.06.16,3.06,1.21-1.26,2-3,3.22-4.6a7.62,7.62,0,0,1,2.29-1.83,6.52,6.52,0,0,1,3.49-.34c.1,1.15-.58,3.06,1.13,2.63.42-.36,1.16-1,2.14-1.81a30.1,30.1,0,0,1,3.82-2.4c3-1.57,6.85-2.7,10-2.31-1.59,1.24-3.2,2.43-4.63,3.72a105.19,105.19,0,0,0,16.34-1.36,136.9,136.9,0,0,0,15.2-3.5c5-1.4,10-3,15.3-4.47s10.82-2.91,17-4.18c.46,3.88,6.79,5.88,15.33,5.72,1.05,0,2.15-.07,3.28-.18s2.25-.22,3.4-.36,2.32-.39,3.48-.61,2.31-.43,3.47-.77a67.14,67.14,0,0,0,6.65-2l3.05-1.12c1-.37,1.88-.81,2.75-1.19l.07,1.24c1.26-.66,2.5-1.32,3.72-2s2.37-1.49,3.53-2.25l1.71-1.15c.56-.42,1.11-.83,1.65-1.25,1.08-.84,2.2-1.65,3.18-2.54a72.86,72.86,0,0,0,10.5-11.08A81.84,81.84,0,0,0,1142,543a99.47,99.47,0,0,0,5.12-11.64,140.45,140.45,0,0,0,6-22.87l.51-2.85c.15-.95.29-1.9.44-2.85q.45-2.85.91-5.74t.78-5.87l.42-3c.11-1,.23-2,.34-3,6.39-8.89,10.25-26.25,10.73-45.18a274.42,274.42,0,0,0-.75-28.8c-.71-9.5-1.66-18.66-2.19-27-.21,2.63-1.77,2.72-3.5,1.51a15.07,15.07,0,0,1-4.79-6.38,11.85,11.85,0,0,0-.48-3,26.47,26.47,0,0,0-1.17-3.16c-.92-2.12-2-4.24-2.91-6.09-1.83-3.72-2.66-6.58,1-7.13l.65,2.62a11.57,11.57,0,0,0,1.82-6.84,30,30,0,0,0-1.41-8.5,79.74,79.74,0,0,0-3.34-9.14c-.66-1.52-1.31-3-1.95-4.53l-1.93-4.35q-4.76,1-9.48,2.09c-.11-8.52-2.93-17.43-7.41-25.87a138.32,138.32,0,0,0-16.5-23.77c-6.11-7.28-12.36-13.75-17.22-19.72s-8.52-11.33-9.39-16.61c-3.61-1.84-7-4.5-10.58-6.92-1.77-1.23-3.53-2.45-5.3-3.57a47.74,47.74,0,0,0-5.44-2.81l3.61-3.62-2.81-2.71c-.91-.87-1.84-1.68-2.73-2.49l-5.17-4.6c-1.72-1.42-3.4-2.78-5.09-4.12s-3.36-2.68-5.16-3.93S1044,208,1042,206.7s-4-2.52-6.2-3.86l-3.4-2-3.72-2c-2.58-1.36-5.29-2.85-8.37-4.23,2.19-.23,4.41-.45,6.59-.57a16.94,16.94,0,0,0-4.89-2,19.83,19.83,0,0,0-4.69-.62,33.19,33.19,0,0,0-8.88,1.33,70.3,70.3,0,0,1-8.54,1.82,17.89,17.89,0,0,1-8.92-1q-.51-4.24-1.14-8.53c-12.31-4.5-24.73-9.64-37.9-12.71s-26.76-4-39.56-.44a5.25,5.25,0,0,1,1.27-2.13,6.39,6.39,0,0,1,4.19-1.44c-1.55,0-3.49-.24-5.62-.31l-7-.33c-2.51-.14-5.07-.09-7.67-.09-1.29,0-2.58,0-3.85.07s-2.5.16-3.71.27a65.61,65.61,0,0,0-6.69.89,23.4,23.4,0,0,0-5.05,1.64c-2.67,1.31-3.77,3.09-2.39,5.56-.27-1.68-2-2.39-4.72-2.34A39.68,39.68,0,0,0,861,175.51c-2,.58-4,1.25-6.05,2s-4.1,1.55-6.11,2.35c-4,1.59-7.79,3.31-10.9,4.65l1.08-5.31c-9.74,8.41-9.69,10.2-24.34,15.07-3.68.11-3.93-3.28,1-3-12.35-.1-8.23,6.61-23,7l4.64-4.24c-12.13,2.13-10.79,3.57-16.71,8.57-3.59,1.7-9.38,2.5-14.54,2.21a35.55,35.55,0,0,1-3.72-.36,23.44,23.44,0,0,1-3.22-.77c-1.93-.62-3.36-1.46-4-2.52a11.31,11.31,0,0,1-4.95,4.87,16.64,16.64,0,0,1-9.51,2.25c-1.13-1.6,1.3-2.94,2.52-3.59a51.54,51.54,0,0,0-7.05,0c-2.19.15-4.22.33-6.15.65-3.86.68-7.27,1.43-10.53,2.24-1.63.43-3.21.71-4.77,1A41.64,41.64,0,0,1,710,209a23,23,0,0,1-9.53-1.74,3.79,3.79,0,0,0-2-3.16c15.1,1.25,27.74.24,26.56.79-.14-2.3-3.32-3.52-5.22-5s-2.52-3.26,2.09-6.67l-3.84,1.65c-1.38.59-2.82,1.15-4.35,1.76s-3.14,1.23-4.79,1.78-3.33,1-5,1.49c-.86.23-1.72.45-2.59.66s-1.73.31-2.59.45c-1.73.27-3.46.46-5.16.57a31.51,31.51,0,0,1-4.9-.23,19.38,19.38,0,0,1-4.48-1,5.88,5.88,0,0,1-1.24-1.86l1.25-.29a14.4,14.4,0,0,0-7.25-.57c-1.69-.8-3-1.47-4.41-2.05s-2.72-1-4.34-1.6a3.66,3.66,0,0,0-2-2.64,33.77,33.77,0,0,0-4.59-2.07c-1.75-.69-3.68-1.31-5.49-1.89s-3.46-1.28-4.75-1.91c-.81,2.42-2.88,2.62-4.17,3.08s-1.79,1.14.71,4.61c-.36-.37,0-.38.84-.13s2.33.72,4.19,1.4a10.24,10.24,0,0,0,2.58.39l-.54.28c1.86.59,4,1.36,6.35,2.12l7.81,2.18a24.1,24.1,0,0,1-8,.72,11.83,11.83,0,0,1-4.07-1.23,16.32,16.32,0,0,1-4-2.8,62.47,62.47,0,0,1-11.24,4c-2.48-5.06-6.79-10.35-10.38-15.17s-6.55-9-6.39-11.52c-9-3.86-19-10.06-29.12-15.08s-20.33-8.72-28.44-7.72c-2.92-.89-4.13-2.28-4.79-3.79s-.78-3.05-1.48-4.23c3.65.71,7.29,2.85,9.63,2.58-5.95-1.9-14.25-5.89-22.21-8.13s-15.18-2.87-17.39.05a26.07,26.07,0,0,1-3.84-2c-.8-.53-1.15-1-1.21-1.32-.12-.73.93-1.19,1.79-1.55s1.5-.58.54-1a17.67,17.67,0,0,0-2.87-.66c-.74-.12-1.63-.27-2.69-.41l-3.73-.31q1.65-.83,3.36-1.62A51.17,51.17,0,0,0,506,124.81a54.48,54.48,0,0,0-15.7,1.88,62.27,62.27,0,0,0-13.87,5.65c-1.08.57-2.14,1.17-3.16,1.82s-2,1.27-3,1.92c-2,1.38-3.92,2.71-5.75,4.18-7.47,5.75-14,12.12-21.21,18.19a129.94,129.94,0,0,1-25.64,17.29c2.8-1.54,4.22-2.31,5.44-1.93-10.34,7.6-19.49,16.53-28.25,25.54l-13,13.48q-1.62,1.66-3.26,3.3c-1.08,1.11-2.18,2.16-3.28,3.21-2.21,2.09-4.37,4.26-6.69,6.25a167.66,167.66,0,0,1-29.52,21.48,114.36,114.36,0,0,1-33.5,12.74C292.63,263,292.78,267.28,286,273q-2.24-2.16-4.41-4.33c-1.89,1.68-3.8,3.39-5.77,5s-3.95,3.28-6,4.85a30.52,30.52,0,0,1-6.93,2.44,36.17,36.17,0,0,1-7,.66,49.09,49.09,0,0,1-7-.48c-2.36-.29-4.71-.59-7.09-1s-4.79-.73-7.23-1a50.37,50.37,0,0,0-7.51-.4,44.11,44.11,0,0,0-8,.76,49.43,49.43,0,0,0-8.76,2.46l3.35,3.55c-2.28-.09-5.21.08-8.31.15l-4.71.18c-1.57.05-3.12,0-4.59,0-5.88,0-10.39-.81-9.49-2.82a17,17,0,0,1-2.4,1.76,4.24,4.24,0,0,1-1.91.46,4.57,4.57,0,0,1-2.32-.85v-2.86l-5.62.66c-1.88.19-3.76.31-5.66.47-3.79.36-7.58.47-11.41.64-8.35-2.69-7-5.38-6.78-8s-.52-5.12-12.07-8.54a87.75,87.75,0,0,0-16.57-.25c-5.36.33-9.45,1.24-8.14,2.74,3.48,1.42,8.44,5.05,7.84,7.77-2.93-.44-5.81-1.07-8.74-1.6-2.24,3.65-5.79,6.83-6.45,10.78-.35,2,.1,4.14,1.87,6.68a24.42,24.42,0,0,0,3.75,4.09,48.29,48.29,0,0,0,6.3,4.55c1.44,0,2.85.05,4.28,0l4.28-.1c2.85-.08,5.65-.12,8.48-.34l4.09,5.2-6.7-1.53c-2.24-.5-4.44-1.16-6.66-1.73a16.06,16.06,0,0,0,4.74,3.07,13.81,13.81,0,0,0,4.58.86,39.44,39.44,0,0,0,8.81-1.27c.81,2.38,2.75,4.34,5.8,5.8,5.82-1.68,11.47-3.37,17-5.37.73,1.75-1.23,3.12-2.12,4.46s-.68,2.63,4.59,4.26c4-1.43,2.36-3.46,1.4-5.24s-1.32-3.34,4.83-3.95c3.6,2.28,4.82,4.15,6.29,5.08s3.19,1,7.79-.3c1.16,2.22-.81,3.5-4.51,4.19,4.16-.95,9.53-1.11,14.42-1.46,4.87-.52,9.25-1.2,11.26-3.53a18.14,18.14,0,0,0,7.67,1.65c2.92.07,6-.22,8.88-.36,5.68-.38,10.3-.42,10.36,3.58a47.13,47.13,0,0,1,8.48-5c2-.93,4.06-2,6.12-2.79a41,41,0,0,1,5.86-1.92c-2.87,2.94-2.65,4.11-.63,4.44s5.76-.39,9.83-1.1a78,78,0,0,1,11.68-1.78c3.26-.12,5.51.66,5.3,3.36a17,17,0,0,1,3.7-3.74,32.7,32.7,0,0,1,5.06-3.28A139,139,0,0,1,306,296.87c9.31-3.93,19.54-8.37,26.51-14.39-.58,1.06-1.78,3.11-3.39,3.39,2.36-.89,4.36-1.51,6.12-2a42.68,42.68,0,0,1,4.79-1,65.4,65.4,0,0,0,8.79-1.57,7.09,7.09,0,0,1,.78-5.46,33.88,33.88,0,0,1,4.17-6.1c.85-1,1.77-2.1,2.68-3.16l2.67-3.27a39.56,39.56,0,0,0,4.41-6.36c6.86-.66,6.62,2,5.36,5.41s-3.55,7.24-.08,8.9c-.93-1.12-.42-2.67.68-4.52a50.84,50.84,0,0,1,4.48-5.85,28.93,28.93,0,0,0,3.86-5.38c.71-1.5.63-2.56-.92-2.87,5-1.13,6.92-2.08,8.5-2.44s2.85-.22,6.65.45c-2.16-3.89-.77-5.63,1.5-7.56a36.17,36.17,0,0,0,3.69-3.34,11.52,11.52,0,0,0,2.63-5.34c6.31-3,8.31-2.15,9.89-2s2.65-.48,6.75-6.5c3.34-1.45,3.35.61,2.49,3a27.25,27.25,0,0,1-1.6,3.56C416.88,233.49,416.44,234.2,416.44,234.2ZM683,231.61l0,.1c-3.07-.21-5.68-.68-7.35-.88l2.87.37c.59.07,1.25.17,2,.24Zm29.69,1.79c-3.58-.09-8.08-.36-12.83-.45-.94-1.78.28-3.54,3.2-3.36-.82.56.47,1.15,2.54,1.79,1,.33,2.25.66,3.5,1S711.6,233,712.7,233.4Zm-51-42.74c.93.18,1.71.34,2.34.52a5.45,5.45,0,0,1,1.47.7,2.55,2.55,0,0,1,1.11,1.71c-.87-.22-1.83-.44-2.91-.66-.54-.12-1.12-.21-1.72-.36l-1.91-.47c-.17.14-.46.26-.63.43A6.34,6.34,0,0,1,661.73,190.66Z" transform="translate(-106.12 -124.8)"/>
          <path class="cls-2" d="M652.87,194.45a9.09,9.09,0,0,1-1.65-.3,14.74,14.74,0,0,0,1.78,2c.66-.33,1.32-.66,1.91-1Z" transform="translate(-106.12 -124.8)"/>
          <path class="cls-2" d="M514.53,1183.78l.61.14a3.52,3.52,0,0,1-1.24-.78C514.29,1183.4,514.28,1183.56,514.53,1183.78Z" transform="translate(-106.12 -124.8)"/>
          <polygon class="cls-2" points="951.03 156.09 951.93 155.18 949.6 154.34 951.03 156.09"/>
          <path class="cls-2" d="M549.18,1188.42a3.44,3.44,0,0,0,1.21,1.92C550.44,1190,549.89,1189.27,549.18,1188.42Z" transform="translate(-106.12 -124.8)"/>
          <path class="cls-2" d="M595.94,1225.61a17.36,17.36,0,0,1,.8,2l.73,2c.23.65.49,1.29.71,1.94l.58,2c-.21-.88-.38-1.71-.62-2.46s-.5-1.43-.74-2.08A23.75,23.75,0,0,0,595.94,1225.61Z" transform="translate(-106.12 -124.8)"/>
          <path class="cls-2" d="M606.7,1266.77a6.82,6.82,0,0,0,2.14.89s0-.06,0-.09Z" transform="translate(-106.12 -124.8)"/>
          <path class="cls-2" d="M475.94,782.74a10.87,10.87,0,0,0,.57-1.89c.45-2.56.42-3.16.26-2.49S476.26,780.81,475.94,782.74Z" transform="translate(-106.12 -124.8)"/>
          <path class="cls-2" d="M618.11,1000a69.72,69.72,0,0,1-7.59-2.29C613.79,1000.39,616.36,1002.31,618.11,1000Z" transform="translate(-106.12 -124.8)"/>
          <path class="cls-2" d="M743.48,848.18s0,0,0,.09l1.12-.31Z" transform="translate(-106.12 -124.8)"/>
          <path class="cls-2" d="M601.34,991.65a24.88,24.88,0,0,0,9.18,6.09C607.85,995.55,604.71,992.89,601.34,991.65Z" transform="translate(-106.12 -124.8)"/>
          <path class="cls-2" d="M466.47,1334.28l-1.49-1.39a1.11,1.11,0,0,1-.68.51Z" transform="translate(-106.12 -124.8)"/>
          <path class="cls-2" d="M464.3,1333.4c-.72-.3-1.47-.59-2.16-.94C462.92,1333.16,463.71,1333.63,464.3,1333.4Z" transform="translate(-106.12 -124.8)"/>
          <path class="cls-2" d="M457.7,1330.26c1.43.82,3,1.51,4.44,2.2a14.22,14.22,0,0,0-2.05-1.6A3.33,3.33,0,0,0,457.7,1330.26Z" transform="translate(-106.12 -124.8)"/>
          <path class="cls-2" d="M520.32,1352.61l.59-1.86A3,3,0,0,0,520.32,1352.61Z" transform="translate(-106.12 -124.8)"/>
          <path class="cls-2" d="M537.49,1349.56a17.74,17.74,0,0,1-3.54.08l-4.07-.45a23,23,0,0,0-8.51.08l-.46,1.48c.64-.71,1.75-.79,3.13-.71a21.69,21.69,0,0,1,2.25.34l2.5.43a21.08,21.08,0,0,0,5.05.37A5,5,0,0,0,537.49,1349.56Z" transform="translate(-106.12 -124.8)"/>
          <path class="cls-2" d="M614.54,1316.31a121.71,121.71,0,0,1-11.68,14.3c1.77-.61,3.8-1.43,4.83-1.17.51.12.76.51.57,1.31a11.1,11.1,0,0,1-2.09,3.78c4.93-3.73,6.87-5.78,7.37-6.72s-.42-.86-1.44-.9-2.15-.2-2.11-1.58a7.75,7.75,0,0,1,1.08-3.09A67.26,67.26,0,0,1,614.54,1316.31Z" transform="translate(-106.12 -124.8)"/>
          <path class="cls-2" d="M631.59,1260.37c.65,5.27,1.35,5.28,2,4s1.35-4,1.91-3.73a32.18,32.18,0,0,0-1.46-4.07c-.41-1-.75-1.54-1-1.64C632.45,1254.68,632.15,1256.37,631.59,1260.37Z" transform="translate(-106.12 -124.8)"/>
          <path class="cls-2" d="M634.16,1149l2.16,4.18C641.88,1147.5,635.23,1151.78,634.16,1149Z" transform="translate(-106.12 -124.8)"/>
          <path class="cls-2" d="M655.61,1076.81c-1.43,1.63-2.94,3.18-4.49,4.66,1,1.35,2,2.74,2.92,4.17A72.87,72.87,0,0,0,655.61,1076.81Z" transform="translate(-106.12 -124.8)"/>
          <path class="cls-2" d="M682.89,1029c.81,1.11,1.51,2.34,2.25,3.53-1.23-2.38-2.63-4.59-4-6.79s-2.93-4.24-4.52-6.18l1.68,2.23,1.59,2.34C681,1025.64,681.91,1027.31,682.89,1029Z" transform="translate(-106.12 -124.8)"/>
          <path class="cls-2" d="M815.71,822.12c-1.89,1-3.86,1.93-5.8,2.75.26,3.19,1.71,5.42,3.22,5.49.75,0,1.56-.52,2.09-1.85A13,13,0,0,0,815.71,822.12Z" transform="translate(-106.12 -124.8)"/>
          <path class="cls-2" d="M745.63,700.24a72.45,72.45,0,0,0,3.84,8.76c1.06,1.86,1.73,2.37,2.19.92a66.63,66.63,0,0,1-3.45-5.87C747,702,746,700.18,745.63,700.24Z" transform="translate(-106.12 -124.8)"/>
          <path class="cls-2" d="M1136.59,314.68c1.51,1.5,3,3,4.47,4.58-1.06-1.62-2.19-3.2-3.32-4.78l-3.38-4.71Z" transform="translate(-106.12 -124.8)"/>
        </g>
      </g>
    </g>
  </g>
</svg>
