<svg xmlns="http://www.w3.org/2000/svg" viewBox="0 0 269 615.35"><defs><style>.cls-1{fill:#346b4d;}.cls-2{fill:#325432;}.cls-3{fill:#6ae2a8;}.cls-4{fill:#4a966c;}.cls-5{fill:#352947;}.cls-6{fill:none;stroke:#352947;stroke-miterlimit:10;}</style></defs><title>FeaturePanelLong</title><g id="Layer_2" data-name="Layer 2"><g id="Layer_4" data-name="Layer 4"><path class="cls-1" d="M24.08,606.16A14.9,14.9,0,0,1,9.2,591.27V50.76H29.36a21.42,21.42,0,0,0,21.4-21.4V9.2H244.92A14.89,14.89,0,0,1,259.8,24.08V591.27a14.9,14.9,0,0,1-14.88,14.89Z"/><path class="cls-2" d="M244.92,11.2A12.9,12.9,0,0,1,257.8,24.08V591.27a12.9,12.9,0,0,1-12.88,12.89H24.08A12.9,12.9,0,0,1,11.2,591.27V52.76H29.36a23.42,23.42,0,0,0,23.4-23.4V11.2H244.92m0-4H48.76V29.36a19.39,19.39,0,0,1-19.4,19.4H7.2V591.27a16.9,16.9,0,0,0,16.88,16.89H244.92a16.9,16.9,0,0,0,16.88-16.89V24.08A16.9,16.9,0,0,0,244.92,7.2Z"/><path class="cls-3" d="M24.08,614.35A23.11,23.11,0,0,1,1,591.27V24.08A23.11,23.11,0,0,1,24.08,1H244.92A23.11,23.11,0,0,1,268,24.08V591.27a23.11,23.11,0,0,1-23.08,23.08ZM8.2,591.27a15.9,15.9,0,0,0,15.88,15.89H244.92a15.9,15.9,0,0,0,15.88-15.89V24.08A15.89,15.89,0,0,0,244.92,8.2H49.76V29.36a20.42,20.42,0,0,1-20.4,20.4H8.2Z"/><path class="cls-4" d="M244.92,2A22.11,22.11,0,0,1,267,24.08V591.27a22.1,22.1,0,0,1-22.08,22.08H24.08A22.1,22.1,0,0,1,2,591.27V24.08A22.11,22.11,0,0,1,24.08,2H244.92M24.08,608.16H244.92a16.9,16.9,0,0,0,16.88-16.89V24.08A16.9,16.9,0,0,0,244.92,7.2H48.76V29.36a19.39,19.39,0,0,1-19.4,19.4H7.2V591.27a16.9,16.9,0,0,0,16.88,16.89M244.92,0H24.08A24.1,24.1,0,0,0,0,24.08V591.27a24.1,24.1,0,0,0,24.08,24.08H244.92A24.1,24.1,0,0,0,269,591.27V24.08A24.1,24.1,0,0,0,244.92,0ZM50.76,9.2H244.92A14.89,14.89,0,0,1,259.8,24.08V591.27a14.9,14.9,0,0,1-14.88,14.89H24.08A14.9,14.9,0,0,1,9.2,591.27V50.76H29.36a21.42,21.42,0,0,0,21.4-21.4V9.2Z"/><polygon class="cls-5" points="13.69 29.28 24.08 30.58 20.2 22.17 29.93 23.43 27.98 17.59 34.48 16.29 40.97 11.09 37.27 18.89 32.53 19.54 35.13 27.33 26.68 26.68 31.23 35.13 18.89 33.18 20.19 39.67 14.99 38.37 13.69 29.28"/><line class="cls-6" x1="252.71" y1="49.41" x2="55.26" y2="49.41"/><line class="cls-6" x1="241.5" y1="573.33" x2="22.29" y2="573.33"/><line class="cls-6" x1="252.5" y1="97.33" x2="19.29" y2="97.33"/></g></g></svg>