<svg xmlns="http://www.w3.org/2000/svg" viewBox="0 0 269 615.35"><defs><style>.cls-1{fill:#9b8529;}.cls-2{fill:#5b5b4d;}.cls-3{fill:#ffe471;}.cls-4{fill:#847a4f;}.cls-5{fill:none;stroke:#352947;stroke-miterlimit:10;}.cls-6{fill:#352947;}</style></defs><title>ItemPanelLong</title><g id="Layer_2" data-name="Layer 2"><g id="Layer_4" data-name="Layer 4"><path class="cls-1" d="M24.08,606.16A14.9,14.9,0,0,1,9.2,591.27V50.76H29.36a21.42,21.42,0,0,0,21.4-21.4V9.2H244.92A14.89,14.89,0,0,1,259.8,24.08V591.27a14.9,14.9,0,0,1-14.88,14.89Z"/><path class="cls-2" d="M244.92,11.2A12.9,12.9,0,0,1,257.8,24.08V591.27a12.9,12.9,0,0,1-12.88,12.89H24.08A12.9,12.9,0,0,1,11.2,591.27V52.76H29.36a23.42,23.42,0,0,0,23.4-23.4V11.2H244.92m0-4H48.76V29.36a19.39,19.39,0,0,1-19.4,19.4H7.2V591.27a16.9,16.9,0,0,0,16.88,16.89H244.92a16.9,16.9,0,0,0,16.88-16.89V24.08A16.9,16.9,0,0,0,244.92,7.2Z"/><path class="cls-3" d="M24.08,614.35A23.11,23.11,0,0,1,1,591.27V24.08A23.11,23.11,0,0,1,24.08,1H244.92A23.11,23.11,0,0,1,268,24.08V591.27a23.11,23.11,0,0,1-23.08,23.08ZM8.2,591.27a15.9,15.9,0,0,0,15.88,15.89H244.92a15.9,15.9,0,0,0,15.88-15.89V24.08A15.89,15.89,0,0,0,244.92,8.2H49.76V29.36a20.42,20.42,0,0,1-20.4,20.4H8.2Z"/><path class="cls-4" d="M244.92,2A22.11,22.11,0,0,1,267,24.08V591.27a22.1,22.1,0,0,1-22.08,22.08H24.08A22.1,22.1,0,0,1,2,591.27V24.08A22.11,22.11,0,0,1,24.08,2H244.92M24.08,608.16H244.92a16.9,16.9,0,0,0,16.88-16.89V24.08A16.9,16.9,0,0,0,244.92,7.2H48.76V29.36a19.39,19.39,0,0,1-19.4,19.4H7.2V591.27a16.9,16.9,0,0,0,16.88,16.89M244.92,0H24.08A24.1,24.1,0,0,0,0,24.08V591.27a24.1,24.1,0,0,0,24.08,24.08H244.92A24.1,24.1,0,0,0,269,591.27V24.08A24.1,24.1,0,0,0,244.92,0ZM50.76,9.2H244.92A14.89,14.89,0,0,1,259.8,24.08V591.27a14.9,14.9,0,0,1-14.88,14.89H24.08A14.9,14.9,0,0,1,9.2,591.27V50.76H29.36a21.42,21.42,0,0,0,21.4-21.4V9.2Z"/><line class="cls-5" x1="252.71" y1="160.33" x2="16.29" y2="160.33"/><line class="cls-5" x1="252.71" y1="329.33" x2="16.29" y2="329.33"/><line class="cls-5" x1="252.71" y1="80.33" x2="16.29" y2="80.33"/><line class="cls-5" x1="252.71" y1="109.33" x2="16.29" y2="109.33"/><line class="cls-5" x1="252.71" y1="49.41" x2="55.26" y2="49.41"/><polygon class="cls-6" points="14.99 39.37 20.19 34.18 22.78 36.77 22.78 39.37 26.68 39.37 26.68 35.48 23.76 32.55 39.67 18.59 39.67 12.09 33.18 12.09 18.89 27.68 16.29 25.08 12.39 25.08 12.39 28.98 14.99 28.98 17.59 31.58 12.39 36.77 14.99 39.37"/><line class="cls-5" x1="252.71" y1="573.33" x2="16.29" y2="573.33"/></g></g></svg>