<svg xmlns="http://www.w3.org/2000/svg" viewBox="0 0 208 482">
  <defs>
    <style>
      .cls-1 {
        fill: #645778;
      }

      .cls-2 {
        fill: #392f44;
      }

      .cls-3 {
        fill: #352947;
      }

      .cls-4 {
        fill: #8a61bd;
      }

      .cls-5 {
        fill: #543868;
      }
    </style>
  </defs>
  <g id="Layer_2" data-name="Layer 2">
    <g id="Layer_4" data-name="Layer 4">
      <path class="cls-1" d="M189,10H19a9,9,0,0,0-9,9V463a9,9,0,0,0,9,9H189a9,9,0,0,0,9-9V19A9,9,0,0,0,189,10Z"/>
      <path class="cls-2" d="M189,8H19A11,11,0,0,0,8,19V463a11,11,0,0,0,11,11H189a11,11,0,0,0,11-11V19A11,11,0,0,0,189,8Zm9,182V463a9,9,0,0,1-9,9H19a9,9,0,0,1-9-9V19a9,9,0,0,1,9-9H189a9,9,0,0,1,9,9V190Z"/>
      <rect class="cls-3" x="13" y="44" width="182" height="1"/>
      <path class="cls-2" d="M189.89,7H18.11A11.1,11.1,0,0,0,7,18.05V464A11.1,11.1,0,0,0,18.11,475H189.89A11.1,11.1,0,0,0,201,464V18.05A11.1,11.1,0,0,0,189.89,7ZM199,189.78V464a9.07,9.07,0,0,1-9.09,9H18.11A9.07,9.07,0,0,1,9,464V18.05a9.07,9.07,0,0,1,9.09-9H189.89a9.07,9.07,0,0,1,9.09,9V189.78Z"/>
      <path class="cls-4" d="M189,2H19A17,17,0,0,0,2,19V463a17,17,0,0,0,17,17H189a17,17,0,0,0,17-17V19A17,17,0,0,0,189,2Zm13,188V463a13,13,0,0,1-13,13H19A13,13,0,0,1,6,463V19A13,13,0,0,1,19,6H189a13,13,0,0,1,13,13V190Z"/>
      <path class="cls-5" d="M189,0H19A19,19,0,0,0,0,19V463a19,19,0,0,0,19,19H189a19,19,0,0,0,19-19V19A19,19,0,0,0,189,0Zm17,177V463a17,17,0,0,1-17,17H19A17,17,0,0,1,2,463V19A17,17,0,0,1,19,2H189a17,17,0,0,1,17,17Z"/>
      <path class="cls-5" d="M189,6H19A13,13,0,0,0,6,19V463a13,13,0,0,0,13,13H189a13,13,0,0,0,13-13V19A13,13,0,0,0,189,6Zm11,171V463a11,11,0,0,1-11,11H19A11,11,0,0,1,8,463V19A11,11,0,0,1,19,8H189a11,11,0,0,1,11,11Z"/>
    </g>
  </g>
</svg>
