<svg xmlns="http://www.w3.org/2000/svg" viewBox="0 0 208 482">
  <defs>
    <style>
      .cls-1 {
        fill: #645778;
      }

      .cls-2 {
        fill: #392f44;
      }

      .cls-3 {
        fill: #8a61bd;
      }

      .cls-4 {
        fill: #543868;
      }

      .cls-5 {
        fill: none;
        stroke: #352947;
        stroke-miterlimit: 10;
      }
    </style>
  </defs>
  <g id="Layer_2" data-name="Layer 2">
    <g id="Layer_4" data-name="Layer 4">
      <path class="cls-1" d="M189,10H19a9,9,0,0,0-9,9V463a9,9,0,0,0,9,9H189a9,9,0,0,0,9-9V19A9,9,0,0,0,189,10Z"/>
      <path class="cls-2" d="M189,8H19A11,11,0,0,0,8,19V463a11,11,0,0,0,11,11H189a11,11,0,0,0,11-11V19A11,11,0,0,0,189,8Zm9,182V463a9,9,0,0,1-9,9H19a9,9,0,0,1-9-9V19a9,9,0,0,1,9-9H189a9,9,0,0,1,9,9V190Z"/>
      <path class="cls-2" d="M189.89,7H18.11A11.1,11.1,0,0,0,7,18.05V464A11.1,11.1,0,0,0,18.11,475H189.89A11.1,11.1,0,0,0,201,464V18.05A11.1,11.1,0,0,0,189.89,7ZM199,189.78V464a9.07,9.07,0,0,1-9.09,9H18.11A9.07,9.07,0,0,1,9,464V18.05a9.07,9.07,0,0,1,9.09-9H189.89a9.07,9.07,0,0,1,9.09,9V189.78Z"/>
      <path class="cls-3" d="M189,2H19A17,17,0,0,0,2,19V463a17,17,0,0,0,17,17H189a17,17,0,0,0,17-17V19A17,17,0,0,0,189,2Zm13,188V463a13,13,0,0,1-13,13H19A13,13,0,0,1,6,463V19A13,13,0,0,1,19,6H189a13,13,0,0,1,13,13V190Z"/>
      <path class="cls-4" d="M189,0H19A19,19,0,0,0,0,19V463a19,19,0,0,0,19,19H189a19,19,0,0,0,19-19V19A19,19,0,0,0,189,0Zm17,177V463a17,17,0,0,1-17,17H19A17,17,0,0,1,2,463V19A17,17,0,0,1,19,2H189a17,17,0,0,1,17,17Z"/>
      <path class="cls-4" d="M189,6H19A13,13,0,0,0,6,19V463a13,13,0,0,0,13,13H189a13,13,0,0,0,13-13V19A13,13,0,0,0,189,6Zm11,171V463a11,11,0,0,1-11,11H19A11,11,0,0,1,8,463V19A11,11,0,0,1,19,8H189a11,11,0,0,1,11,11Z"/>
      <line class="cls-5" x1="196" y1="37.59" x2="14" y2="37.59"/>
      <line class="cls-5" x1="196" y1="64.78" x2="14" y2="64.78"/>
      <line class="cls-5" x1="196" y1="91.97" x2="14" y2="91.97"/>
      <line class="cls-5" x1="196" y1="119.16" x2="14" y2="119.16"/>
      <line class="cls-5" x1="196" y1="146.34" x2="14" y2="146.34"/>
      <line class="cls-5" x1="196" y1="173.53" x2="14" y2="173.53"/>
      <line class="cls-5" x1="196" y1="200.72" x2="14" y2="200.72"/>
      <line class="cls-5" x1="196" y1="227.91" x2="14" y2="227.91"/>
      <line class="cls-5" x1="196" y1="255.09" x2="14" y2="255.09"/>
      <line class="cls-5" x1="196" y1="282.28" x2="14" y2="282.28"/>
      <line class="cls-5" x1="196" y1="309.47" x2="14" y2="309.47"/>
      <line class="cls-5" x1="196" y1="336.66" x2="14" y2="336.66"/>
      <line class="cls-5" x1="196" y1="363.84" x2="14" y2="363.84"/>
      <line class="cls-5" x1="196" y1="391.03" x2="14" y2="391.03"/>
      <line class="cls-5" x1="196" y1="418.22" x2="14" y2="418.22"/>
      <line class="cls-5" x1="196" y1="445.41" x2="14" y2="445.41"/>
      <line class="cls-5" x1="73.79" y1="13" x2="73.79" y2="35"/>
      <line class="cls-5" x1="73.79" y1="40.19" x2="73.79" y2="62.19"/>
      <line class="cls-5" x1="73.79" y1="67.38" x2="73.79" y2="89.38"/>
      <line class="cls-5" x1="73.79" y1="94.56" x2="73.79" y2="116.56"/>
      <line class="cls-5" x1="73.79" y1="121.75" x2="73.79" y2="143.75"/>
      <line class="cls-5" x1="73.79" y1="148.94" x2="73.79" y2="170.94"/>
      <line class="cls-5" x1="73.79" y1="176.13" x2="73.79" y2="198.13"/>
      <line class="cls-5" x1="73.79" y1="203.31" x2="73.79" y2="225.31"/>
      <line class="cls-5" x1="73.79" y1="230.5" x2="73.79" y2="252.5"/>
      <line class="cls-5" x1="73.79" y1="257.69" x2="73.79" y2="279.69"/>
      <line class="cls-5" x1="73.79" y1="284.88" x2="73.79" y2="306.88"/>
      <line class="cls-5" x1="73.79" y1="312.06" x2="73.79" y2="334.06"/>
      <line class="cls-5" x1="73.79" y1="339.25" x2="73.79" y2="361.25"/>
      <line class="cls-5" x1="73.79" y1="366.44" x2="73.79" y2="388.44"/>
      <line class="cls-5" x1="73.79" y1="393.63" x2="73.79" y2="415.63"/>
      <line class="cls-5" x1="73.79" y1="420.81" x2="73.79" y2="442.81"/>
      <line class="cls-5" x1="73.79" y1="448" x2="73.79" y2="470"/>
    </g>
  </g>
</svg>
