<svg xmlns="http://www.w3.org/2000/svg" viewBox="0 0 208 256">
  <defs>
    <style>
      .cls-1 {
        fill: #375d99;
      }

      .cls-2 {
        fill: #344399;
      }

      .cls-3 {
        fill: #73a2ff;
      }

      .cls-4 {
        fill: #446491;
      }

      .cls-5 {
        fill: none;
        stroke: #352947;
        stroke-miterlimit: 10;
      }
    </style>
  </defs>
  <g id="Layer_2" data-name="Layer 2">
    <g id="Layer_4" data-name="Layer 4">
      <g>
        <path class="cls-1" d="M189,6H38V23.06A14.94,14.94,0,0,1,23.06,38H6V237a13,13,0,0,0,13,13H189a13,13,0,0,0,13-13V19A13,13,0,0,0,189,6Z"/>
        <path class="cls-2" d="M189,10a9,9,0,0,1,9,9V237a9,9,0,0,1-9,9H19a9,9,0,0,1-9-9V42H23.06A19,19,0,0,0,42,23.06V10H189m0-4H38V23.06A14.94,14.94,0,0,1,23.06,38H6V237a13,13,0,0,0,13,13H189a13,13,0,0,0,13-13V19A13,13,0,0,0,189,6Z"/>
      </g>
      <g>
        <path class="cls-3" d="M19,255A18,18,0,0,1,1,237V19A18,18,0,0,1,19,1H189a18,18,0,0,1,18,18V237a18,18,0,0,1-18,18ZM7,237a12,12,0,0,0,12,12H189a12,12,0,0,0,12-12V19A12,12,0,0,0,189,7H39V23.06A16,16,0,0,1,23.06,39H7Z"/>
        <path class="cls-4" d="M189,2a17,17,0,0,1,17,17V237a17,17,0,0,1-17,17H19A17,17,0,0,1,2,237V19A17,17,0,0,1,19,2H189M19,250H189a13,13,0,0,0,13-13V19A13,13,0,0,0,189,6H38V23.06A14.94,14.94,0,0,1,23.06,38H6V237a13,13,0,0,0,13,13M189,0H19A19,19,0,0,0,0,19V237a19,19,0,0,0,19,19H189a19,19,0,0,0,19-19V19A19,19,0,0,0,189,0ZM40,8H189a11,11,0,0,1,11,11V237a11,11,0,0,1-11,11H19A11,11,0,0,1,8,237V40H23.06A17,17,0,0,0,40,23.06V8Z"/>
      </g>
      <line class="cls-5" x1="104" y1="42.02" x2="104" y2="66.02"/>
      <line class="cls-5" x1="195" y1="70" x2="13" y2="70"/>
      <line class="cls-5" x1="195" y1="38.5" x2="43" y2="38.5"/>
      <line class="cls-5" x1="195" y1="102.5" x2="13" y2="102.5"/>
    </g>
  </g>
</svg>
