<svg xmlns="http://www.w3.org/2000/svg" viewBox="0 0 525 616.35">
  <defs>
    <style>
      .cls-1 {
        fill: #375d99;
      }

      .cls-2 {
        fill: #344399;
      }

      .cls-3 {
        fill: #73a2ff;
      }

      .cls-4 {
        fill: #446491;
      }

      .cls-5 {
        fill: none;
        stroke: #352947;
        stroke-miterlimit: 10;
      }
    </style>
  </defs>
  <g id="Layer_2" data-name="Layer 2">
    <g id="Layer_4" data-name="Layer 4">
      <g>
        <path class="cls-1" d="M500.92,7.2H48.76V29.36a19.39,19.39,0,0,1-19.4,19.4H7.2V592.27a16.9,16.9,0,0,0,16.88,16.89H500.92a16.9,16.9,0,0,0,16.88-16.89V24.08A16.9,16.9,0,0,0,500.92,7.2Z"/>
        <path class="cls-2" d="M500.92,11.2A12.9,12.9,0,0,1,513.8,24.08V592.27a12.9,12.9,0,0,1-12.88,12.89H24.08A12.9,12.9,0,0,1,11.2,592.27V52.76H29.36a23.42,23.42,0,0,0,23.4-23.4V11.2H500.92m0-4H48.76V29.36a19.39,19.39,0,0,1-19.4,19.4H7.2V592.27a16.9,16.9,0,0,0,16.88,16.89H500.92a16.9,16.9,0,0,0,16.88-16.89V24.08A16.9,16.9,0,0,0,500.92,7.2Z"/>
      </g>
      <g>
        <path class="cls-3" d="M24.08,615.35A23.11,23.11,0,0,1,1,592.27V24.08A23.11,23.11,0,0,1,24.08,1H500.92A23.11,23.11,0,0,1,524,24.08V592.27a23.11,23.11,0,0,1-23.08,23.08ZM8.2,592.27a15.9,15.9,0,0,0,15.88,15.89H500.92a15.9,15.9,0,0,0,15.88-15.89V24.08A15.89,15.89,0,0,0,500.92,8.2H49.76V29.36a20.42,20.42,0,0,1-20.4,20.4H8.2Z"/>
        <path class="cls-4" d="M500.92,2A22.11,22.11,0,0,1,523,24.08V592.27a22.1,22.1,0,0,1-22.08,22.08H24.08A22.1,22.1,0,0,1,2,592.27V24.08A22.11,22.11,0,0,1,24.08,2H500.92M24.08,609.16H500.92a16.9,16.9,0,0,0,16.88-16.89V24.08A16.9,16.9,0,0,0,500.92,7.2H48.76V29.36a19.39,19.39,0,0,1-19.4,19.4H7.2V592.27a16.9,16.9,0,0,0,16.88,16.89M500.92,0H24.08A24.1,24.1,0,0,0,0,24.08V592.27a24.1,24.1,0,0,0,24.08,24.08H500.92A24.1,24.1,0,0,0,525,592.27V24.08A24.1,24.1,0,0,0,500.92,0ZM50.76,9.2H500.92A14.89,14.89,0,0,1,515.8,24.08V592.27a14.9,14.9,0,0,1-14.88,14.89H24.08A14.9,14.9,0,0,1,9.2,592.27V50.76H29.36a21.42,21.42,0,0,0,21.4-21.4V9.2Z"/>
      </g>
      <line class="cls-5" x1="134.5" y1="53.99" x2="134.5" y2="85.16"/>
      <line class="cls-5" x1="252.71" y1="90.33" x2="16.29" y2="90.33"/>
      <line class="cls-5" x1="128.5" y1="132.99" x2="128.5" y2="164.16"/>
      <line class="cls-5" x1="253.71" y1="166.33" x2="15.29" y2="166.33"/>
      <line class="cls-5" x1="265.5" y1="253.54" x2="265.5" y2="15.12"/>
      <line class="cls-5" x1="252.71" y1="49.41" x2="55.26" y2="49.41"/>
      <line class="cls-5" x1="252.71" y1="126.55" x2="16.29" y2="126.55"/>
      <line class="cls-5" x1="507.5" y1="262.55" x2="24.29" y2="262.55"/>
    </g>
  </g>
</svg>
